<svg id="Layer_1" data-name="Layer 1" xmlns="http://www.w3.org/2000/svg" viewBox="0 0 456.81 202.48"><defs><style>.cls-1{fill:#7bc144;}.cls-2{fill:#fff;}.cls-11,.cls-13,.cls-15,.cls-17,.cls-19,.cls-21,.cls-23,.cls-25,.cls-27,.cls-3,.cls-31,.cls-5,.cls-7,.cls-9{fill:none;}.cls-3{stroke:#fff;stroke-width:3.29px;}.cls-11,.cls-13,.cls-15,.cls-17,.cls-19,.cls-21,.cls-23,.cls-25,.cls-27,.cls-3,.cls-5,.cls-7,.cls-9{stroke-linecap:round;stroke-linejoin:round;}.cls-4{fill:#f1f4fa;}.cls-5{stroke:#f1f4fa;stroke-width:3.04px;}.cls-6{fill:#e7ebf6;}.cls-7{stroke:#e7ebf6;stroke-width:2.78px;}.cls-8{fill:#dde4f4;}.cls-9{stroke:#dde4f4;stroke-width:2.53px;}.cls-10{fill:#d4dcf0;}.cls-11{stroke:#d4dcf0;stroke-width:2.28px;}.cls-12{fill:#cad6ed;}.cls-13{stroke:#cad6ed;stroke-width:2.02px;}.cls-14{fill:#bfceea;}.cls-15{stroke:#bfceea;stroke-width:1.77px;}.cls-16{fill:#b6c6e6;}.cls-17{stroke:#b6c6e6;stroke-width:1.52px;}.cls-18{fill:#acc1e4;}.cls-19{stroke:#acc1e4;stroke-width:1.27px;}.cls-20{fill:#a4bae1;}.cls-21{stroke:#a4bae1;stroke-width:1.01px;}.cls-22{fill:#9bb5de;}.cls-23{stroke:#9bb5de;stroke-width:0.76px;}.cls-24{fill:#92aedb;}.cls-25{stroke:#92aedb;stroke-width:0.51px;}.cls-26{fill:#88a8d8;}.cls-27{stroke:#88a8d8;stroke-width:0.25px;}.cls-28{fill:#fcee23;}.cls-29{fill:#ec2130;}.cls-30{fill:#fcb131;}</style></defs><title>Boost_Juice_Bars_Logo</title><path class="cls-1" d="M276.65,305c-4.36.09-11.75-1.25-14.58-4.67a1.9,1.9,0,0,1-.55-1.24,2,2,0,0,1,2-1.92,1.84,1.84,0,0,1,1.41.62,14.93,14.93,0,0,0,10,3.62c0.56,0,1.13-.07,1.7-0.13a5,5,0,0,0,0-.94,91.74,91.74,0,0,0-1.1-9.92,55.22,55.22,0,0,0-1-6.39c-0.86-3.66-.89-7.44-1.44-11.15a68.58,68.58,0,0,1-.91-8.63,0.93,0.93,0,0,1,.91-0.67,1,1,0,0,1,.95.62,67.37,67.37,0,0,0,1.18,8.43,105.54,105.54,0,0,0,2,10.74,61.94,61.94,0,0,1,1.18,6.68c0.49,3.43,2,6.73,2.09,10.2,0.06,2.73-.78,4.68-3.94,4.75" transform="translate(-79.35 -102.56)"/><path class="cls-1" d="M302.35,296.55c-2.34,0-2.65-4.77-2.84-6.46-2,2.27-4.76,5.56-8.12,5.64-6,.12-7.21-2.39-7.33-7.7,0-1.84,1.69-12.75,3.86-12.8a0.67,0.67,0,0,1,.69.63l0.06,2.58c0,2-1.27,6.19-1.19,9.51,0.06,2.78.66,4.11,3.82,4,2.34,0,5.69-5.53,7.79-6.81-0.09-1.69-.18-3.33-0.22-5l-0.06-2.68c0-.85-0.38-2.73.92-2.76a0.91,0.91,0,0,1,1,.87c0.13,6.22,3.48,14.5,3.59,19.12a1.92,1.92,0,0,1-2,1.83" transform="translate(-79.35 -102.56)"/><path class="cls-1" d="M311.18,266.7c-1.3,0-4.53-.75-4.57-2.24a1.62,1.62,0,0,1,1.67-1.67l1.14,0c1.39,0,3.58.23,3.62,2a2,2,0,0,1-1.87,2m2.69,28.12c-5.7.12-5.87-9.76-6-13.54,0-1.69-.8-8,1.74-8,1.66,0,1,1.12,1.08,1.86,0.22,2.48.67,13.61,2.74,15.7,0.75,0.73,1.8,1.75,1.83,2.85a1.25,1.25,0,0,1-1.43,1.17" transform="translate(-79.35 -102.56)"/><path class="cls-1" d="M328.55,294.77a11,11,0,0,1-11.12-10.5c-0.12-5.07,8.52-11.16,13.34-11.25,1,0,3.72,1.81,3.74,2.7a0.67,0.67,0,0,1-.66.66l-0.47-.19a2.15,2.15,0,0,0-1.46-.47c-3.37.07-11.4,4.8-11.32,8.48,0.09,4,3.79,7.17,7.89,7.09,2.69-.06,6.79-5,8.75-5a2,2,0,0,1,2,1.9c0,2-8.42,6.53-10.64,6.58" transform="translate(-79.35 -102.56)"/><path class="cls-1" d="M357.56,279.07a0.22,0.22,0,0,1-.2.2,50.4,50.4,0,0,0-12.71,2,7.27,7.27,0,0,1,7.22-6.26c2.54,0,5.63,1.23,5.69,4m3.88-.08c-0.11-4.71-5.35-7.29-9.75-7.2-6.38.13-9.91,4.82-10.66,10.51-0.88.21-2.64,0.3-2.62,1.44a1.1,1.1,0,0,0,.9,1,9,9,0,0,0,1.56-.23c-0.16,7.05,2.46,12.82,10.76,12.64,1.87,0,8.31-1.41,8.26-3.74a2,2,0,0,0-2-1.91c-0.84,0-3.9,1.87-6.4,1.92-6.48.14-6.64-4.88-7-9.6,2.69-.5,5.93-1.46,8.58-1.52s8.41,0.33,8.33-3.35" transform="translate(-79.35 -102.56)"/><path class="cls-1" d="M390.41,282.23a8.63,8.63,0,0,1-8.62,8.77,5.73,5.73,0,0,1-1.3-.07c-0.52-4.76-.52-9.58-0.83-14.39,0.88-2.1,2-4.31,4.67-4.37,4.71-.09,6,6.64,6.08,10.07m2.38,0c-0.1-4.72-2.35-12.28-8.52-12.16-2.65.06-3.86,1.12-4.89,3.38-0.26-2.13-1.34-11.35-2.15-12.72a1.33,1.33,0,0,0-.9-0.58,1.06,1.06,0,0,0-.86,1c0,1.59.58,3.07,0.72,4.66q0.42,5.21.7,10.42c0.11,2.53.38,5.12,0.43,7.65,0,1.09,0,2.23-.09,3.33a3.18,3.18,0,0,0-.73-0.09,1.5,1.5,0,0,0-1.58,1.57c0.1,4.13,3,5.5,6.92,5.43,6.69-.14,11.07-5.74,10.94-11.85" transform="translate(-79.35 -102.56)"/><path class="cls-1" d="M409,284.09l-0.2,5.22a22.52,22.52,0,0,1-7.69,1.79c-1.77,0-2.3-1-2.34-2.64a6,6,0,0,1,6.09-5.83,6.13,6.13,0,0,1,4.13,1.45m4.75,5.92a1.93,1.93,0,0,0-1-1.67c0.09-3.08.23-6.17,0.15-9.25-0.09-4.32-3.57-9.31-8.5-9.22-2.43,0-7.55,3.28-8.07,5.58a0.8,0.8,0,0,0,.8.73c0.36,0,3.29-3.6,7.34-3.68,3.37-.07,4.7,4.08,4.66,6.67l0,3.13a7.69,7.69,0,0,0-5.56-2.52c-4.2.09-7.57,5-7.49,8.75s2.3,5.33,6,5.25a35.21,35.21,0,0,0,6.77-.84,1.85,1.85,0,0,0,2,1.6c1.92,0,1.94-1.48,1.91-2.87a1.8,1.8,0,0,0,1.05-1.67" transform="translate(-79.35 -102.56)"/><path class="cls-1" d="M430.39,277.35c-2.13,0-2-3.34-4.84-3.28-1.5,0-4,2.17-4.59,3.42a37.67,37.67,0,0,1,1.14,9.62c0,1.74.86,5.9-1.84,6a1.84,1.84,0,0,1-2-1.8c-0.07-3.13.33-6.17,0.26-9.3-0.09-4.27-2.47-8.25-2.5-9.79a0.67,0.67,0,0,1,.66-0.61l0.58,0.34c0.87,1.52,1.89.81,3.1,4,0.9-1.46,3.1-4.94,5.07-5,2.44-.05,6.83,1.9,6.89,4.58a2,2,0,0,1-2,1.88" transform="translate(-79.35 -102.56)"/><path class="cls-1" d="M445.66,294.48c-4.72.09-8.48-1.32-11.47-4.88a1.76,1.76,0,0,1-.5-1.19,2,2,0,0,1,2-1.92c2.12-.05,2.64,4.41,9.9,4.26,3.37-.06,6.2-1,6.12-4.74-0.16-7.4-17.22-2.48-17.38-9.74-0.09-3.83,5.42-5.18,8.54-5.25,2,0,8,.69,8,3.32a0.6,0.6,0,0,1-.61.76,0.94,0.94,0,0,1-.63-0.54c-0.54-.93-1.73-0.85-2.77-0.84-1.65,0-9.53.34-9.49,2.48,3,3.76,17,.1,17.23,9.74,0.14,5.72-3.14,8.41-8.94,8.53" transform="translate(-79.35 -102.56)"/><path class="cls-2" d="M190.3,158h0c-11.13,12.84-14.91,29.19-11.22,48.59l0.23,1.35-0.16.24,5.62,18.55L185,227c12.31,15.16,28.52,18.55,49.57,10.38,17.36-6.74,28.74-24.37,33.8-52.4s-20.46-44.87-27.57-47.84c-6.34-2.65-30.09-2.62-50.46,20.89m17.35,29.93a12.49,12.49,0,0,1-.94-10.76c3.5-9.78,9-21.11,20.88-22h0.17l0.18,0c0.16,0,4-1,7.09,3.29,3.71,5.11,5.11,19.57,3.05,24.13l-0.11.26c-2.39,5.28-6.81,15.14-17.77,13-5.77-1.13-10.23-3.92-12.56-7.86" transform="translate(-79.35 -102.56)"/><path class="cls-3" d="M190.3,158h0c-11.13,12.84-14.91,29.19-11.22,48.59l0.23,1.35-0.16.24,5.62,18.55,0.19,0.24c12.31,15.16,28.52,18.55,49.57,10.38,17.36-6.74,28.74-24.37,33.8-52.4s-20.46-44.87-27.57-47.84C234.42,134.44,210.67,134.47,190.3,158Zm17.35,29.93a12.49,12.49,0,0,1-.94-10.76c3.5-9.78,9-21.11,20.88-22h0.17l0.18,0c0.16,0,4-1,7.09,3.29,3.71,5.11,5.11,19.57,3.05,24.13l-0.11.26c-2.39,5.28-6.81,15.14-17.77,13C214.44,194.63,210,191.84,207.65,187.91Z" transform="translate(-79.35 -102.56)"/><path class="cls-2" d="M263.59,170.91h0c-5,16-1.73,32.48,9.61,48.91L274,221l-0.06.28,12.76,14.91,0.29,0.15c17.51,9.26,33.81,6.22,49.79-9.29,13.19-12.78,16.42-33.3,9.6-61s-37.19-33.47-44.95-33.5c-6.92,0-28.73,9-37.81,38.36m28.21,20.92a12.82,12.82,0,0,1-5.27-9.53c-0.79-10.31-.36-22.83,10.18-28.13l0.15-.07L297,154c0.12-.1,3.23-2.44,7.87.34,5.49,3.28,12.71,16,12.69,21v0.28c0,5.76,0,16.5-11,18.68-5.77,1.14-11,.27-14.76-2.45" transform="translate(-79.35 -102.56)"/><path class="cls-3" d="M263.59,170.9h0c-5,16-1.73,32.48,9.61,48.91L274,221l-0.06.28,12.76,14.91,0.29,0.15c17.51,9.26,33.81,6.22,49.79-9.29,13.19-12.78,16.42-33.3,9.6-61s-37.19-33.47-44.95-33.5C294.48,132.53,272.67,141.57,263.59,170.9Zm28.21,20.92a12.82,12.82,0,0,1-5.27-9.53c-0.79-10.31-.36-22.83,10.18-28.13l0.15-.07L297,154c0.12-.1,3.23-2.44,7.87.34,5.49,3.28,12.71,16,12.69,21v0.28c0,5.76,0,16.5-11,18.68C300.79,195.42,295.55,194.55,291.8,191.82Z" transform="translate(-79.35 -102.56)"/><path class="cls-2" d="M412.18,117.38L408,118.74c-18.81,6.2-36.57,12-46.46,21.17l-5.23,4.6c-6.47,5.52-12.65,10.82-12.57,17.72a14.24,14.24,0,0,0,2,6.91c5.47,9.83,20.22,14.4,32.08,18.07l21,6.74c4.69,1.44,10.31,3.18,12.48,4.18-1.46,1.94-5.69,5.95-14.24,8.26-10.73,2.89-35.22,2.79-39.89,1l-2.15-.86c-2.85-1.17-4.57-1.87-6.24,1.42-0.43.87-4.25,6.41-7.92,11.77-11.68,17-12.16,17.95-12.15,18.86,0,1.44,1.42,6.18,4.42,6.16,1.94,0,34.64-5.25,46.68-8.47,11.56-3.1,54.6-21.39,57.65-25.06,0.13-.16,10.14-12.63,10.05-21.37a7.45,7.45,0,0,0-2.07-5.42c-6.49-6.46-12.61-10.38-18.69-12l-10.21-2.14c-11.28-2.25-37.65-7.52-39.93-10.27l-0.37-.85a16.85,16.85,0,0,1-.64-1.61,25.32,25.32,0,0,1,2.61-.4c5.31-.61,26.69,3.32,30.1,5.54l0.11,0.08,0.14,0.06c1.15,0.49,3.63.54,5.65-2.42l3-4c19.49-25.14,26.76-36.39,25.9-40.13l-1.54-1.73c-1.34-.72-9-4-29.44,2.8" transform="translate(-79.35 -102.56)"/><path class="cls-3" d="M412.18,117.38L408,118.74c-18.81,6.2-36.57,12-46.46,21.17l-5.23,4.6c-6.47,5.52-12.65,10.82-12.57,17.72a14.24,14.24,0,0,0,2,6.91c5.47,9.83,20.22,14.4,32.08,18.07l21,6.74c4.69,1.44,10.31,3.18,12.48,4.18-1.46,1.94-5.69,5.95-14.24,8.26-10.73,2.89-35.22,2.79-39.89,1l-2.15-.86c-2.85-1.17-4.57-1.87-6.24,1.42-0.43.87-4.25,6.41-7.92,11.77-11.68,17-12.16,17.95-12.15,18.86,0,1.44,1.42,6.18,4.42,6.16,1.94,0,34.64-5.25,46.68-8.47,11.56-3.1,54.6-21.39,57.65-25.06,0.13-.16,10.14-12.63,10.06-21.37a7.45,7.45,0,0,0-2.07-5.42c-6.49-6.46-12.61-10.38-18.69-12l-10.21-2.14c-11.28-2.26-37.65-7.52-39.93-10.27l-0.37-.85a16.91,16.91,0,0,1-.64-1.61,25.32,25.32,0,0,1,2.61-.4c5.31-.61,26.69,3.32,30.1,5.54l0.11,0.08,0.14,0.06c1.15,0.49,3.63.54,5.65-2.42l3-4c19.49-25.14,26.76-36.39,25.9-40.13l-1.54-1.73C440.28,113.86,432.62,110.62,412.18,117.38Z" transform="translate(-79.35 -102.56)"/><path class="cls-2" d="M440.51,120.5c-3.13.35-7.9,16-9.47,21.15-2.3,7.57-3,11.1-2.95,12.86a2,2,0,0,0,.8,2c1.06,0.82,3.48,1.16,10.14,1.93,3.74,0.43,9.77,1.13,11.51,1.87-0.76,6-17.64,79.37-20.08,83.51l-0.37.63,0.17,0.79c2.48,7.06,4.7,6.61,5.42,6.47,14.8-3,39.93-8.49,43-12.07a10.49,10.49,0,0,0,2.37-7.42c0-.67,0-1.32-0.07-2l0-3.45c0.17-1.11.56-6.45,1.12-13.83,1-13.45,3-40.41,4.24-46.11,2.71,0.52,9.83,2.13,15.8,3.47,18.75,4.25,18.91,4.19,19.68,3.94a1,1,0,0,0,.46.06c1.31,0.09,3.28.2,4.48-1.17a3.61,3.61,0,0,0,.57-3.42c-0.93-3.75-7.12-20.54-7.38-21.25l-0.28-.75-0.78-.25c-28.11-9-73.82-24-76.77-26.3l0.23,0.28a1.92,1.92,0,0,0-1.88-.94" transform="translate(-79.35 -102.56)"/><path class="cls-3" d="M440.51,120.5c-3.13.35-7.9,16-9.47,21.15-2.3,7.57-3,11.1-2.95,12.86a2,2,0,0,0,.8,2c1.06,0.82,3.48,1.16,10.14,1.93,3.74,0.43,9.77,1.13,11.51,1.87-0.76,6-17.64,79.37-20.08,83.51l-0.37.63,0.17,0.79c2.48,7.06,4.7,6.61,5.42,6.47,14.8-3,39.93-8.5,43-12.07a10.49,10.49,0,0,0,2.37-7.42c0-.67,0-1.32-0.07-2l0-3.45c0.17-1.11.56-6.45,1.12-13.83,1-13.45,3-40.41,4.24-46.11,2.71,0.52,9.83,2.13,15.8,3.47,18.75,4.25,18.91,4.19,19.68,3.94a1,1,0,0,0,.46.06c1.31,0.09,3.28.2,4.48-1.17a3.61,3.61,0,0,0,.57-3.42c-0.93-3.75-7.12-20.54-7.38-21.25l-0.28-.75-0.78-.25c-28.11-9-73.82-24-76.77-26.3l0.23,0.28A1.92,1.92,0,0,0,440.51,120.5Z" transform="translate(-79.35 -102.56)"/><path class="cls-2" d="M141.75,135.29c26.17,2.79,40,12.94,40.19,29.39,0,0.35,0,.69,0,1-0.36,14.39-12.47,22.52-18.45,25.67a92.08,92.08,0,0,0,10.75,8.55c8.41,6,11.46,13.52,11.52,20.34a24.06,24.06,0,0,1-2.2,10.23c-3.18,6.84-13,16.62-41.43,24.4L116,262.21c-10.7,3-10.89,3.1-12.45,2.08a3.06,3.06,0,0,1-1.37-2.38c-2.94-5.85-9.15-58.24-9.86-64.34l-0.58-4.84c-2-17.21-3.86-33.41-4-43.15a33.15,33.15,0,0,1,.49-7.18l0.39-1.73,1.81-.33c1.47-.27,36.16-6.67,51.28-5.05M128,234.34c1,0.56,26-10.14,26.21-13S124.43,218,124.43,218c-1.78.21,2.53,15.8,3.52,16.36m-1.81-61.5c0.8,0.76,22-14.1,22-15.63s-26.37-3.58-26.37-3.58,3.54,18.46,4.34,19.21" transform="translate(-79.35 -102.56)"/><path class="cls-3" d="M141.75,135.29c26.17,2.79,40,12.94,40.19,29.39,0,0.35,0,.69,0,1-0.36,14.39-12.47,22.52-18.45,25.67a92.11,92.11,0,0,0,10.75,8.55c8.41,6,11.46,13.52,11.52,20.34a24.07,24.07,0,0,1-2.2,10.23c-3.18,6.84-13,16.62-41.43,24.4L116,262.21c-10.7,3-10.89,3.1-12.45,2.08a3.06,3.06,0,0,1-1.37-2.38c-2.94-5.85-9.15-58.24-9.86-64.34l-0.58-4.84c-2-17.21-3.86-33.41-4-43.15a33.13,33.13,0,0,1,.49-7.18l0.39-1.73,1.81-.33C91.94,140.07,126.64,133.67,141.75,135.29ZM128,234.34c1,0.56,26-10.14,26.21-13S124.43,218,124.43,218C122.65,218.18,127,233.77,128,234.34Zm-1.81-61.5c0.8,0.76,22-14.1,22-15.63s-26.37-3.58-26.37-3.58S125.35,172.08,126.14,172.83Z" transform="translate(-79.35 -102.56)"/><path class="cls-4" d="M190.3,158h0c-11.13,12.84-14.91,29.19-11.22,48.59l0.23,1.35-0.16.24,5.62,18.55L185,227c12.31,15.16,28.52,18.55,49.57,10.38,17.36-6.74,28.74-24.37,33.8-52.4s-20.46-44.87-27.57-47.84c-6.34-2.65-30.09-2.62-50.46,20.89m17.35,29.93a12.49,12.49,0,0,1-.94-10.76c3.5-9.78,9-21.11,20.88-22h0.17l0.18,0c0.16,0,4-1,7.09,3.29,3.71,5.11,5.11,19.57,3.05,24.13l-0.11.26c-2.39,5.28-6.81,15.14-17.77,13-5.77-1.13-10.23-3.92-12.56-7.86" transform="translate(-79.35 -102.56)"/><path class="cls-5" d="M190.3,158h0c-11.13,12.84-14.91,29.19-11.22,48.59l0.23,1.35-0.16.24,5.62,18.55,0.19,0.24c12.31,15.16,28.52,18.55,49.57,10.38,17.36-6.74,28.74-24.37,33.8-52.4s-20.46-44.87-27.57-47.84C234.42,134.44,210.67,134.47,190.3,158Zm17.35,29.93a12.49,12.49,0,0,1-.94-10.76c3.5-9.78,9-21.11,20.88-22h0.17l0.18,0c0.16,0,4-1,7.09,3.29,3.71,5.11,5.11,19.57,3.05,24.13l-0.11.26c-2.39,5.28-6.81,15.14-17.77,13C214.44,194.63,210,191.84,207.65,187.91Z" transform="translate(-79.35 -102.56)"/><path class="cls-4" d="M263.59,170.91h0c-5,16-1.73,32.48,9.61,48.91L274,221l-0.06.28,12.76,14.91,0.29,0.15c17.51,9.26,33.81,6.22,49.79-9.29,13.19-12.78,16.42-33.3,9.6-61s-37.19-33.47-44.95-33.5c-6.92,0-28.73,9-37.81,38.36m28.21,20.92a12.82,12.82,0,0,1-5.27-9.53c-0.79-10.31-.36-22.83,10.18-28.13l0.15-.07L297,154c0.12-.1,3.23-2.44,7.87.34,5.49,3.28,12.71,16,12.69,21v0.28c0,5.76,0,16.5-11,18.68-5.77,1.14-11,.27-14.76-2.45" transform="translate(-79.35 -102.56)"/><path class="cls-5" d="M263.59,170.9h0c-5,16-1.73,32.48,9.61,48.91L274,221l-0.06.28,12.76,14.91,0.29,0.15c17.51,9.26,33.81,6.22,49.79-9.29,13.19-12.78,16.42-33.3,9.6-61s-37.19-33.47-44.95-33.5C294.48,132.53,272.67,141.57,263.59,170.9Zm28.21,20.92a12.82,12.82,0,0,1-5.27-9.53c-0.79-10.31-.36-22.83,10.18-28.13l0.15-.07L297,154c0.12-.1,3.23-2.44,7.87.34,5.49,3.28,12.71,16,12.69,21v0.28c0,5.76,0,16.5-11,18.68C300.79,195.42,295.55,194.55,291.8,191.82Z" transform="translate(-79.35 -102.56)"/><path class="cls-4" d="M412.18,117.38L408,118.74c-18.81,6.2-36.57,12-46.46,21.17l-5.23,4.6c-6.47,5.52-12.65,10.82-12.57,17.72a14.24,14.24,0,0,0,2,6.91c5.47,9.83,20.22,14.4,32.08,18.07l21,6.74c4.69,1.44,10.31,3.18,12.48,4.18-1.46,1.94-5.69,5.95-14.24,8.26-10.73,2.89-35.22,2.79-39.89,1l-2.15-.86c-2.85-1.17-4.57-1.87-6.24,1.42-0.43.87-4.25,6.41-7.92,11.77-11.68,17-12.16,17.95-12.15,18.86,0,1.44,1.42,6.18,4.42,6.16,1.94,0,34.64-5.25,46.68-8.47,11.56-3.1,54.6-21.39,57.65-25.06,0.13-.16,10.14-12.63,10.05-21.37a7.45,7.45,0,0,0-2.07-5.42c-6.49-6.46-12.61-10.38-18.69-12l-10.21-2.14c-11.28-2.25-37.65-7.52-39.93-10.27l-0.37-.85a16.85,16.85,0,0,1-.64-1.61,25.32,25.32,0,0,1,2.61-.4c5.31-.61,26.69,3.32,30.1,5.54l0.11,0.08,0.14,0.06c1.15,0.49,3.63.54,5.65-2.42l3-4c19.49-25.14,26.76-36.39,25.9-40.13l-1.54-1.73c-1.34-.72-9-4-29.44,2.8" transform="translate(-79.35 -102.56)"/><path class="cls-5" d="M412.18,117.38L408,118.74c-18.81,6.2-36.57,12-46.46,21.17l-5.23,4.6c-6.47,5.52-12.65,10.82-12.57,17.72a14.24,14.24,0,0,0,2,6.91c5.47,9.83,20.22,14.4,32.08,18.07l21,6.74c4.69,1.44,10.31,3.18,12.48,4.18-1.46,1.94-5.69,5.95-14.24,8.26-10.73,2.89-35.22,2.79-39.89,1l-2.15-.86c-2.85-1.17-4.57-1.87-6.24,1.42-0.43.87-4.25,6.41-7.92,11.77-11.68,17-12.16,17.95-12.15,18.86,0,1.44,1.42,6.18,4.42,6.16,1.94,0,34.64-5.25,46.68-8.47,11.56-3.1,54.6-21.39,57.65-25.06,0.13-.16,10.14-12.63,10.06-21.37a7.45,7.45,0,0,0-2.07-5.42c-6.49-6.46-12.61-10.38-18.69-12l-10.21-2.14c-11.28-2.26-37.65-7.52-39.93-10.27l-0.37-.85a16.91,16.91,0,0,1-.64-1.61,25.32,25.32,0,0,1,2.61-.4c5.31-.61,26.69,3.32,30.1,5.54l0.11,0.08,0.14,0.06c1.15,0.49,3.63.54,5.65-2.42l3-4c19.49-25.14,26.76-36.39,25.9-40.13l-1.54-1.73C440.28,113.86,432.62,110.62,412.18,117.38Z" transform="translate(-79.35 -102.56)"/><path class="cls-4" d="M440.51,120.5c-3.13.35-7.9,16-9.47,21.15-2.3,7.57-3,11.1-2.95,12.86a2,2,0,0,0,.8,2c1.06,0.82,3.48,1.16,10.14,1.93,3.74,0.43,9.77,1.13,11.51,1.87-0.76,6-17.64,79.37-20.08,83.51l-0.37.63,0.17,0.79c2.48,7.06,4.7,6.61,5.42,6.47,14.8-3,39.93-8.49,43-12.07a10.49,10.49,0,0,0,2.37-7.42c0-.67,0-1.32-0.07-2l0-3.45c0.17-1.11.56-6.45,1.12-13.83,1-13.45,3-40.41,4.24-46.11,2.71,0.52,9.83,2.13,15.8,3.47,18.75,4.25,18.91,4.19,19.68,3.94a1,1,0,0,0,.46.06c1.31,0.09,3.28.2,4.48-1.17a3.61,3.61,0,0,0,.57-3.42c-0.93-3.75-7.12-20.54-7.38-21.25l-0.28-.75-0.78-.25c-28.11-9-73.82-24-76.77-26.3l0.23,0.28a1.92,1.92,0,0,0-1.88-.94" transform="translate(-79.35 -102.56)"/><path class="cls-5" d="M440.51,120.5c-3.13.35-7.9,16-9.47,21.15-2.3,7.57-3,11.1-2.95,12.86a2,2,0,0,0,.8,2c1.06,0.82,3.48,1.16,10.14,1.93,3.74,0.43,9.77,1.13,11.51,1.87-0.76,6-17.64,79.37-20.08,83.51l-0.37.63,0.17,0.79c2.48,7.06,4.7,6.61,5.42,6.47,14.8-3,39.93-8.5,43-12.07a10.49,10.49,0,0,0,2.37-7.42c0-.67,0-1.32-0.07-2l0-3.45c0.17-1.11.56-6.45,1.12-13.83,1-13.45,3-40.41,4.24-46.11,2.71,0.52,9.83,2.13,15.8,3.47,18.75,4.25,18.91,4.19,19.68,3.94a1,1,0,0,0,.46.06c1.31,0.09,3.28.2,4.48-1.17a3.61,3.61,0,0,0,.57-3.42c-0.93-3.75-7.12-20.54-7.38-21.25l-0.28-.75-0.78-.25c-28.11-9-73.82-24-76.77-26.3l0.23,0.28A1.92,1.92,0,0,0,440.51,120.5Z" transform="translate(-79.35 -102.56)"/><path class="cls-4" d="M141.75,135.29c26.17,2.79,40,12.94,40.19,29.39,0,0.35,0,.69,0,1-0.36,14.39-12.47,22.52-18.45,25.67a92.08,92.08,0,0,0,10.75,8.55c8.41,6,11.46,13.52,11.52,20.34a24.06,24.06,0,0,1-2.2,10.23c-3.18,6.84-13,16.62-41.43,24.4L116,262.21c-10.7,3-10.89,3.1-12.45,2.08a3.06,3.06,0,0,1-1.37-2.38c-2.94-5.85-9.15-58.24-9.86-64.34l-0.58-4.84c-2-17.21-3.86-33.41-4-43.15a33.15,33.15,0,0,1,.49-7.18l0.39-1.73,1.81-.33c1.47-.27,36.16-6.67,51.28-5.05M128,234.34c1,0.56,26-10.14,26.21-13S124.43,218,124.43,218c-1.78.21,2.53,15.8,3.52,16.36m-1.81-61.5c0.8,0.76,22-14.1,22-15.63s-26.37-3.58-26.37-3.58,3.54,18.46,4.34,19.21" transform="translate(-79.35 -102.56)"/><path class="cls-5" d="M141.75,135.29c26.17,2.79,40,12.94,40.19,29.39,0,0.35,0,.69,0,1-0.36,14.39-12.47,22.52-18.45,25.67a92.11,92.11,0,0,0,10.75,8.55c8.41,6,11.46,13.52,11.52,20.34a24.07,24.07,0,0,1-2.2,10.23c-3.18,6.84-13,16.62-41.43,24.4L116,262.21c-10.7,3-10.89,3.1-12.45,2.08a3.06,3.06,0,0,1-1.37-2.38c-2.94-5.85-9.15-58.24-9.86-64.34l-0.58-4.84c-2-17.21-3.86-33.41-4-43.15a33.13,33.13,0,0,1,.49-7.18l0.39-1.73,1.81-.33C91.94,140.07,126.64,133.67,141.75,135.29ZM128,234.34c1,0.56,26-10.14,26.21-13S124.43,218,124.43,218C122.65,218.18,127,233.77,128,234.34Zm-1.81-61.5c0.8,0.76,22-14.1,22-15.63s-26.37-3.58-26.37-3.58S125.35,172.08,126.14,172.83Z" transform="translate(-79.35 -102.56)"/><path class="cls-6" d="M190.3,158h0c-11.13,12.84-14.91,29.19-11.22,48.59l0.23,1.35-0.16.24,5.62,18.55L185,227c12.31,15.16,28.52,18.55,49.57,10.38,17.36-6.74,28.74-24.37,33.8-52.4s-20.46-44.87-27.57-47.84c-6.34-2.65-30.09-2.62-50.46,20.89m17.35,29.93a12.49,12.49,0,0,1-.94-10.76c3.5-9.78,9-21.11,20.88-22h0.17l0.18,0c0.16,0,4-1,7.09,3.29,3.71,5.11,5.11,19.57,3.05,24.13l-0.11.26c-2.39,5.28-6.81,15.14-17.77,13-5.77-1.13-10.23-3.92-12.56-7.86" transform="translate(-79.35 -102.56)"/><path class="cls-7" d="M190.3,158h0c-11.13,12.84-14.91,29.19-11.22,48.59l0.23,1.35-0.16.24,5.62,18.55,0.19,0.24c12.31,15.16,28.52,18.55,49.57,10.38,17.36-6.74,28.74-24.37,33.8-52.4s-20.46-44.87-27.57-47.84C234.42,134.44,210.67,134.47,190.3,158Zm17.35,29.93a12.49,12.49,0,0,1-.94-10.76c3.5-9.78,9-21.11,20.88-22h0.17l0.18,0c0.16,0,4-1,7.09,3.29,3.71,5.11,5.11,19.57,3.05,24.13l-0.11.26c-2.39,5.28-6.81,15.14-17.77,13C214.44,194.63,210,191.84,207.65,187.91Z" transform="translate(-79.35 -102.56)"/><path class="cls-6" d="M263.59,170.91h0c-5,16-1.73,32.48,9.61,48.91L274,221l-0.06.28,12.76,14.91,0.29,0.15c17.51,9.26,33.81,6.22,49.79-9.29,13.19-12.78,16.42-33.3,9.6-61s-37.19-33.47-44.95-33.5c-6.92,0-28.73,9-37.81,38.36m28.21,20.92a12.82,12.82,0,0,1-5.27-9.53c-0.79-10.31-.36-22.83,10.18-28.13l0.15-.07L297,154c0.12-.1,3.23-2.44,7.87.34,5.49,3.28,12.71,16,12.69,21v0.28c0,5.76,0,16.5-11,18.68-5.77,1.14-11,.27-14.76-2.45" transform="translate(-79.35 -102.56)"/><path class="cls-7" d="M263.59,170.9h0c-5,16-1.73,32.48,9.61,48.91L274,221l-0.06.28,12.76,14.91,0.29,0.15c17.51,9.26,33.81,6.22,49.79-9.29,13.19-12.78,16.42-33.3,9.6-61s-37.19-33.47-44.95-33.5C294.48,132.53,272.67,141.57,263.59,170.9Zm28.21,20.92a12.82,12.82,0,0,1-5.27-9.53c-0.79-10.31-.36-22.83,10.18-28.13l0.15-.07L297,154c0.12-.1,3.23-2.44,7.87.34,5.49,3.28,12.71,16,12.69,21v0.28c0,5.76,0,16.5-11,18.68C300.79,195.42,295.55,194.55,291.8,191.82Z" transform="translate(-79.35 -102.56)"/><path class="cls-6" d="M412.18,117.38L408,118.74c-18.81,6.2-36.57,12-46.46,21.17l-5.23,4.6c-6.47,5.52-12.65,10.82-12.57,17.72a14.24,14.24,0,0,0,2,6.91c5.47,9.83,20.22,14.4,32.08,18.07l21,6.74c4.69,1.44,10.31,3.18,12.48,4.18-1.46,1.94-5.69,5.95-14.24,8.26-10.73,2.89-35.22,2.79-39.89,1l-2.15-.86c-2.85-1.17-4.57-1.87-6.24,1.42-0.43.87-4.25,6.41-7.92,11.77-11.68,17-12.16,17.95-12.15,18.86,0,1.44,1.42,6.18,4.42,6.16,1.94,0,34.64-5.25,46.68-8.47,11.56-3.1,54.6-21.39,57.65-25.06,0.13-.16,10.14-12.63,10.05-21.37a7.45,7.45,0,0,0-2.07-5.42c-6.49-6.46-12.61-10.38-18.69-12l-10.21-2.14c-11.28-2.25-37.65-7.52-39.93-10.27l-0.37-.85a16.85,16.85,0,0,1-.64-1.61,25.32,25.32,0,0,1,2.61-.4c5.31-.61,26.69,3.32,30.1,5.54l0.11,0.08,0.14,0.06c1.15,0.49,3.63.54,5.65-2.42l3-4c19.49-25.14,26.76-36.39,25.9-40.13l-1.54-1.73c-1.34-.72-9-4-29.44,2.8" transform="translate(-79.35 -102.56)"/><path class="cls-7" d="M412.18,117.38L408,118.74c-18.81,6.2-36.57,12-46.46,21.17l-5.23,4.6c-6.47,5.52-12.65,10.82-12.57,17.72a14.24,14.24,0,0,0,2,6.91c5.47,9.83,20.22,14.4,32.08,18.07l21,6.74c4.69,1.44,10.31,3.18,12.48,4.18-1.46,1.94-5.69,5.95-14.24,8.26-10.73,2.89-35.22,2.79-39.89,1l-2.15-.86c-2.85-1.17-4.57-1.87-6.24,1.42-0.43.87-4.25,6.41-7.92,11.77-11.68,17-12.16,17.95-12.15,18.86,0,1.44,1.42,6.18,4.42,6.16,1.94,0,34.64-5.25,46.68-8.47,11.56-3.1,54.6-21.39,57.65-25.06,0.13-.16,10.14-12.63,10.06-21.37a7.45,7.45,0,0,0-2.07-5.42c-6.49-6.46-12.61-10.38-18.69-12l-10.21-2.14c-11.28-2.26-37.65-7.52-39.93-10.27l-0.37-.85a16.91,16.91,0,0,1-.64-1.61,25.32,25.32,0,0,1,2.61-.4c5.31-.61,26.69,3.32,30.1,5.54l0.11,0.08,0.14,0.06c1.15,0.49,3.63.54,5.65-2.42l3-4c19.49-25.14,26.76-36.39,25.9-40.13l-1.54-1.73C440.28,113.86,432.62,110.62,412.18,117.38Z" transform="translate(-79.35 -102.56)"/><path class="cls-6" d="M440.51,120.5c-3.13.35-7.9,16-9.47,21.15-2.3,7.57-3,11.1-2.95,12.86a2,2,0,0,0,.8,2c1.06,0.82,3.48,1.16,10.14,1.93,3.74,0.43,9.77,1.13,11.51,1.87-0.76,6-17.64,79.37-20.08,83.51l-0.37.63,0.17,0.79c2.48,7.06,4.7,6.61,5.42,6.47,14.8-3,39.93-8.49,43-12.07a10.49,10.49,0,0,0,2.37-7.42c0-.67,0-1.32-0.07-2l0-3.45c0.17-1.11.56-6.45,1.12-13.83,1-13.45,3-40.41,4.24-46.11,2.71,0.52,9.83,2.13,15.8,3.47,18.75,4.25,18.91,4.19,19.68,3.94a1,1,0,0,0,.46.06c1.31,0.09,3.28.2,4.48-1.17a3.61,3.61,0,0,0,.57-3.42c-0.93-3.75-7.12-20.54-7.38-21.25l-0.28-.75-0.78-.25c-28.11-9-73.82-24-76.77-26.3l0.23,0.28a1.92,1.92,0,0,0-1.88-.94" transform="translate(-79.35 -102.56)"/><path class="cls-7" d="M440.51,120.5c-3.13.35-7.9,16-9.47,21.15-2.3,7.57-3,11.1-2.95,12.86a2,2,0,0,0,.8,2c1.06,0.82,3.48,1.16,10.14,1.93,3.74,0.43,9.77,1.13,11.51,1.87-0.76,6-17.64,79.37-20.08,83.51l-0.37.63,0.17,0.79c2.48,7.06,4.7,6.61,5.42,6.47,14.8-3,39.93-8.5,43-12.07a10.49,10.49,0,0,0,2.37-7.42c0-.67,0-1.32-0.07-2l0-3.45c0.17-1.11.56-6.45,1.12-13.83,1-13.45,3-40.41,4.24-46.11,2.71,0.52,9.83,2.13,15.8,3.47,18.75,4.25,18.91,4.19,19.68,3.94a1,1,0,0,0,.46.06c1.31,0.09,3.28.2,4.48-1.17a3.61,3.61,0,0,0,.57-3.42c-0.93-3.75-7.12-20.54-7.38-21.25l-0.28-.75-0.78-.25c-28.11-9-73.82-24-76.77-26.3l0.23,0.28A1.92,1.92,0,0,0,440.51,120.5Z" transform="translate(-79.35 -102.56)"/><path class="cls-6" d="M141.75,135.29c26.17,2.79,40,12.94,40.19,29.39,0,0.35,0,.69,0,1-0.36,14.39-12.47,22.52-18.45,25.67a92.08,92.08,0,0,0,10.75,8.55c8.41,6,11.46,13.52,11.52,20.34a24.06,24.06,0,0,1-2.2,10.23c-3.18,6.84-13,16.62-41.43,24.4L116,262.21c-10.7,3-10.89,3.1-12.45,2.08a3.06,3.06,0,0,1-1.37-2.38c-2.94-5.85-9.15-58.24-9.86-64.34l-0.58-4.84c-2-17.21-3.86-33.41-4-43.15a33.15,33.15,0,0,1,.49-7.18l0.39-1.73,1.81-.33c1.47-.27,36.16-6.67,51.28-5.05M128,234.34c1,0.56,26-10.14,26.21-13S124.43,218,124.43,218c-1.78.21,2.53,15.8,3.52,16.36m-1.81-61.5c0.8,0.76,22-14.1,22-15.63s-26.37-3.58-26.37-3.58,3.54,18.46,4.34,19.21" transform="translate(-79.35 -102.56)"/><path class="cls-7" d="M141.75,135.29c26.17,2.79,40,12.94,40.19,29.39,0,0.35,0,.69,0,1-0.36,14.39-12.47,22.52-18.45,25.67a92.11,92.11,0,0,0,10.75,8.55c8.41,6,11.46,13.52,11.52,20.34a24.07,24.07,0,0,1-2.2,10.23c-3.18,6.84-13,16.62-41.43,24.4L116,262.21c-10.7,3-10.89,3.1-12.45,2.08a3.06,3.06,0,0,1-1.37-2.38c-2.94-5.85-9.15-58.24-9.86-64.34l-0.58-4.84c-2-17.21-3.86-33.41-4-43.15a33.13,33.13,0,0,1,.49-7.18l0.39-1.73,1.81-.33C91.94,140.07,126.64,133.67,141.75,135.29ZM128,234.34c1,0.56,26-10.14,26.21-13S124.43,218,124.43,218C122.65,218.18,127,233.77,128,234.34Zm-1.81-61.5c0.8,0.76,22-14.1,22-15.63s-26.37-3.58-26.37-3.58S125.35,172.08,126.14,172.83Z" transform="translate(-79.35 -102.56)"/><path class="cls-8" d="M190.3,158h0c-11.13,12.84-14.91,29.19-11.22,48.59l0.23,1.35-0.16.24,5.62,18.55L185,227c12.31,15.16,28.52,18.55,49.57,10.38,17.36-6.74,28.74-24.37,33.8-52.4s-20.46-44.87-27.57-47.84c-6.34-2.65-30.09-2.62-50.46,20.89m17.35,29.93a12.49,12.49,0,0,1-.94-10.76c3.5-9.78,9-21.11,20.88-22h0.17l0.18,0c0.16,0,4-1,7.09,3.29,3.71,5.11,5.11,19.57,3.05,24.13l-0.11.26c-2.39,5.28-6.81,15.14-17.77,13-5.77-1.13-10.23-3.92-12.56-7.86" transform="translate(-79.35 -102.56)"/><path class="cls-9" d="M190.3,158h0c-11.13,12.84-14.91,29.19-11.22,48.59l0.23,1.35-0.16.24,5.62,18.55,0.19,0.24c12.31,15.16,28.52,18.55,49.57,10.38,17.36-6.74,28.74-24.37,33.8-52.4s-20.46-44.87-27.57-47.84C234.42,134.44,210.67,134.47,190.3,158Zm17.35,29.93a12.49,12.49,0,0,1-.94-10.76c3.5-9.78,9-21.11,20.88-22h0.17l0.18,0c0.16,0,4-1,7.09,3.29,3.71,5.11,5.11,19.57,3.05,24.13l-0.11.26c-2.39,5.28-6.81,15.14-17.77,13C214.44,194.63,210,191.84,207.65,187.91Z" transform="translate(-79.35 -102.56)"/><path class="cls-8" d="M263.59,170.91h0c-5,16-1.73,32.48,9.61,48.91L274,221l-0.06.28,12.76,14.91,0.29,0.15c17.51,9.26,33.81,6.22,49.79-9.29,13.19-12.78,16.42-33.3,9.6-61s-37.19-33.47-44.95-33.5c-6.92,0-28.73,9-37.81,38.36m28.21,20.92a12.82,12.82,0,0,1-5.27-9.53c-0.79-10.31-.36-22.83,10.18-28.13l0.15-.07L297,154c0.12-.1,3.23-2.44,7.87.34,5.49,3.28,12.71,16,12.69,21v0.28c0,5.76,0,16.5-11,18.68-5.77,1.14-11,.27-14.76-2.45" transform="translate(-79.35 -102.56)"/><path class="cls-9" d="M263.59,170.9h0c-5,16-1.73,32.48,9.61,48.91L274,221l-0.06.28,12.76,14.91,0.29,0.15c17.51,9.26,33.81,6.22,49.79-9.29,13.19-12.78,16.42-33.3,9.6-61s-37.19-33.47-44.95-33.5C294.48,132.53,272.67,141.57,263.59,170.9Zm28.21,20.92a12.82,12.82,0,0,1-5.27-9.53c-0.79-10.31-.36-22.83,10.18-28.13l0.15-.07L297,154c0.12-.1,3.23-2.44,7.87.34,5.49,3.28,12.71,16,12.69,21v0.28c0,5.76,0,16.5-11,18.68C300.79,195.42,295.55,194.55,291.8,191.82Z" transform="translate(-79.35 -102.56)"/><path class="cls-8" d="M412.18,117.38L408,118.74c-18.81,6.2-36.57,12-46.46,21.17l-5.23,4.6c-6.47,5.52-12.65,10.82-12.57,17.72a14.24,14.24,0,0,0,2,6.91c5.47,9.83,20.22,14.4,32.08,18.07l21,6.74c4.69,1.44,10.31,3.18,12.48,4.18-1.46,1.94-5.69,5.95-14.24,8.26-10.73,2.89-35.22,2.79-39.89,1l-2.15-.86c-2.85-1.17-4.57-1.87-6.24,1.42-0.43.87-4.25,6.41-7.92,11.77-11.68,17-12.16,17.95-12.15,18.86,0,1.44,1.42,6.18,4.42,6.16,1.94,0,34.64-5.25,46.68-8.47,11.56-3.1,54.6-21.39,57.65-25.06,0.13-.16,10.14-12.63,10.05-21.37a7.45,7.45,0,0,0-2.07-5.42c-6.49-6.46-12.61-10.38-18.69-12l-10.21-2.14c-11.28-2.25-37.65-7.52-39.93-10.27l-0.37-.85a16.85,16.85,0,0,1-.64-1.61,25.32,25.32,0,0,1,2.61-.4c5.31-.61,26.69,3.32,30.1,5.54l0.11,0.08,0.14,0.06c1.15,0.49,3.63.54,5.65-2.42l3-4c19.49-25.14,26.76-36.39,25.9-40.13l-1.54-1.73c-1.34-.72-9-4-29.44,2.8" transform="translate(-79.35 -102.56)"/><path class="cls-9" d="M412.18,117.38L408,118.74c-18.81,6.2-36.57,12-46.46,21.17l-5.23,4.6c-6.47,5.52-12.65,10.82-12.57,17.72a14.24,14.24,0,0,0,2,6.91c5.47,9.83,20.22,14.4,32.08,18.07l21,6.74c4.69,1.44,10.31,3.18,12.48,4.18-1.46,1.94-5.69,5.95-14.24,8.26-10.73,2.89-35.22,2.79-39.89,1l-2.15-.86c-2.85-1.17-4.57-1.87-6.24,1.42-0.43.87-4.25,6.41-7.92,11.77-11.68,17-12.16,17.95-12.15,18.86,0,1.44,1.42,6.18,4.42,6.16,1.94,0,34.64-5.25,46.68-8.47,11.56-3.1,54.6-21.39,57.65-25.06,0.13-.16,10.14-12.63,10.06-21.37a7.45,7.45,0,0,0-2.07-5.42c-6.49-6.46-12.61-10.38-18.69-12l-10.21-2.14c-11.28-2.26-37.65-7.52-39.93-10.27l-0.37-.85a16.91,16.91,0,0,1-.64-1.61,25.32,25.32,0,0,1,2.61-.4c5.31-.61,26.69,3.32,30.1,5.54l0.11,0.08,0.14,0.06c1.15,0.49,3.63.54,5.65-2.42l3-4c19.49-25.14,26.76-36.39,25.9-40.13l-1.54-1.73C440.28,113.86,432.62,110.62,412.18,117.38Z" transform="translate(-79.35 -102.56)"/><path class="cls-8" d="M440.51,120.5c-3.13.35-7.9,16-9.47,21.15-2.3,7.57-3,11.1-2.95,12.86a2,2,0,0,0,.8,2c1.06,0.82,3.48,1.16,10.14,1.93,3.74,0.43,9.77,1.13,11.51,1.87-0.76,6-17.64,79.37-20.08,83.51l-0.37.63,0.17,0.79c2.48,7.06,4.7,6.61,5.42,6.47,14.8-3,39.93-8.49,43-12.07a10.49,10.49,0,0,0,2.37-7.42c0-.67,0-1.32-0.07-2l0-3.45c0.17-1.11.56-6.45,1.12-13.83,1-13.45,3-40.41,4.24-46.11,2.71,0.52,9.83,2.13,15.8,3.47,18.75,4.25,18.91,4.19,19.68,3.94a1,1,0,0,0,.46.06c1.31,0.09,3.28.2,4.48-1.17a3.61,3.61,0,0,0,.57-3.42c-0.93-3.75-7.12-20.54-7.38-21.25l-0.28-.75-0.78-.25c-28.11-9-73.82-24-76.77-26.3l0.23,0.28a1.92,1.92,0,0,0-1.88-.94" transform="translate(-79.35 -102.56)"/><path class="cls-9" d="M440.51,120.5c-3.13.35-7.9,16-9.47,21.15-2.3,7.57-3,11.1-2.95,12.86a2,2,0,0,0,.8,2c1.06,0.82,3.48,1.16,10.14,1.93,3.74,0.43,9.77,1.13,11.51,1.87-0.76,6-17.64,79.37-20.08,83.51l-0.37.63,0.17,0.79c2.48,7.06,4.7,6.61,5.42,6.47,14.8-3,39.93-8.5,43-12.07a10.49,10.49,0,0,0,2.37-7.42c0-.67,0-1.32-0.07-2l0-3.45c0.17-1.11.56-6.45,1.12-13.83,1-13.45,3-40.41,4.24-46.11,2.71,0.52,9.83,2.13,15.8,3.47,18.75,4.25,18.91,4.19,19.68,3.94a1,1,0,0,0,.46.06c1.31,0.09,3.28.2,4.48-1.17a3.61,3.61,0,0,0,.57-3.42c-0.93-3.75-7.12-20.54-7.38-21.25l-0.28-.75-0.78-.25c-28.11-9-73.82-24-76.77-26.3l0.23,0.28A1.92,1.92,0,0,0,440.51,120.5Z" transform="translate(-79.35 -102.56)"/><path class="cls-8" d="M141.75,135.29c26.17,2.79,40,12.94,40.19,29.39,0,0.35,0,.69,0,1-0.36,14.39-12.47,22.52-18.45,25.67a92.08,92.08,0,0,0,10.75,8.55c8.41,6,11.46,13.52,11.52,20.34a24.06,24.06,0,0,1-2.2,10.23c-3.18,6.84-13,16.62-41.43,24.4L116,262.21c-10.7,3-10.89,3.1-12.45,2.08a3.06,3.06,0,0,1-1.37-2.38c-2.94-5.85-9.15-58.24-9.86-64.34l-0.58-4.84c-2-17.21-3.86-33.41-4-43.15a33.15,33.15,0,0,1,.49-7.18l0.39-1.73,1.81-.33c1.47-.27,36.16-6.67,51.28-5.05M128,234.34c1,0.56,26-10.14,26.21-13S124.43,218,124.43,218c-1.78.21,2.53,15.8,3.52,16.36m-1.81-61.5c0.8,0.76,22-14.1,22-15.63s-26.37-3.58-26.37-3.58,3.54,18.46,4.34,19.21" transform="translate(-79.35 -102.56)"/><path class="cls-9" d="M141.75,135.29c26.17,2.79,40,12.94,40.19,29.39,0,0.35,0,.69,0,1-0.36,14.39-12.47,22.52-18.45,25.67a92.11,92.11,0,0,0,10.75,8.55c8.41,6,11.46,13.52,11.52,20.34a24.07,24.07,0,0,1-2.2,10.23c-3.18,6.84-13,16.62-41.43,24.4L116,262.21c-10.7,3-10.89,3.1-12.45,2.08a3.06,3.06,0,0,1-1.37-2.38c-2.94-5.85-9.15-58.24-9.86-64.34l-0.58-4.84c-2-17.21-3.86-33.41-4-43.15a33.13,33.13,0,0,1,.49-7.18l0.39-1.73,1.81-.33C91.94,140.07,126.64,133.67,141.75,135.29ZM128,234.34c1,0.56,26-10.14,26.21-13S124.43,218,124.43,218C122.65,218.18,127,233.77,128,234.34Zm-1.81-61.5c0.8,0.76,22-14.1,22-15.63s-26.37-3.58-26.37-3.58S125.35,172.08,126.14,172.83Z" transform="translate(-79.35 -102.56)"/><path class="cls-10" d="M190.3,158h0c-11.13,12.84-14.91,29.19-11.22,48.59l0.23,1.35-0.16.24,5.62,18.55L185,227c12.31,15.16,28.52,18.55,49.57,10.38,17.36-6.74,28.74-24.37,33.8-52.4s-20.46-44.87-27.57-47.84c-6.34-2.65-30.09-2.62-50.46,20.89m17.35,29.93a12.49,12.49,0,0,1-.94-10.76c3.5-9.78,9-21.11,20.88-22h0.17l0.18,0c0.16,0,4-1,7.09,3.29,3.71,5.11,5.11,19.57,3.05,24.13l-0.11.26c-2.39,5.28-6.81,15.14-17.77,13-5.77-1.13-10.23-3.92-12.56-7.86" transform="translate(-79.35 -102.56)"/><path class="cls-11" d="M190.3,158h0c-11.13,12.84-14.91,29.19-11.22,48.59l0.23,1.35-0.16.24,5.62,18.55,0.19,0.24c12.31,15.16,28.52,18.55,49.57,10.38,17.36-6.74,28.74-24.37,33.8-52.4s-20.46-44.87-27.57-47.84C234.42,134.44,210.67,134.47,190.3,158Zm17.35,29.93a12.49,12.49,0,0,1-.94-10.76c3.5-9.78,9-21.11,20.88-22h0.17l0.18,0c0.16,0,4-1,7.09,3.29,3.71,5.11,5.11,19.57,3.05,24.13l-0.11.26c-2.39,5.28-6.81,15.14-17.77,13C214.44,194.63,210,191.84,207.65,187.91Z" transform="translate(-79.35 -102.56)"/><path class="cls-10" d="M263.59,170.91h0c-5,16-1.73,32.48,9.61,48.91L274,221l-0.06.28,12.76,14.91,0.29,0.15c17.51,9.26,33.81,6.22,49.79-9.29,13.19-12.78,16.42-33.3,9.6-61s-37.19-33.47-44.95-33.5c-6.92,0-28.73,9-37.81,38.36m28.21,20.92a12.82,12.82,0,0,1-5.27-9.53c-0.79-10.31-.36-22.83,10.18-28.13l0.15-.07L297,154c0.12-.1,3.23-2.44,7.87.34,5.49,3.28,12.71,16,12.69,21v0.28c0,5.76,0,16.5-11,18.68-5.77,1.14-11,.27-14.76-2.45" transform="translate(-79.35 -102.56)"/><path class="cls-11" d="M263.59,170.9h0c-5,16-1.73,32.48,9.61,48.91L274,221l-0.06.28,12.76,14.91,0.29,0.15c17.51,9.26,33.81,6.22,49.79-9.29,13.19-12.78,16.42-33.3,9.6-61s-37.19-33.47-44.95-33.5C294.48,132.53,272.67,141.57,263.59,170.9Zm28.21,20.92a12.82,12.82,0,0,1-5.27-9.53c-0.79-10.31-.36-22.83,10.18-28.13l0.15-.07L297,154c0.12-.1,3.23-2.44,7.87.34,5.49,3.28,12.71,16,12.69,21v0.28c0,5.76,0,16.5-11,18.68C300.79,195.42,295.55,194.55,291.8,191.82Z" transform="translate(-79.35 -102.56)"/><path class="cls-10" d="M412.18,117.38L408,118.74c-18.81,6.2-36.57,12-46.46,21.17l-5.23,4.6c-6.47,5.52-12.65,10.82-12.57,17.72a14.24,14.24,0,0,0,2,6.91c5.47,9.83,20.22,14.4,32.08,18.07l21,6.74c4.69,1.44,10.31,3.18,12.48,4.18-1.46,1.94-5.69,5.95-14.24,8.26-10.73,2.89-35.22,2.79-39.89,1l-2.15-.86c-2.85-1.17-4.57-1.87-6.24,1.42-0.43.87-4.25,6.41-7.92,11.77-11.68,17-12.16,17.95-12.15,18.86,0,1.44,1.42,6.18,4.42,6.16,1.94,0,34.64-5.25,46.68-8.47,11.56-3.1,54.6-21.39,57.65-25.06,0.13-.16,10.14-12.63,10.05-21.37a7.45,7.45,0,0,0-2.07-5.42c-6.49-6.46-12.61-10.38-18.69-12l-10.21-2.14c-11.28-2.25-37.65-7.52-39.93-10.27l-0.37-.85a16.85,16.85,0,0,1-.64-1.61,25.32,25.32,0,0,1,2.61-.4c5.31-.61,26.69,3.32,30.1,5.54l0.11,0.08,0.14,0.06c1.15,0.49,3.63.54,5.65-2.42l3-4c19.49-25.14,26.76-36.39,25.9-40.13l-1.54-1.73c-1.34-.72-9-4-29.44,2.8" transform="translate(-79.35 -102.56)"/><path class="cls-11" d="M412.18,117.38L408,118.74c-18.81,6.2-36.57,12-46.46,21.17l-5.23,4.6c-6.47,5.52-12.65,10.82-12.57,17.72a14.24,14.24,0,0,0,2,6.91c5.47,9.83,20.22,14.4,32.08,18.07l21,6.74c4.69,1.44,10.31,3.18,12.48,4.18-1.46,1.94-5.69,5.95-14.24,8.26-10.73,2.89-35.22,2.79-39.89,1l-2.15-.86c-2.85-1.17-4.57-1.87-6.24,1.42-0.43.87-4.25,6.41-7.92,11.77-11.68,17-12.16,17.95-12.15,18.86,0,1.44,1.42,6.18,4.42,6.16,1.94,0,34.64-5.25,46.68-8.47,11.56-3.1,54.6-21.39,57.65-25.06,0.13-.16,10.14-12.63,10.06-21.37a7.45,7.45,0,0,0-2.07-5.42c-6.49-6.46-12.61-10.38-18.69-12l-10.21-2.14c-11.28-2.26-37.65-7.52-39.93-10.27l-0.37-.85a16.91,16.91,0,0,1-.64-1.61,25.32,25.32,0,0,1,2.61-.4c5.31-.61,26.69,3.32,30.1,5.54l0.11,0.08,0.14,0.06c1.15,0.49,3.63.54,5.65-2.42l3-4c19.49-25.14,26.76-36.39,25.9-40.13l-1.54-1.73C440.28,113.86,432.62,110.62,412.18,117.38Z" transform="translate(-79.35 -102.56)"/><path class="cls-10" d="M440.51,120.5c-3.13.35-7.9,16-9.47,21.15-2.3,7.57-3,11.1-2.95,12.86a2,2,0,0,0,.8,2c1.06,0.82,3.48,1.16,10.14,1.93,3.74,0.43,9.77,1.13,11.51,1.87-0.76,6-17.64,79.37-20.08,83.51l-0.37.63,0.17,0.79c2.48,7.06,4.7,6.61,5.42,6.47,14.8-3,39.93-8.49,43-12.07a10.49,10.49,0,0,0,2.37-7.42c0-.67,0-1.32-0.07-2l0-3.45c0.17-1.11.56-6.45,1.12-13.83,1-13.45,3-40.41,4.24-46.11,2.71,0.52,9.83,2.13,15.8,3.47,18.75,4.25,18.91,4.19,19.68,3.94a1,1,0,0,0,.46.06c1.31,0.09,3.28.2,4.48-1.17a3.61,3.61,0,0,0,.57-3.42c-0.93-3.75-7.12-20.54-7.38-21.25l-0.28-.75-0.78-.25c-28.11-9-73.82-24-76.77-26.3l0.23,0.28a1.92,1.92,0,0,0-1.88-.94" transform="translate(-79.35 -102.56)"/><path class="cls-11" d="M440.51,120.5c-3.13.35-7.9,16-9.47,21.15-2.3,7.57-3,11.1-2.95,12.86a2,2,0,0,0,.8,2c1.06,0.82,3.48,1.16,10.14,1.93,3.74,0.43,9.77,1.13,11.51,1.87-0.76,6-17.64,79.37-20.08,83.51l-0.37.63,0.17,0.79c2.48,7.06,4.7,6.61,5.42,6.47,14.8-3,39.93-8.5,43-12.07a10.49,10.49,0,0,0,2.37-7.42c0-.67,0-1.32-0.07-2l0-3.45c0.17-1.11.56-6.45,1.12-13.83,1-13.45,3-40.41,4.24-46.11,2.71,0.52,9.83,2.13,15.8,3.47,18.75,4.25,18.91,4.19,19.68,3.94a1,1,0,0,0,.46.06c1.31,0.09,3.28.2,4.48-1.17a3.61,3.61,0,0,0,.57-3.42c-0.93-3.75-7.12-20.54-7.38-21.25l-0.28-.75-0.78-.25c-28.11-9-73.82-24-76.77-26.3l0.23,0.28A1.92,1.92,0,0,0,440.51,120.5Z" transform="translate(-79.35 -102.56)"/><path class="cls-10" d="M141.75,135.29c26.17,2.79,40,12.94,40.19,29.39,0,0.35,0,.69,0,1-0.36,14.39-12.47,22.52-18.45,25.67a92.08,92.08,0,0,0,10.75,8.55c8.41,6,11.46,13.52,11.52,20.34a24.06,24.06,0,0,1-2.2,10.23c-3.18,6.84-13,16.62-41.43,24.4L116,262.21c-10.7,3-10.89,3.1-12.45,2.08a3.06,3.06,0,0,1-1.37-2.38c-2.94-5.85-9.15-58.24-9.86-64.34l-0.58-4.84c-2-17.21-3.86-33.41-4-43.15a33.15,33.15,0,0,1,.49-7.18l0.39-1.73,1.81-.33c1.47-.27,36.16-6.67,51.28-5.05M128,234.34c1,0.56,26-10.14,26.21-13S124.43,218,124.43,218c-1.78.21,2.53,15.8,3.52,16.36m-1.81-61.5c0.8,0.76,22-14.1,22-15.63s-26.37-3.58-26.37-3.58,3.54,18.46,4.34,19.21" transform="translate(-79.35 -102.56)"/><path class="cls-11" d="M141.75,135.29c26.17,2.79,40,12.94,40.19,29.39,0,0.35,0,.69,0,1-0.36,14.39-12.47,22.52-18.45,25.67a92.11,92.11,0,0,0,10.75,8.55c8.41,6,11.46,13.52,11.52,20.34a24.07,24.07,0,0,1-2.2,10.23c-3.18,6.84-13,16.62-41.43,24.4L116,262.21c-10.7,3-10.89,3.1-12.45,2.08a3.06,3.06,0,0,1-1.37-2.38c-2.94-5.85-9.15-58.24-9.86-64.34l-0.58-4.84c-2-17.21-3.86-33.41-4-43.15a33.13,33.13,0,0,1,.49-7.18l0.39-1.73,1.81-.33C91.94,140.07,126.64,133.67,141.75,135.29ZM128,234.34c1,0.56,26-10.14,26.21-13S124.43,218,124.43,218C122.65,218.18,127,233.77,128,234.34Zm-1.81-61.5c0.8,0.76,22-14.1,22-15.63s-26.37-3.58-26.37-3.58S125.35,172.08,126.14,172.83Z" transform="translate(-79.35 -102.56)"/><path class="cls-12" d="M190.3,158h0c-11.13,12.84-14.91,29.19-11.22,48.59l0.23,1.35-0.16.24,5.62,18.55L185,227c12.31,15.16,28.52,18.55,49.57,10.38,17.36-6.74,28.74-24.37,33.8-52.4s-20.46-44.87-27.57-47.84c-6.34-2.65-30.09-2.62-50.46,20.89m17.35,29.93a12.49,12.49,0,0,1-.94-10.76c3.5-9.78,9-21.11,20.88-22h0.17l0.18,0c0.16,0,4-1,7.09,3.29,3.71,5.11,5.11,19.57,3.05,24.13l-0.11.26c-2.39,5.28-6.81,15.14-17.77,13-5.77-1.13-10.23-3.92-12.56-7.86" transform="translate(-79.35 -102.56)"/><path class="cls-13" d="M190.3,158h0c-11.13,12.84-14.91,29.19-11.22,48.59l0.23,1.35-0.16.24,5.62,18.55,0.19,0.24c12.31,15.16,28.52,18.55,49.57,10.38,17.36-6.74,28.74-24.37,33.8-52.4s-20.46-44.87-27.57-47.84C234.42,134.44,210.67,134.47,190.3,158Zm17.35,29.93a12.49,12.49,0,0,1-.94-10.76c3.5-9.78,9-21.11,20.88-22h0.17l0.18,0c0.16,0,4-1,7.09,3.29,3.71,5.11,5.11,19.57,3.05,24.13l-0.11.26c-2.39,5.28-6.81,15.14-17.77,13C214.44,194.63,210,191.84,207.65,187.91Z" transform="translate(-79.35 -102.56)"/><path class="cls-12" d="M263.59,170.91h0c-5,16-1.73,32.48,9.61,48.91L274,221l-0.06.28,12.76,14.91,0.29,0.15c17.51,9.26,33.81,6.22,49.79-9.29,13.19-12.78,16.42-33.3,9.6-61s-37.19-33.47-44.95-33.5c-6.92,0-28.73,9-37.81,38.36m28.21,20.92a12.82,12.82,0,0,1-5.27-9.53c-0.79-10.31-.36-22.83,10.18-28.13l0.15-.07L297,154c0.12-.1,3.23-2.44,7.87.34,5.49,3.28,12.71,16,12.69,21v0.28c0,5.76,0,16.5-11,18.68-5.77,1.14-11,.27-14.76-2.45" transform="translate(-79.35 -102.56)"/><path class="cls-13" d="M263.59,170.9h0c-5,16-1.73,32.48,9.61,48.91L274,221l-0.06.28,12.76,14.91,0.29,0.15c17.51,9.26,33.81,6.22,49.79-9.29,13.19-12.78,16.42-33.3,9.6-61s-37.19-33.47-44.95-33.5C294.48,132.53,272.67,141.57,263.59,170.9Zm28.21,20.92a12.82,12.82,0,0,1-5.27-9.53c-0.79-10.31-.36-22.83,10.18-28.13l0.15-.07L297,154c0.12-.1,3.23-2.44,7.87.34,5.49,3.28,12.71,16,12.69,21v0.28c0,5.76,0,16.5-11,18.68C300.79,195.42,295.55,194.55,291.8,191.82Z" transform="translate(-79.35 -102.56)"/><path class="cls-12" d="M412.18,117.38L408,118.74c-18.81,6.2-36.57,12-46.46,21.17l-5.23,4.6c-6.47,5.52-12.65,10.82-12.57,17.72a14.24,14.24,0,0,0,2,6.91c5.47,9.83,20.22,14.4,32.08,18.07l21,6.74c4.69,1.44,10.31,3.18,12.48,4.18-1.46,1.94-5.69,5.95-14.24,8.26-10.73,2.89-35.22,2.79-39.89,1l-2.15-.86c-2.85-1.17-4.57-1.87-6.24,1.42-0.43.87-4.25,6.41-7.92,11.77-11.68,17-12.16,17.95-12.15,18.86,0,1.44,1.42,6.18,4.42,6.16,1.94,0,34.64-5.25,46.68-8.47,11.56-3.1,54.6-21.39,57.65-25.06,0.13-.16,10.14-12.63,10.05-21.37a7.45,7.45,0,0,0-2.07-5.42c-6.49-6.46-12.61-10.38-18.69-12l-10.21-2.14c-11.28-2.25-37.65-7.52-39.93-10.27l-0.37-.85a16.85,16.85,0,0,1-.64-1.61,25.32,25.32,0,0,1,2.61-.4c5.31-.61,26.69,3.32,30.1,5.54l0.11,0.08,0.14,0.06c1.15,0.49,3.63.54,5.65-2.42l3-4c19.49-25.14,26.76-36.39,25.9-40.13l-1.54-1.73c-1.34-.72-9-4-29.44,2.8" transform="translate(-79.35 -102.56)"/><path class="cls-13" d="M412.18,117.38L408,118.74c-18.81,6.2-36.57,12-46.46,21.17l-5.23,4.6c-6.47,5.52-12.65,10.82-12.57,17.72a14.24,14.24,0,0,0,2,6.91c5.47,9.83,20.22,14.4,32.08,18.07l21,6.74c4.69,1.44,10.31,3.18,12.48,4.18-1.46,1.94-5.69,5.95-14.24,8.26-10.73,2.89-35.22,2.79-39.89,1l-2.15-.86c-2.85-1.17-4.57-1.87-6.24,1.42-0.43.87-4.25,6.41-7.92,11.77-11.68,17-12.16,17.95-12.15,18.86,0,1.44,1.42,6.18,4.42,6.16,1.94,0,34.64-5.25,46.68-8.47,11.56-3.1,54.6-21.39,57.65-25.06,0.13-.16,10.14-12.63,10.06-21.37a7.45,7.45,0,0,0-2.07-5.42c-6.49-6.46-12.61-10.38-18.69-12l-10.21-2.14c-11.28-2.26-37.65-7.52-39.93-10.27l-0.37-.85a16.91,16.91,0,0,1-.64-1.61,25.32,25.32,0,0,1,2.61-.4c5.31-.61,26.69,3.32,30.1,5.54l0.11,0.08,0.14,0.06c1.15,0.49,3.63.54,5.65-2.42l3-4c19.49-25.14,26.76-36.39,25.9-40.13l-1.54-1.73C440.28,113.86,432.62,110.62,412.18,117.38Z" transform="translate(-79.35 -102.56)"/><path class="cls-12" d="M440.51,120.5c-3.13.35-7.9,16-9.47,21.15-2.3,7.57-3,11.1-2.95,12.86a2,2,0,0,0,.8,2c1.06,0.82,3.48,1.16,10.14,1.93,3.74,0.43,9.77,1.13,11.51,1.87-0.76,6-17.64,79.37-20.08,83.51l-0.37.63,0.17,0.79c2.48,7.06,4.7,6.61,5.42,6.47,14.8-3,39.93-8.49,43-12.07a10.49,10.49,0,0,0,2.37-7.42c0-.67,0-1.32-0.07-2l0-3.45c0.17-1.11.56-6.45,1.12-13.83,1-13.45,3-40.41,4.24-46.11,2.71,0.52,9.83,2.13,15.8,3.47,18.75,4.25,18.91,4.19,19.68,3.94a1,1,0,0,0,.46.06c1.31,0.09,3.28.2,4.48-1.17a3.61,3.61,0,0,0,.57-3.42c-0.93-3.75-7.12-20.54-7.38-21.25l-0.28-.75-0.78-.25c-28.11-9-73.82-24-76.77-26.3l0.23,0.28a1.92,1.92,0,0,0-1.88-.94" transform="translate(-79.35 -102.56)"/><path class="cls-13" d="M440.51,120.5c-3.13.35-7.9,16-9.47,21.15-2.3,7.57-3,11.1-2.95,12.86a2,2,0,0,0,.8,2c1.06,0.82,3.48,1.16,10.14,1.93,3.74,0.43,9.77,1.13,11.51,1.87-0.76,6-17.64,79.37-20.08,83.51l-0.37.63,0.17,0.79c2.48,7.06,4.7,6.61,5.42,6.47,14.8-3,39.93-8.5,43-12.07a10.49,10.49,0,0,0,2.37-7.42c0-.67,0-1.32-0.07-2l0-3.45c0.17-1.11.56-6.45,1.12-13.83,1-13.45,3-40.41,4.24-46.11,2.71,0.52,9.83,2.13,15.8,3.47,18.75,4.25,18.91,4.19,19.68,3.94a1,1,0,0,0,.46.06c1.31,0.09,3.28.2,4.48-1.17a3.61,3.61,0,0,0,.57-3.42c-0.93-3.75-7.12-20.54-7.38-21.25l-0.28-.75-0.78-.25c-28.11-9-73.82-24-76.77-26.3l0.23,0.28A1.92,1.92,0,0,0,440.51,120.5Z" transform="translate(-79.35 -102.56)"/><path class="cls-12" d="M141.75,135.29c26.17,2.79,40,12.94,40.19,29.39,0,0.35,0,.69,0,1-0.36,14.39-12.47,22.52-18.45,25.67a92.08,92.08,0,0,0,10.75,8.55c8.41,6,11.46,13.52,11.52,20.34a24.06,24.06,0,0,1-2.2,10.23c-3.18,6.84-13,16.62-41.43,24.4L116,262.21c-10.7,3-10.89,3.1-12.45,2.08a3.06,3.06,0,0,1-1.37-2.38c-2.94-5.85-9.15-58.24-9.86-64.34l-0.58-4.84c-2-17.21-3.86-33.41-4-43.15a33.15,33.15,0,0,1,.49-7.18l0.39-1.73,1.81-.33c1.47-.27,36.16-6.67,51.28-5.05M128,234.34c1,0.56,26-10.14,26.21-13S124.43,218,124.43,218c-1.78.21,2.53,15.8,3.52,16.36m-1.81-61.5c0.8,0.76,22-14.1,22-15.63s-26.37-3.58-26.37-3.58,3.54,18.46,4.34,19.21" transform="translate(-79.35 -102.56)"/><path class="cls-13" d="M141.75,135.29c26.17,2.79,40,12.94,40.19,29.39,0,0.35,0,.69,0,1-0.36,14.39-12.47,22.52-18.45,25.67a92.11,92.11,0,0,0,10.75,8.55c8.41,6,11.46,13.52,11.52,20.34a24.07,24.07,0,0,1-2.2,10.23c-3.18,6.84-13,16.62-41.43,24.4L116,262.21c-10.7,3-10.89,3.1-12.45,2.08a3.06,3.06,0,0,1-1.37-2.38c-2.94-5.85-9.15-58.24-9.86-64.34l-0.58-4.84c-2-17.21-3.86-33.41-4-43.15a33.13,33.13,0,0,1,.49-7.18l0.39-1.73,1.81-.33C91.94,140.07,126.64,133.67,141.75,135.29ZM128,234.34c1,0.56,26-10.14,26.21-13S124.43,218,124.43,218C122.65,218.18,127,233.77,128,234.34Zm-1.81-61.5c0.8,0.76,22-14.1,22-15.63s-26.37-3.58-26.37-3.58S125.35,172.08,126.14,172.83Z" transform="translate(-79.35 -102.56)"/><path class="cls-14" d="M190.3,158h0c-11.13,12.84-14.91,29.19-11.22,48.59l0.23,1.35-0.16.24,5.62,18.55L185,227c12.31,15.16,28.52,18.55,49.57,10.38,17.36-6.74,28.74-24.37,33.8-52.4s-20.46-44.87-27.57-47.84c-6.34-2.65-30.09-2.62-50.46,20.89m17.35,29.93a12.49,12.49,0,0,1-.94-10.76c3.5-9.78,9-21.11,20.88-22h0.17l0.18,0c0.16,0,4-1,7.09,3.29,3.71,5.11,5.11,19.57,3.05,24.13l-0.11.26c-2.39,5.28-6.81,15.14-17.77,13-5.77-1.13-10.23-3.92-12.56-7.86" transform="translate(-79.35 -102.56)"/><path class="cls-15" d="M190.3,158h0c-11.13,12.84-14.91,29.19-11.22,48.59l0.23,1.35-0.16.24,5.62,18.55,0.19,0.24c12.31,15.16,28.52,18.55,49.57,10.38,17.36-6.74,28.74-24.37,33.8-52.4s-20.46-44.87-27.57-47.84C234.42,134.44,210.67,134.47,190.3,158Zm17.35,29.93a12.49,12.49,0,0,1-.94-10.76c3.5-9.78,9-21.11,20.88-22h0.17l0.18,0c0.16,0,4-1,7.09,3.29,3.71,5.11,5.11,19.57,3.05,24.13l-0.11.26c-2.39,5.28-6.81,15.14-17.77,13C214.44,194.63,210,191.84,207.65,187.91Z" transform="translate(-79.35 -102.56)"/><path class="cls-14" d="M263.59,170.91h0c-5,16-1.73,32.48,9.61,48.91L274,221l-0.06.28,12.76,14.91,0.29,0.15c17.51,9.26,33.81,6.22,49.79-9.29,13.19-12.78,16.42-33.3,9.6-61s-37.19-33.47-44.95-33.5c-6.92,0-28.73,9-37.81,38.36m28.21,20.92a12.82,12.82,0,0,1-5.27-9.53c-0.79-10.31-.36-22.83,10.18-28.13l0.15-.07L297,154c0.12-.1,3.23-2.44,7.87.34,5.49,3.28,12.71,16,12.69,21v0.28c0,5.76,0,16.5-11,18.68-5.77,1.14-11,.27-14.76-2.45" transform="translate(-79.35 -102.56)"/><path class="cls-15" d="M263.59,170.9h0c-5,16-1.73,32.48,9.61,48.91L274,221l-0.06.28,12.76,14.91,0.29,0.15c17.51,9.26,33.81,6.22,49.79-9.29,13.19-12.78,16.42-33.3,9.6-61s-37.19-33.47-44.95-33.5C294.48,132.53,272.67,141.57,263.59,170.9Zm28.21,20.92a12.82,12.82,0,0,1-5.27-9.53c-0.79-10.31-.36-22.83,10.18-28.13l0.15-.07L297,154c0.12-.1,3.23-2.44,7.87.34,5.49,3.28,12.71,16,12.69,21v0.28c0,5.76,0,16.5-11,18.68C300.79,195.42,295.55,194.55,291.8,191.82Z" transform="translate(-79.35 -102.56)"/><path class="cls-14" d="M412.18,117.38L408,118.74c-18.81,6.2-36.57,12-46.46,21.17l-5.23,4.6c-6.47,5.52-12.65,10.82-12.57,17.72a14.24,14.24,0,0,0,2,6.91c5.47,9.83,20.22,14.4,32.08,18.07l21,6.74c4.69,1.44,10.31,3.18,12.48,4.18-1.46,1.94-5.69,5.95-14.24,8.26-10.73,2.89-35.22,2.79-39.89,1l-2.15-.86c-2.85-1.17-4.57-1.87-6.24,1.42-0.43.87-4.25,6.41-7.92,11.77-11.68,17-12.16,17.95-12.15,18.86,0,1.44,1.42,6.18,4.42,6.16,1.94,0,34.64-5.25,46.68-8.47,11.56-3.1,54.6-21.39,57.65-25.06,0.13-.16,10.14-12.63,10.05-21.37a7.45,7.45,0,0,0-2.07-5.42c-6.49-6.46-12.61-10.38-18.69-12l-10.21-2.14c-11.28-2.25-37.65-7.52-39.93-10.27l-0.37-.85a16.85,16.85,0,0,1-.64-1.61,25.32,25.32,0,0,1,2.61-.4c5.31-.61,26.69,3.32,30.1,5.54l0.11,0.08,0.14,0.06c1.15,0.49,3.63.54,5.65-2.42l3-4c19.49-25.14,26.76-36.39,25.9-40.13l-1.54-1.73c-1.34-.72-9-4-29.44,2.8" transform="translate(-79.35 -102.56)"/><path class="cls-15" d="M412.18,117.38L408,118.74c-18.81,6.2-36.57,12-46.46,21.17l-5.23,4.6c-6.47,5.52-12.65,10.82-12.57,17.72a14.24,14.24,0,0,0,2,6.91c5.47,9.83,20.22,14.4,32.08,18.07l21,6.74c4.69,1.44,10.31,3.18,12.48,4.18-1.46,1.94-5.69,5.95-14.24,8.26-10.73,2.89-35.22,2.79-39.89,1l-2.15-.86c-2.85-1.17-4.57-1.87-6.24,1.42-0.43.87-4.25,6.41-7.92,11.77-11.68,17-12.16,17.95-12.15,18.86,0,1.44,1.42,6.18,4.42,6.16,1.94,0,34.64-5.25,46.68-8.47,11.56-3.1,54.6-21.39,57.65-25.06,0.13-.16,10.14-12.63,10.06-21.37a7.45,7.45,0,0,0-2.07-5.42c-6.49-6.46-12.61-10.38-18.69-12l-10.21-2.14c-11.28-2.26-37.65-7.52-39.93-10.27l-0.37-.85a16.91,16.91,0,0,1-.64-1.61,25.32,25.32,0,0,1,2.61-.4c5.31-.61,26.69,3.32,30.1,5.54l0.11,0.08,0.14,0.06c1.15,0.49,3.63.54,5.65-2.42l3-4c19.49-25.14,26.76-36.39,25.9-40.13l-1.54-1.73C440.28,113.86,432.62,110.62,412.18,117.38Z" transform="translate(-79.35 -102.56)"/><path class="cls-14" d="M440.51,120.5c-3.13.35-7.9,16-9.47,21.15-2.3,7.57-3,11.1-2.95,12.86a2,2,0,0,0,.8,2c1.06,0.82,3.48,1.16,10.14,1.93,3.74,0.43,9.77,1.13,11.51,1.87-0.76,6-17.64,79.37-20.08,83.51l-0.37.63,0.17,0.79c2.48,7.06,4.7,6.61,5.42,6.47,14.8-3,39.93-8.49,43-12.07a10.49,10.49,0,0,0,2.37-7.42c0-.67,0-1.32-0.07-2l0-3.45c0.17-1.11.56-6.45,1.12-13.83,1-13.45,3-40.41,4.24-46.11,2.71,0.52,9.83,2.13,15.8,3.47,18.75,4.25,18.91,4.19,19.68,3.94a1,1,0,0,0,.46.06c1.31,0.09,3.28.2,4.48-1.17a3.61,3.61,0,0,0,.57-3.42c-0.93-3.75-7.12-20.54-7.38-21.25l-0.28-.75-0.78-.25c-28.11-9-73.82-24-76.77-26.3l0.23,0.28a1.92,1.92,0,0,0-1.88-.94" transform="translate(-79.35 -102.56)"/><path class="cls-15" d="M440.51,120.5c-3.13.35-7.9,16-9.47,21.15-2.3,7.57-3,11.1-2.95,12.86a2,2,0,0,0,.8,2c1.06,0.82,3.48,1.16,10.14,1.93,3.74,0.43,9.77,1.13,11.51,1.87-0.76,6-17.64,79.37-20.08,83.51l-0.37.63,0.17,0.79c2.48,7.06,4.7,6.61,5.42,6.47,14.8-3,39.93-8.5,43-12.07a10.49,10.49,0,0,0,2.37-7.42c0-.67,0-1.32-0.07-2l0-3.45c0.17-1.11.56-6.45,1.12-13.83,1-13.45,3-40.41,4.24-46.11,2.71,0.52,9.83,2.13,15.8,3.47,18.75,4.25,18.91,4.19,19.68,3.94a1,1,0,0,0,.46.06c1.31,0.09,3.28.2,4.48-1.17a3.61,3.61,0,0,0,.57-3.42c-0.93-3.75-7.12-20.54-7.38-21.25l-0.28-.75-0.78-.25c-28.11-9-73.82-24-76.77-26.3l0.23,0.28A1.92,1.92,0,0,0,440.51,120.5Z" transform="translate(-79.35 -102.56)"/><path class="cls-14" d="M141.75,135.29c26.17,2.79,40,12.94,40.19,29.39,0,0.35,0,.69,0,1-0.36,14.39-12.47,22.52-18.45,25.67a92.08,92.08,0,0,0,10.75,8.55c8.41,6,11.46,13.52,11.52,20.34a24.06,24.06,0,0,1-2.2,10.23c-3.18,6.84-13,16.62-41.43,24.4L116,262.21c-10.7,3-10.89,3.1-12.45,2.08a3.06,3.06,0,0,1-1.37-2.38c-2.94-5.85-9.15-58.24-9.86-64.34l-0.58-4.84c-2-17.21-3.86-33.41-4-43.15a33.15,33.15,0,0,1,.49-7.18l0.39-1.73,1.81-.33c1.47-.27,36.16-6.67,51.28-5.05M128,234.34c1,0.56,26-10.14,26.21-13S124.43,218,124.43,218c-1.78.21,2.53,15.8,3.52,16.36m-1.81-61.5c0.8,0.76,22-14.1,22-15.63s-26.37-3.58-26.37-3.58,3.54,18.46,4.34,19.21" transform="translate(-79.35 -102.56)"/><path class="cls-15" d="M141.75,135.29c26.17,2.79,40,12.94,40.19,29.39,0,0.35,0,.69,0,1-0.36,14.39-12.47,22.52-18.45,25.67a92.11,92.11,0,0,0,10.75,8.55c8.41,6,11.46,13.52,11.52,20.34a24.07,24.07,0,0,1-2.2,10.23c-3.18,6.84-13,16.62-41.43,24.4L116,262.21c-10.7,3-10.89,3.1-12.45,2.08a3.06,3.06,0,0,1-1.37-2.38c-2.94-5.85-9.15-58.24-9.86-64.34l-0.58-4.84c-2-17.21-3.86-33.41-4-43.15a33.13,33.13,0,0,1,.49-7.18l0.39-1.73,1.81-.33C91.94,140.07,126.64,133.67,141.75,135.29ZM128,234.34c1,0.56,26-10.14,26.21-13S124.43,218,124.43,218C122.65,218.18,127,233.77,128,234.34Zm-1.81-61.5c0.8,0.76,22-14.1,22-15.63s-26.37-3.58-26.37-3.58S125.35,172.08,126.14,172.83Z" transform="translate(-79.35 -102.56)"/><path class="cls-16" d="M190.3,158h0c-11.13,12.84-14.91,29.19-11.22,48.59l0.23,1.35-0.16.24,5.62,18.55L185,227c12.31,15.16,28.52,18.55,49.57,10.38,17.36-6.74,28.74-24.37,33.8-52.4s-20.46-44.87-27.57-47.84c-6.34-2.65-30.09-2.62-50.46,20.89m17.35,29.93a12.49,12.49,0,0,1-.94-10.76c3.5-9.78,9-21.11,20.88-22h0.17l0.18,0c0.16,0,4-1,7.09,3.29,3.71,5.11,5.11,19.57,3.05,24.13l-0.11.26c-2.39,5.28-6.81,15.14-17.77,13-5.77-1.13-10.23-3.92-12.56-7.86" transform="translate(-79.35 -102.56)"/><path class="cls-17" d="M190.3,158h0c-11.13,12.84-14.91,29.19-11.22,48.59l0.23,1.35-0.16.24,5.62,18.55,0.19,0.24c12.31,15.16,28.52,18.55,49.57,10.38,17.36-6.74,28.74-24.37,33.8-52.4s-20.46-44.87-27.57-47.84C234.42,134.44,210.67,134.47,190.3,158Zm17.35,29.93a12.49,12.49,0,0,1-.94-10.76c3.5-9.78,9-21.11,20.88-22h0.17l0.18,0c0.16,0,4-1,7.09,3.29,3.71,5.11,5.11,19.57,3.05,24.13l-0.11.26c-2.39,5.28-6.81,15.14-17.77,13C214.44,194.63,210,191.84,207.65,187.91Z" transform="translate(-79.35 -102.56)"/><path class="cls-16" d="M263.59,170.91h0c-5,16-1.73,32.48,9.61,48.91L274,221l-0.06.28,12.76,14.91,0.29,0.15c17.51,9.26,33.81,6.22,49.79-9.29,13.19-12.78,16.42-33.3,9.6-61s-37.19-33.47-44.95-33.5c-6.92,0-28.73,9-37.81,38.36m28.21,20.92a12.82,12.82,0,0,1-5.27-9.53c-0.79-10.31-.36-22.83,10.18-28.13l0.15-.07L297,154c0.12-.1,3.23-2.44,7.87.34,5.49,3.28,12.71,16,12.69,21v0.28c0,5.76,0,16.5-11,18.68-5.77,1.14-11,.27-14.76-2.45" transform="translate(-79.35 -102.56)"/><path class="cls-17" d="M263.59,170.9h0c-5,16-1.73,32.48,9.61,48.91L274,221l-0.06.28,12.76,14.91,0.29,0.15c17.51,9.26,33.81,6.22,49.79-9.29,13.19-12.78,16.42-33.3,9.6-61s-37.19-33.47-44.95-33.5C294.48,132.53,272.67,141.57,263.59,170.9Zm28.21,20.92a12.82,12.82,0,0,1-5.27-9.53c-0.79-10.31-.36-22.83,10.18-28.13l0.15-.07L297,154c0.12-.1,3.23-2.44,7.87.34,5.49,3.28,12.71,16,12.69,21v0.28c0,5.76,0,16.5-11,18.68C300.79,195.42,295.55,194.55,291.8,191.82Z" transform="translate(-79.35 -102.56)"/><path class="cls-16" d="M412.18,117.38L408,118.74c-18.81,6.2-36.57,12-46.46,21.17l-5.23,4.6c-6.47,5.52-12.65,10.82-12.57,17.72a14.24,14.24,0,0,0,2,6.91c5.47,9.83,20.22,14.4,32.08,18.07l21,6.74c4.69,1.44,10.31,3.18,12.48,4.18-1.46,1.94-5.69,5.95-14.24,8.26-10.73,2.89-35.22,2.79-39.89,1l-2.15-.86c-2.85-1.17-4.57-1.87-6.24,1.42-0.43.87-4.25,6.41-7.92,11.77-11.68,17-12.16,17.95-12.15,18.86,0,1.44,1.42,6.18,4.42,6.16,1.94,0,34.64-5.25,46.68-8.47,11.56-3.1,54.6-21.39,57.65-25.06,0.13-.16,10.14-12.63,10.05-21.37a7.45,7.45,0,0,0-2.07-5.42c-6.49-6.46-12.61-10.38-18.69-12l-10.21-2.14c-11.28-2.25-37.65-7.52-39.93-10.27l-0.37-.85a16.85,16.85,0,0,1-.64-1.61,25.32,25.32,0,0,1,2.61-.4c5.31-.61,26.69,3.32,30.1,5.54l0.11,0.08,0.14,0.06c1.15,0.49,3.63.54,5.65-2.42l3-4c19.49-25.14,26.76-36.39,25.9-40.13l-1.54-1.73c-1.34-.72-9-4-29.44,2.8" transform="translate(-79.35 -102.56)"/><path class="cls-17" d="M412.18,117.38L408,118.74c-18.81,6.2-36.57,12-46.46,21.17l-5.23,4.6c-6.47,5.52-12.65,10.82-12.57,17.72a14.24,14.24,0,0,0,2,6.91c5.47,9.83,20.22,14.4,32.08,18.07l21,6.74c4.69,1.44,10.31,3.18,12.48,4.18-1.46,1.94-5.69,5.95-14.24,8.26-10.73,2.89-35.22,2.79-39.89,1l-2.15-.86c-2.85-1.17-4.57-1.87-6.24,1.42-0.43.87-4.25,6.41-7.92,11.77-11.68,17-12.16,17.95-12.15,18.86,0,1.44,1.42,6.18,4.42,6.16,1.94,0,34.64-5.25,46.68-8.47,11.56-3.1,54.6-21.39,57.65-25.06,0.13-.16,10.14-12.63,10.06-21.37a7.45,7.45,0,0,0-2.07-5.42c-6.49-6.46-12.61-10.38-18.69-12l-10.21-2.14c-11.28-2.26-37.65-7.52-39.93-10.27l-0.37-.85a16.91,16.91,0,0,1-.64-1.61,25.32,25.32,0,0,1,2.61-.4c5.31-.61,26.69,3.32,30.1,5.54l0.11,0.08,0.14,0.06c1.15,0.49,3.63.54,5.65-2.42l3-4c19.49-25.14,26.76-36.39,25.9-40.13l-1.54-1.73C440.28,113.86,432.62,110.62,412.18,117.38Z" transform="translate(-79.35 -102.56)"/><path class="cls-16" d="M440.51,120.5c-3.13.35-7.9,16-9.47,21.15-2.3,7.57-3,11.1-2.95,12.86a2,2,0,0,0,.8,2c1.06,0.82,3.48,1.16,10.14,1.93,3.74,0.43,9.77,1.13,11.51,1.87-0.76,6-17.64,79.37-20.08,83.51l-0.37.63,0.17,0.79c2.48,7.06,4.7,6.61,5.42,6.47,14.8-3,39.93-8.49,43-12.07a10.49,10.49,0,0,0,2.37-7.42c0-.67,0-1.32-0.07-2l0-3.45c0.17-1.11.56-6.45,1.12-13.83,1-13.45,3-40.41,4.24-46.11,2.71,0.52,9.83,2.13,15.8,3.47,18.75,4.25,18.91,4.19,19.68,3.94a1,1,0,0,0,.46.06c1.31,0.09,3.28.2,4.48-1.17a3.61,3.61,0,0,0,.57-3.42c-0.93-3.75-7.12-20.54-7.38-21.25l-0.28-.75-0.78-.25c-28.11-9-73.82-24-76.77-26.3l0.23,0.28a1.92,1.92,0,0,0-1.88-.94" transform="translate(-79.35 -102.56)"/><path class="cls-17" d="M440.51,120.5c-3.13.35-7.9,16-9.47,21.15-2.3,7.57-3,11.1-2.95,12.86a2,2,0,0,0,.8,2c1.06,0.82,3.48,1.16,10.14,1.93,3.74,0.43,9.77,1.13,11.51,1.87-0.76,6-17.64,79.37-20.08,83.51l-0.37.63,0.17,0.79c2.48,7.06,4.7,6.61,5.42,6.47,14.8-3,39.93-8.5,43-12.07a10.49,10.49,0,0,0,2.37-7.42c0-.67,0-1.32-0.07-2l0-3.45c0.17-1.11.56-6.45,1.12-13.83,1-13.45,3-40.41,4.24-46.11,2.71,0.52,9.83,2.13,15.8,3.47,18.75,4.25,18.91,4.19,19.68,3.94a1,1,0,0,0,.46.06c1.31,0.09,3.28.2,4.48-1.17a3.61,3.61,0,0,0,.57-3.42c-0.93-3.75-7.12-20.54-7.38-21.25l-0.28-.75-0.78-.25c-28.11-9-73.82-24-76.77-26.3l0.23,0.28A1.92,1.92,0,0,0,440.51,120.5Z" transform="translate(-79.35 -102.56)"/><path class="cls-16" d="M141.75,135.29c26.17,2.79,40,12.94,40.19,29.39,0,0.35,0,.69,0,1-0.36,14.39-12.47,22.52-18.45,25.67a92.08,92.08,0,0,0,10.75,8.55c8.41,6,11.46,13.52,11.52,20.34a24.06,24.06,0,0,1-2.2,10.23c-3.18,6.84-13,16.62-41.43,24.4L116,262.21c-10.7,3-10.89,3.1-12.45,2.08a3.06,3.06,0,0,1-1.37-2.38c-2.94-5.85-9.15-58.24-9.86-64.34l-0.58-4.84c-2-17.21-3.86-33.41-4-43.15a33.15,33.15,0,0,1,.49-7.18l0.39-1.73,1.81-.33c1.47-.27,36.16-6.67,51.28-5.05M128,234.34c1,0.56,26-10.14,26.21-13S124.43,218,124.43,218c-1.78.21,2.53,15.8,3.52,16.36m-1.81-61.5c0.8,0.76,22-14.1,22-15.63s-26.37-3.58-26.37-3.58,3.54,18.46,4.34,19.21" transform="translate(-79.35 -102.56)"/><path class="cls-17" d="M141.75,135.29c26.17,2.79,40,12.94,40.19,29.39,0,0.35,0,.69,0,1-0.36,14.39-12.47,22.52-18.45,25.67a92.11,92.11,0,0,0,10.75,8.55c8.41,6,11.46,13.52,11.52,20.34a24.07,24.07,0,0,1-2.2,10.23c-3.18,6.84-13,16.62-41.43,24.4L116,262.21c-10.7,3-10.89,3.1-12.45,2.08a3.06,3.06,0,0,1-1.37-2.38c-2.94-5.85-9.15-58.24-9.86-64.34l-0.58-4.84c-2-17.21-3.86-33.41-4-43.15a33.13,33.13,0,0,1,.49-7.18l0.39-1.73,1.81-.33C91.94,140.07,126.64,133.67,141.75,135.29ZM128,234.34c1,0.56,26-10.14,26.21-13S124.43,218,124.43,218C122.65,218.18,127,233.77,128,234.34Zm-1.81-61.5c0.8,0.76,22-14.1,22-15.63s-26.37-3.58-26.37-3.58S125.35,172.08,126.14,172.83Z" transform="translate(-79.35 -102.56)"/><path class="cls-18" d="M190.3,158h0c-11.13,12.84-14.91,29.19-11.22,48.59l0.23,1.35-0.16.24,5.62,18.55L185,227c12.31,15.16,28.52,18.55,49.57,10.38,17.36-6.74,28.74-24.37,33.8-52.4s-20.46-44.87-27.57-47.84c-6.34-2.65-30.09-2.62-50.46,20.89m17.35,29.93a12.49,12.49,0,0,1-.94-10.76c3.5-9.78,9-21.11,20.88-22h0.17l0.18,0c0.16,0,4-1,7.09,3.29,3.71,5.11,5.11,19.57,3.05,24.13l-0.11.26c-2.39,5.28-6.81,15.14-17.77,13-5.77-1.13-10.23-3.92-12.56-7.86" transform="translate(-79.35 -102.56)"/><path class="cls-19" d="M190.3,158h0c-11.13,12.84-14.91,29.19-11.22,48.59l0.23,1.35-0.16.24,5.62,18.55,0.19,0.24c12.31,15.16,28.52,18.55,49.57,10.38,17.36-6.74,28.74-24.37,33.8-52.4s-20.46-44.87-27.57-47.84C234.42,134.44,210.67,134.47,190.3,158Zm17.35,29.93a12.49,12.49,0,0,1-.94-10.76c3.5-9.78,9-21.11,20.88-22h0.17l0.18,0c0.16,0,4-1,7.09,3.29,3.71,5.11,5.11,19.57,3.05,24.13l-0.11.26c-2.39,5.28-6.81,15.14-17.77,13C214.44,194.63,210,191.84,207.65,187.91Z" transform="translate(-79.35 -102.56)"/><path class="cls-18" d="M263.59,170.91h0c-5,16-1.73,32.48,9.61,48.91L274,221l-0.06.28,12.76,14.91,0.29,0.15c17.51,9.26,33.81,6.22,49.79-9.29,13.19-12.78,16.42-33.3,9.6-61s-37.19-33.47-44.95-33.5c-6.92,0-28.73,9-37.81,38.36m28.21,20.92a12.82,12.82,0,0,1-5.27-9.53c-0.79-10.31-.36-22.83,10.18-28.13l0.15-.07L297,154c0.12-.1,3.23-2.44,7.87.34,5.49,3.28,12.71,16,12.69,21v0.28c0,5.76,0,16.5-11,18.68-5.77,1.14-11,.27-14.76-2.45" transform="translate(-79.35 -102.56)"/><path class="cls-19" d="M263.59,170.9h0c-5,16-1.73,32.48,9.61,48.91L274,221l-0.06.28,12.76,14.91,0.29,0.15c17.51,9.26,33.81,6.22,49.79-9.29,13.19-12.78,16.42-33.3,9.6-61s-37.19-33.47-44.95-33.5C294.48,132.53,272.67,141.57,263.59,170.9Zm28.21,20.92a12.82,12.82,0,0,1-5.27-9.53c-0.79-10.31-.36-22.83,10.18-28.13l0.15-.07L297,154c0.12-.1,3.23-2.44,7.87.34,5.49,3.28,12.71,16,12.69,21v0.28c0,5.76,0,16.5-11,18.68C300.79,195.42,295.55,194.55,291.8,191.82Z" transform="translate(-79.35 -102.56)"/><path class="cls-18" d="M412.18,117.38L408,118.74c-18.81,6.2-36.57,12-46.46,21.17l-5.23,4.6c-6.47,5.52-12.65,10.82-12.57,17.72a14.24,14.24,0,0,0,2,6.91c5.47,9.83,20.22,14.4,32.08,18.07l21,6.74c4.69,1.44,10.31,3.18,12.48,4.18-1.46,1.94-5.69,5.95-14.24,8.26-10.73,2.89-35.22,2.79-39.89,1l-2.15-.86c-2.85-1.17-4.57-1.87-6.24,1.42-0.43.87-4.25,6.41-7.92,11.77-11.68,17-12.16,17.95-12.15,18.86,0,1.44,1.42,6.18,4.42,6.16,1.94,0,34.64-5.25,46.68-8.47,11.56-3.1,54.6-21.39,57.65-25.06,0.13-.16,10.14-12.63,10.05-21.37a7.45,7.45,0,0,0-2.07-5.42c-6.49-6.46-12.61-10.38-18.69-12l-10.21-2.14c-11.28-2.25-37.65-7.52-39.93-10.27l-0.37-.85a16.85,16.85,0,0,1-.64-1.61,25.32,25.32,0,0,1,2.61-.4c5.31-.61,26.69,3.32,30.1,5.54l0.11,0.08,0.14,0.06c1.15,0.49,3.63.54,5.65-2.42l3-4c19.49-25.14,26.76-36.39,25.9-40.13l-1.54-1.73c-1.34-.72-9-4-29.44,2.8" transform="translate(-79.35 -102.56)"/><path class="cls-19" d="M412.18,117.38L408,118.74c-18.81,6.2-36.57,12-46.46,21.17l-5.23,4.6c-6.47,5.52-12.65,10.82-12.57,17.72a14.24,14.24,0,0,0,2,6.91c5.47,9.83,20.22,14.4,32.08,18.07l21,6.74c4.69,1.44,10.31,3.18,12.48,4.18-1.46,1.94-5.69,5.95-14.24,8.26-10.73,2.89-35.22,2.79-39.89,1l-2.15-.86c-2.85-1.17-4.57-1.87-6.24,1.42-0.43.87-4.25,6.41-7.92,11.77-11.68,17-12.16,17.95-12.15,18.86,0,1.44,1.42,6.18,4.42,6.16,1.94,0,34.64-5.25,46.68-8.47,11.56-3.1,54.6-21.39,57.65-25.06,0.13-.16,10.14-12.63,10.06-21.37a7.45,7.45,0,0,0-2.07-5.42c-6.49-6.46-12.61-10.38-18.69-12l-10.21-2.14c-11.28-2.26-37.65-7.52-39.93-10.27l-0.37-.85a16.91,16.91,0,0,1-.64-1.61,25.32,25.32,0,0,1,2.61-.4c5.31-.61,26.69,3.32,30.1,5.54l0.11,0.08,0.14,0.06c1.15,0.49,3.63.54,5.65-2.42l3-4c19.49-25.14,26.76-36.39,25.9-40.13l-1.54-1.73C440.28,113.86,432.62,110.62,412.18,117.38Z" transform="translate(-79.35 -102.56)"/><path class="cls-18" d="M440.51,120.5c-3.13.35-7.9,16-9.47,21.15-2.3,7.57-3,11.1-2.95,12.86a2,2,0,0,0,.8,2c1.06,0.82,3.48,1.16,10.14,1.93,3.74,0.43,9.77,1.13,11.51,1.87-0.76,6-17.64,79.37-20.08,83.51l-0.37.63,0.17,0.79c2.48,7.06,4.7,6.61,5.42,6.47,14.8-3,39.93-8.49,43-12.07a10.49,10.49,0,0,0,2.37-7.42c0-.67,0-1.32-0.07-2l0-3.45c0.17-1.11.56-6.45,1.12-13.83,1-13.45,3-40.41,4.24-46.11,2.71,0.52,9.83,2.13,15.8,3.47,18.75,4.25,18.91,4.19,19.68,3.94a1,1,0,0,0,.46.06c1.31,0.09,3.28.2,4.48-1.17a3.61,3.61,0,0,0,.57-3.42c-0.93-3.75-7.12-20.54-7.38-21.25l-0.28-.75-0.78-.25c-28.11-9-73.82-24-76.77-26.3l0.23,0.28a1.92,1.92,0,0,0-1.88-.94" transform="translate(-79.35 -102.56)"/><path class="cls-19" d="M440.51,120.5c-3.13.35-7.9,16-9.47,21.15-2.3,7.57-3,11.1-2.95,12.86a2,2,0,0,0,.8,2c1.06,0.82,3.48,1.16,10.14,1.93,3.74,0.43,9.77,1.13,11.51,1.87-0.76,6-17.64,79.37-20.08,83.51l-0.37.63,0.17,0.79c2.48,7.06,4.7,6.61,5.42,6.47,14.8-3,39.93-8.5,43-12.07a10.49,10.49,0,0,0,2.37-7.42c0-.67,0-1.32-0.07-2l0-3.45c0.17-1.11.56-6.45,1.12-13.83,1-13.45,3-40.41,4.24-46.11,2.71,0.52,9.83,2.13,15.8,3.47,18.75,4.25,18.91,4.19,19.68,3.94a1,1,0,0,0,.46.06c1.31,0.09,3.28.2,4.48-1.17a3.61,3.61,0,0,0,.57-3.42c-0.93-3.75-7.12-20.54-7.38-21.25l-0.28-.75-0.78-.25c-28.11-9-73.82-24-76.77-26.3l0.23,0.28A1.92,1.92,0,0,0,440.51,120.5Z" transform="translate(-79.35 -102.56)"/><path class="cls-18" d="M141.75,135.29c26.17,2.79,40,12.94,40.19,29.39,0,0.35,0,.69,0,1-0.36,14.39-12.47,22.52-18.45,25.67a92.08,92.08,0,0,0,10.75,8.55c8.41,6,11.46,13.52,11.52,20.34a24.06,24.06,0,0,1-2.2,10.23c-3.18,6.84-13,16.62-41.43,24.4L116,262.21c-10.7,3-10.89,3.1-12.45,2.08a3.06,3.06,0,0,1-1.37-2.38c-2.94-5.85-9.15-58.24-9.86-64.34l-0.58-4.84c-2-17.21-3.86-33.41-4-43.15a33.15,33.15,0,0,1,.49-7.18l0.39-1.73,1.81-.33c1.47-.27,36.16-6.67,51.28-5.05M128,234.34c1,0.56,26-10.14,26.21-13S124.43,218,124.43,218c-1.78.21,2.53,15.8,3.52,16.36m-1.81-61.5c0.8,0.76,22-14.1,22-15.63s-26.37-3.58-26.37-3.58,3.54,18.46,4.34,19.21" transform="translate(-79.35 -102.56)"/><path class="cls-19" d="M141.75,135.29c26.17,2.79,40,12.94,40.19,29.39,0,0.35,0,.69,0,1-0.36,14.39-12.47,22.52-18.45,25.67a92.11,92.11,0,0,0,10.75,8.55c8.41,6,11.46,13.52,11.52,20.34a24.07,24.07,0,0,1-2.2,10.23c-3.18,6.84-13,16.62-41.43,24.4L116,262.21c-10.7,3-10.89,3.1-12.45,2.08a3.06,3.06,0,0,1-1.37-2.38c-2.94-5.85-9.15-58.24-9.86-64.34l-0.58-4.84c-2-17.21-3.86-33.41-4-43.15a33.13,33.13,0,0,1,.49-7.18l0.39-1.73,1.81-.33C91.94,140.07,126.64,133.67,141.75,135.29ZM128,234.34c1,0.56,26-10.14,26.21-13S124.43,218,124.43,218C122.65,218.18,127,233.77,128,234.34Zm-1.81-61.5c0.8,0.76,22-14.1,22-15.63s-26.37-3.58-26.37-3.58S125.35,172.08,126.14,172.83Z" transform="translate(-79.35 -102.56)"/><path class="cls-20" d="M190.3,158h0c-11.13,12.84-14.91,29.19-11.22,48.59l0.23,1.35-0.16.24,5.62,18.55L185,227c12.31,15.16,28.52,18.55,49.57,10.38,17.36-6.74,28.74-24.37,33.8-52.4s-20.46-44.87-27.57-47.84c-6.34-2.65-30.09-2.62-50.46,20.89m17.35,29.93a12.49,12.49,0,0,1-.94-10.76c3.5-9.78,9-21.11,20.88-22h0.17l0.18,0c0.16,0,4-1,7.09,3.29,3.71,5.11,5.11,19.57,3.05,24.13l-0.11.26c-2.39,5.28-6.81,15.14-17.77,13-5.77-1.13-10.23-3.92-12.56-7.86" transform="translate(-79.35 -102.56)"/><path class="cls-21" d="M190.3,158h0c-11.13,12.84-14.91,29.19-11.22,48.59l0.23,1.35-0.16.24,5.62,18.55,0.19,0.24c12.31,15.16,28.52,18.55,49.57,10.38,17.36-6.74,28.74-24.37,33.8-52.4s-20.46-44.87-27.57-47.84C234.42,134.44,210.67,134.47,190.3,158Zm17.35,29.93a12.49,12.49,0,0,1-.94-10.76c3.5-9.78,9-21.11,20.88-22h0.17l0.18,0c0.16,0,4-1,7.09,3.29,3.71,5.11,5.11,19.57,3.05,24.13l-0.11.26c-2.39,5.28-6.81,15.14-17.77,13C214.44,194.63,210,191.84,207.65,187.91Z" transform="translate(-79.35 -102.56)"/><path class="cls-20" d="M263.59,170.91h0c-5,16-1.73,32.48,9.61,48.91L274,221l-0.06.28,12.76,14.91,0.29,0.15c17.51,9.26,33.81,6.22,49.79-9.29,13.19-12.78,16.42-33.3,9.6-61s-37.19-33.47-44.95-33.5c-6.92,0-28.73,9-37.81,38.36m28.21,20.92a12.82,12.82,0,0,1-5.27-9.53c-0.79-10.31-.36-22.83,10.18-28.13l0.15-.07L297,154c0.12-.1,3.23-2.44,7.87.34,5.49,3.28,12.71,16,12.69,21v0.28c0,5.76,0,16.5-11,18.68-5.77,1.14-11,.27-14.76-2.45" transform="translate(-79.35 -102.56)"/><path class="cls-21" d="M263.59,170.9h0c-5,16-1.73,32.48,9.61,48.91L274,221l-0.06.28,12.76,14.91,0.29,0.15c17.51,9.26,33.81,6.22,49.79-9.29,13.19-12.78,16.42-33.3,9.6-61s-37.19-33.47-44.95-33.5C294.48,132.53,272.67,141.57,263.59,170.9Zm28.21,20.92a12.82,12.82,0,0,1-5.27-9.53c-0.79-10.31-.36-22.83,10.18-28.13l0.15-.07L297,154c0.12-.1,3.23-2.44,7.87.34,5.49,3.28,12.71,16,12.69,21v0.28c0,5.76,0,16.5-11,18.68C300.79,195.42,295.55,194.55,291.8,191.82Z" transform="translate(-79.35 -102.56)"/><path class="cls-20" d="M412.18,117.38L408,118.74c-18.81,6.2-36.57,12-46.46,21.17l-5.23,4.6c-6.47,5.52-12.65,10.82-12.57,17.72a14.24,14.24,0,0,0,2,6.91c5.47,9.83,20.22,14.4,32.08,18.07l21,6.74c4.69,1.44,10.31,3.18,12.48,4.18-1.46,1.94-5.69,5.95-14.24,8.26-10.73,2.89-35.22,2.79-39.89,1l-2.15-.86c-2.85-1.17-4.57-1.87-6.24,1.42-0.43.87-4.25,6.41-7.92,11.77-11.68,17-12.16,17.95-12.15,18.86,0,1.44,1.42,6.18,4.42,6.16,1.94,0,34.64-5.25,46.68-8.47,11.56-3.1,54.6-21.39,57.65-25.06,0.13-.16,10.14-12.63,10.05-21.37a7.45,7.45,0,0,0-2.07-5.42c-6.49-6.46-12.61-10.38-18.69-12l-10.21-2.14c-11.28-2.25-37.65-7.52-39.93-10.27l-0.37-.85a16.85,16.85,0,0,1-.64-1.61,25.32,25.32,0,0,1,2.61-.4c5.31-.61,26.69,3.32,30.1,5.54l0.11,0.08,0.14,0.06c1.15,0.49,3.63.54,5.65-2.42l3-4c19.49-25.14,26.76-36.39,25.9-40.13l-1.54-1.73c-1.34-.72-9-4-29.44,2.8" transform="translate(-79.35 -102.56)"/><path class="cls-21" d="M412.18,117.38L408,118.74c-18.81,6.2-36.57,12-46.46,21.17l-5.23,4.6c-6.47,5.52-12.65,10.82-12.57,17.72a14.24,14.24,0,0,0,2,6.91c5.47,9.83,20.22,14.4,32.08,18.07l21,6.74c4.69,1.44,10.31,3.18,12.48,4.18-1.46,1.94-5.69,5.95-14.24,8.26-10.73,2.89-35.22,2.79-39.89,1l-2.15-.86c-2.85-1.17-4.57-1.87-6.24,1.42-0.43.87-4.25,6.41-7.92,11.77-11.68,17-12.16,17.95-12.15,18.86,0,1.44,1.42,6.18,4.42,6.16,1.94,0,34.64-5.25,46.68-8.47,11.56-3.1,54.6-21.39,57.65-25.06,0.13-.16,10.14-12.63,10.06-21.37a7.45,7.45,0,0,0-2.07-5.42c-6.49-6.46-12.61-10.38-18.69-12l-10.21-2.14c-11.28-2.26-37.65-7.52-39.93-10.27l-0.37-.85a16.91,16.91,0,0,1-.64-1.61,25.32,25.32,0,0,1,2.61-.4c5.31-.61,26.69,3.32,30.1,5.54l0.11,0.08,0.14,0.06c1.15,0.49,3.63.54,5.65-2.42l3-4c19.49-25.14,26.76-36.39,25.9-40.13l-1.54-1.73C440.28,113.86,432.62,110.62,412.18,117.38Z" transform="translate(-79.35 -102.56)"/><path class="cls-20" d="M440.51,120.5c-3.13.35-7.9,16-9.47,21.15-2.3,7.57-3,11.1-2.95,12.86a2,2,0,0,0,.8,2c1.06,0.82,3.48,1.16,10.14,1.93,3.74,0.43,9.77,1.13,11.51,1.87-0.76,6-17.64,79.37-20.08,83.51l-0.37.63,0.17,0.79c2.48,7.06,4.7,6.61,5.42,6.47,14.8-3,39.93-8.49,43-12.07a10.49,10.49,0,0,0,2.37-7.42c0-.67,0-1.32-0.07-2l0-3.45c0.17-1.11.56-6.45,1.12-13.83,1-13.45,3-40.41,4.24-46.11,2.71,0.52,9.83,2.13,15.8,3.47,18.75,4.25,18.91,4.19,19.68,3.94a1,1,0,0,0,.46.06c1.31,0.09,3.28.2,4.48-1.17a3.61,3.61,0,0,0,.57-3.42c-0.93-3.75-7.12-20.54-7.38-21.25l-0.28-.75-0.78-.25c-28.11-9-73.82-24-76.77-26.3l0.23,0.28a1.92,1.92,0,0,0-1.88-.94" transform="translate(-79.35 -102.56)"/><path class="cls-21" d="M440.51,120.5c-3.13.35-7.9,16-9.47,21.15-2.3,7.57-3,11.1-2.95,12.86a2,2,0,0,0,.8,2c1.06,0.82,3.48,1.16,10.14,1.93,3.74,0.43,9.77,1.13,11.51,1.87-0.76,6-17.64,79.37-20.08,83.51l-0.37.63,0.17,0.79c2.48,7.06,4.7,6.61,5.42,6.47,14.8-3,39.93-8.5,43-12.07a10.49,10.49,0,0,0,2.37-7.42c0-.67,0-1.32-0.07-2l0-3.45c0.17-1.11.56-6.45,1.12-13.83,1-13.45,3-40.41,4.24-46.11,2.71,0.52,9.83,2.13,15.8,3.47,18.75,4.25,18.91,4.19,19.68,3.94a1,1,0,0,0,.46.06c1.31,0.09,3.28.2,4.48-1.17a3.61,3.61,0,0,0,.57-3.42c-0.93-3.75-7.12-20.54-7.38-21.25l-0.28-.75-0.78-.25c-28.11-9-73.82-24-76.77-26.3l0.23,0.28A1.92,1.92,0,0,0,440.51,120.5Z" transform="translate(-79.35 -102.56)"/><path class="cls-20" d="M141.75,135.29c26.17,2.79,40,12.94,40.19,29.39,0,0.35,0,.69,0,1-0.36,14.39-12.47,22.52-18.45,25.67a92.08,92.08,0,0,0,10.75,8.55c8.41,6,11.46,13.52,11.52,20.34a24.06,24.06,0,0,1-2.2,10.23c-3.18,6.84-13,16.62-41.43,24.4L116,262.21c-10.7,3-10.89,3.1-12.45,2.08a3.06,3.06,0,0,1-1.37-2.38c-2.94-5.85-9.15-58.24-9.86-64.34l-0.58-4.84c-2-17.21-3.86-33.41-4-43.15a33.15,33.15,0,0,1,.49-7.18l0.39-1.73,1.81-.33c1.47-.27,36.16-6.67,51.28-5.05M128,234.34c1,0.56,26-10.14,26.21-13S124.43,218,124.43,218c-1.78.21,2.53,15.8,3.52,16.36m-1.81-61.5c0.8,0.76,22-14.1,22-15.63s-26.37-3.58-26.37-3.58,3.54,18.46,4.34,19.21" transform="translate(-79.35 -102.56)"/><path class="cls-21" d="M141.75,135.29c26.17,2.79,40,12.94,40.19,29.39,0,0.35,0,.69,0,1-0.36,14.39-12.47,22.52-18.45,25.67a92.11,92.11,0,0,0,10.75,8.55c8.41,6,11.46,13.52,11.52,20.34a24.07,24.07,0,0,1-2.2,10.23c-3.18,6.84-13,16.62-41.43,24.4L116,262.21c-10.7,3-10.89,3.1-12.45,2.08a3.06,3.06,0,0,1-1.37-2.38c-2.94-5.85-9.15-58.24-9.86-64.34l-0.58-4.84c-2-17.21-3.86-33.41-4-43.15a33.13,33.13,0,0,1,.49-7.18l0.39-1.73,1.81-.33C91.94,140.07,126.64,133.67,141.75,135.29ZM128,234.34c1,0.56,26-10.14,26.21-13S124.43,218,124.43,218C122.65,218.18,127,233.77,128,234.34Zm-1.81-61.5c0.8,0.76,22-14.1,22-15.63s-26.37-3.58-26.37-3.58S125.35,172.08,126.14,172.83Z" transform="translate(-79.35 -102.56)"/><path class="cls-22" d="M190.3,158h0c-11.13,12.84-14.91,29.19-11.22,48.59l0.23,1.35-0.16.24,5.62,18.55L185,227c12.31,15.16,28.52,18.55,49.57,10.38,17.36-6.74,28.74-24.37,33.8-52.4s-20.46-44.87-27.57-47.84c-6.34-2.65-30.09-2.62-50.46,20.89m17.35,29.93a12.49,12.49,0,0,1-.94-10.76c3.5-9.78,9-21.11,20.88-22h0.17l0.18,0c0.16,0,4-1,7.09,3.29,3.71,5.11,5.11,19.57,3.05,24.13l-0.11.26c-2.39,5.28-6.81,15.14-17.77,13-5.77-1.13-10.23-3.92-12.56-7.86" transform="translate(-79.35 -102.56)"/><path class="cls-23" d="M190.3,158h0c-11.13,12.84-14.91,29.19-11.22,48.59l0.23,1.35-0.16.24,5.62,18.55,0.19,0.24c12.31,15.16,28.52,18.55,49.57,10.38,17.36-6.74,28.74-24.37,33.8-52.4s-20.46-44.87-27.57-47.84C234.42,134.44,210.67,134.47,190.3,158Zm17.35,29.93a12.49,12.49,0,0,1-.94-10.76c3.5-9.78,9-21.11,20.88-22h0.17l0.18,0c0.16,0,4-1,7.09,3.29,3.71,5.11,5.11,19.57,3.05,24.13l-0.11.26c-2.39,5.28-6.81,15.14-17.77,13C214.44,194.63,210,191.84,207.65,187.91Z" transform="translate(-79.35 -102.56)"/><path class="cls-22" d="M263.59,170.91h0c-5,16-1.73,32.48,9.61,48.91L274,221l-0.06.28,12.76,14.91,0.29,0.15c17.51,9.26,33.81,6.22,49.79-9.29,13.19-12.78,16.42-33.3,9.6-61s-37.19-33.47-44.95-33.5c-6.92,0-28.73,9-37.81,38.36m28.21,20.92a12.82,12.82,0,0,1-5.27-9.53c-0.79-10.31-.36-22.83,10.18-28.13l0.15-.07L297,154c0.12-.1,3.23-2.44,7.87.34,5.49,3.28,12.71,16,12.69,21v0.28c0,5.76,0,16.5-11,18.68-5.77,1.14-11,.27-14.76-2.45" transform="translate(-79.35 -102.56)"/><path class="cls-23" d="M263.59,170.9h0c-5,16-1.73,32.48,9.61,48.91L274,221l-0.06.28,12.76,14.91,0.29,0.15c17.51,9.26,33.81,6.22,49.79-9.29,13.19-12.78,16.42-33.3,9.6-61s-37.19-33.47-44.95-33.5C294.48,132.53,272.67,141.57,263.59,170.9Zm28.21,20.92a12.82,12.82,0,0,1-5.27-9.53c-0.79-10.31-.36-22.83,10.18-28.13l0.15-.07L297,154c0.12-.1,3.23-2.44,7.87.34,5.49,3.28,12.71,16,12.69,21v0.28c0,5.76,0,16.5-11,18.68C300.79,195.42,295.55,194.55,291.8,191.82Z" transform="translate(-79.35 -102.56)"/><path class="cls-22" d="M412.18,117.38L408,118.74c-18.81,6.2-36.57,12-46.46,21.17l-5.23,4.6c-6.47,5.52-12.65,10.82-12.57,17.72a14.24,14.24,0,0,0,2,6.91c5.47,9.83,20.22,14.4,32.08,18.07l21,6.74c4.69,1.44,10.31,3.18,12.48,4.18-1.46,1.94-5.69,5.95-14.24,8.26-10.73,2.89-35.22,2.79-39.89,1l-2.15-.86c-2.85-1.17-4.57-1.87-6.24,1.42-0.43.87-4.25,6.41-7.92,11.77-11.68,17-12.16,17.95-12.15,18.86,0,1.44,1.42,6.18,4.42,6.16,1.94,0,34.64-5.25,46.68-8.47,11.56-3.1,54.6-21.39,57.65-25.06,0.13-.16,10.14-12.63,10.05-21.37a7.45,7.45,0,0,0-2.07-5.42c-6.49-6.46-12.61-10.38-18.69-12l-10.21-2.14c-11.28-2.25-37.65-7.52-39.93-10.27l-0.37-.85a16.85,16.85,0,0,1-.64-1.61,25.32,25.32,0,0,1,2.61-.4c5.31-.61,26.69,3.32,30.1,5.54l0.11,0.08,0.14,0.06c1.15,0.49,3.63.54,5.65-2.42l3-4c19.49-25.14,26.76-36.39,25.9-40.13l-1.54-1.73c-1.34-.72-9-4-29.44,2.8" transform="translate(-79.35 -102.56)"/><path class="cls-23" d="M412.18,117.38L408,118.74c-18.81,6.2-36.57,12-46.46,21.17l-5.23,4.6c-6.47,5.52-12.65,10.82-12.57,17.72a14.24,14.24,0,0,0,2,6.91c5.47,9.83,20.22,14.4,32.08,18.07l21,6.74c4.69,1.44,10.31,3.18,12.48,4.18-1.46,1.94-5.69,5.95-14.24,8.26-10.73,2.89-35.22,2.79-39.89,1l-2.15-.86c-2.85-1.17-4.57-1.87-6.24,1.42-0.43.87-4.25,6.41-7.92,11.77-11.68,17-12.16,17.95-12.15,18.86,0,1.44,1.42,6.18,4.42,6.16,1.94,0,34.64-5.25,46.68-8.47,11.56-3.1,54.6-21.39,57.65-25.06,0.13-.16,10.14-12.63,10.06-21.37a7.45,7.45,0,0,0-2.07-5.42c-6.49-6.46-12.61-10.38-18.69-12l-10.21-2.14c-11.28-2.26-37.65-7.52-39.93-10.27l-0.37-.85a16.91,16.91,0,0,1-.64-1.61,25.32,25.32,0,0,1,2.61-.4c5.31-.61,26.69,3.32,30.1,5.54l0.11,0.08,0.14,0.06c1.15,0.49,3.63.54,5.65-2.42l3-4c19.49-25.14,26.76-36.39,25.9-40.13l-1.54-1.73C440.28,113.86,432.62,110.62,412.18,117.38Z" transform="translate(-79.35 -102.56)"/><path class="cls-22" d="M440.51,120.5c-3.13.35-7.9,16-9.47,21.15-2.3,7.57-3,11.1-2.95,12.86a2,2,0,0,0,.8,2c1.06,0.82,3.48,1.16,10.14,1.93,3.74,0.43,9.77,1.13,11.51,1.87-0.76,6-17.64,79.37-20.08,83.51l-0.37.63,0.17,0.79c2.48,7.06,4.7,6.61,5.42,6.47,14.8-3,39.93-8.49,43-12.07a10.49,10.49,0,0,0,2.37-7.42c0-.67,0-1.32-0.07-2l0-3.45c0.17-1.11.56-6.45,1.12-13.83,1-13.45,3-40.41,4.24-46.11,2.71,0.52,9.83,2.13,15.8,3.47,18.75,4.25,18.91,4.19,19.68,3.94a1,1,0,0,0,.46.06c1.31,0.09,3.28.2,4.48-1.17a3.61,3.61,0,0,0,.57-3.42c-0.93-3.75-7.12-20.54-7.38-21.25l-0.28-.75-0.78-.25c-28.11-9-73.82-24-76.77-26.3l0.23,0.28a1.92,1.92,0,0,0-1.88-.94" transform="translate(-79.35 -102.56)"/><path class="cls-23" d="M440.51,120.5c-3.13.35-7.9,16-9.47,21.15-2.3,7.57-3,11.1-2.95,12.86a2,2,0,0,0,.8,2c1.06,0.82,3.48,1.16,10.14,1.93,3.74,0.43,9.77,1.13,11.51,1.87-0.76,6-17.64,79.37-20.08,83.51l-0.37.63,0.17,0.79c2.48,7.06,4.7,6.61,5.42,6.47,14.8-3,39.93-8.5,43-12.07a10.49,10.49,0,0,0,2.37-7.42c0-.67,0-1.32-0.07-2l0-3.45c0.17-1.11.56-6.45,1.12-13.83,1-13.45,3-40.41,4.24-46.11,2.71,0.52,9.83,2.13,15.8,3.47,18.75,4.25,18.91,4.19,19.68,3.94a1,1,0,0,0,.46.06c1.31,0.09,3.28.2,4.48-1.17a3.61,3.61,0,0,0,.57-3.42c-0.93-3.75-7.12-20.54-7.38-21.25l-0.28-.75-0.78-.25c-28.11-9-73.82-24-76.77-26.3l0.23,0.28A1.92,1.92,0,0,0,440.51,120.5Z" transform="translate(-79.35 -102.56)"/><path class="cls-22" d="M141.75,135.29c26.17,2.79,40,12.94,40.19,29.39,0,0.35,0,.69,0,1-0.36,14.39-12.47,22.52-18.45,25.67a92.08,92.08,0,0,0,10.75,8.55c8.41,6,11.46,13.52,11.52,20.34a24.06,24.06,0,0,1-2.2,10.23c-3.18,6.84-13,16.62-41.43,24.4L116,262.21c-10.7,3-10.89,3.1-12.45,2.08a3.06,3.06,0,0,1-1.37-2.38c-2.94-5.85-9.15-58.24-9.86-64.34l-0.58-4.84c-2-17.21-3.86-33.41-4-43.15a33.15,33.15,0,0,1,.49-7.18l0.39-1.73,1.81-.33c1.47-.27,36.16-6.67,51.28-5.05M128,234.34c1,0.56,26-10.14,26.21-13S124.43,218,124.43,218c-1.78.21,2.53,15.8,3.52,16.36m-1.81-61.5c0.8,0.76,22-14.1,22-15.63s-26.37-3.58-26.37-3.58,3.54,18.46,4.34,19.21" transform="translate(-79.35 -102.56)"/><path class="cls-23" d="M141.75,135.29c26.17,2.79,40,12.94,40.19,29.39,0,0.35,0,.69,0,1-0.36,14.39-12.47,22.52-18.45,25.67a92.11,92.11,0,0,0,10.75,8.55c8.41,6,11.46,13.52,11.52,20.34a24.07,24.07,0,0,1-2.2,10.23c-3.18,6.84-13,16.62-41.43,24.4L116,262.21c-10.7,3-10.89,3.1-12.45,2.08a3.06,3.06,0,0,1-1.37-2.38c-2.94-5.85-9.15-58.24-9.86-64.34l-0.58-4.84c-2-17.21-3.86-33.41-4-43.15a33.13,33.13,0,0,1,.49-7.18l0.39-1.73,1.81-.33C91.94,140.07,126.64,133.67,141.75,135.29ZM128,234.34c1,0.56,26-10.14,26.21-13S124.43,218,124.43,218C122.65,218.18,127,233.77,128,234.34Zm-1.81-61.5c0.8,0.76,22-14.1,22-15.63s-26.37-3.58-26.37-3.58S125.35,172.08,126.14,172.83Z" transform="translate(-79.35 -102.56)"/><path class="cls-24" d="M190.3,158h0c-11.13,12.84-14.91,29.19-11.22,48.59l0.23,1.35-0.16.24,5.62,18.55L185,227c12.31,15.16,28.52,18.55,49.57,10.38,17.36-6.74,28.74-24.37,33.8-52.4s-20.46-44.87-27.57-47.84c-6.34-2.65-30.09-2.62-50.46,20.89m17.35,29.93a12.49,12.49,0,0,1-.94-10.76c3.5-9.78,9-21.11,20.88-22h0.17l0.18,0c0.16,0,4-1,7.09,3.29,3.71,5.11,5.11,19.57,3.05,24.13l-0.11.26c-2.39,5.28-6.81,15.14-17.77,13-5.77-1.13-10.23-3.92-12.56-7.86" transform="translate(-79.35 -102.56)"/><path class="cls-25" d="M190.3,158h0c-11.13,12.84-14.91,29.19-11.22,48.59l0.23,1.35-0.16.24,5.62,18.55,0.19,0.24c12.31,15.16,28.52,18.55,49.57,10.38,17.36-6.74,28.74-24.37,33.8-52.4s-20.46-44.87-27.57-47.84C234.42,134.44,210.67,134.47,190.3,158Zm17.35,29.93a12.49,12.49,0,0,1-.94-10.76c3.5-9.78,9-21.11,20.88-22h0.17l0.18,0c0.16,0,4-1,7.09,3.29,3.71,5.11,5.11,19.57,3.05,24.13l-0.11.26c-2.39,5.28-6.81,15.14-17.77,13C214.44,194.63,210,191.84,207.65,187.91Z" transform="translate(-79.35 -102.56)"/><path class="cls-24" d="M263.59,170.91h0c-5,16-1.73,32.48,9.61,48.91L274,221l-0.06.28,12.76,14.91,0.29,0.15c17.51,9.26,33.81,6.22,49.79-9.29,13.19-12.78,16.42-33.3,9.6-61s-37.19-33.47-44.95-33.5c-6.92,0-28.73,9-37.81,38.36m28.21,20.92a12.82,12.82,0,0,1-5.27-9.53c-0.79-10.31-.36-22.83,10.18-28.13l0.15-.07L297,154c0.12-.1,3.23-2.44,7.87.34,5.49,3.28,12.71,16,12.69,21v0.28c0,5.76,0,16.5-11,18.68-5.77,1.14-11,.27-14.76-2.45" transform="translate(-79.35 -102.56)"/><path class="cls-25" d="M263.59,170.9h0c-5,16-1.73,32.48,9.61,48.91L274,221l-0.06.28,12.76,14.91,0.29,0.15c17.51,9.26,33.81,6.22,49.79-9.29,13.19-12.78,16.42-33.3,9.6-61s-37.19-33.47-44.95-33.5C294.48,132.53,272.67,141.57,263.59,170.9Zm28.21,20.92a12.82,12.82,0,0,1-5.27-9.53c-0.79-10.31-.36-22.83,10.18-28.13l0.15-.07L297,154c0.12-.1,3.23-2.44,7.87.34,5.49,3.28,12.71,16,12.69,21v0.28c0,5.76,0,16.5-11,18.68C300.79,195.42,295.55,194.55,291.8,191.82Z" transform="translate(-79.35 -102.56)"/><path class="cls-24" d="M412.18,117.38L408,118.74c-18.81,6.2-36.57,12-46.46,21.17l-5.23,4.6c-6.47,5.52-12.65,10.82-12.57,17.72a14.24,14.24,0,0,0,2,6.91c5.47,9.83,20.22,14.4,32.08,18.07l21,6.74c4.69,1.44,10.31,3.18,12.48,4.18-1.46,1.94-5.69,5.95-14.24,8.26-10.73,2.89-35.22,2.79-39.89,1l-2.15-.86c-2.85-1.17-4.57-1.87-6.24,1.42-0.43.87-4.25,6.41-7.92,11.77-11.68,17-12.16,17.95-12.15,18.86,0,1.44,1.42,6.18,4.42,6.16,1.94,0,34.64-5.25,46.68-8.47,11.56-3.1,54.6-21.39,57.65-25.06,0.13-.16,10.14-12.63,10.05-21.37a7.45,7.45,0,0,0-2.07-5.42c-6.49-6.46-12.61-10.38-18.69-12l-10.21-2.14c-11.28-2.25-37.65-7.52-39.93-10.27l-0.37-.85a16.85,16.85,0,0,1-.64-1.61,25.32,25.32,0,0,1,2.61-.4c5.31-.61,26.69,3.32,30.1,5.54l0.11,0.08,0.14,0.06c1.15,0.49,3.63.54,5.65-2.42l3-4c19.49-25.14,26.76-36.39,25.9-40.13l-1.54-1.73c-1.34-.72-9-4-29.44,2.8" transform="translate(-79.35 -102.56)"/><path class="cls-25" d="M412.18,117.38L408,118.74c-18.81,6.2-36.57,12-46.46,21.17l-5.23,4.6c-6.47,5.52-12.65,10.82-12.57,17.72a14.24,14.24,0,0,0,2,6.91c5.47,9.83,20.22,14.4,32.08,18.07l21,6.74c4.69,1.44,10.31,3.18,12.48,4.18-1.46,1.94-5.69,5.95-14.24,8.26-10.73,2.89-35.22,2.79-39.89,1l-2.15-.86c-2.85-1.17-4.57-1.87-6.24,1.42-0.43.87-4.25,6.41-7.92,11.77-11.68,17-12.16,17.95-12.15,18.86,0,1.44,1.42,6.18,4.42,6.16,1.94,0,34.64-5.25,46.68-8.47,11.56-3.1,54.6-21.39,57.65-25.06,0.13-.16,10.14-12.63,10.06-21.37a7.45,7.45,0,0,0-2.07-5.42c-6.49-6.46-12.61-10.38-18.69-12l-10.21-2.14c-11.28-2.26-37.65-7.52-39.93-10.27l-0.37-.85a16.91,16.91,0,0,1-.64-1.61,25.32,25.32,0,0,1,2.61-.4c5.31-.61,26.69,3.32,30.1,5.54l0.11,0.08,0.14,0.06c1.15,0.49,3.63.54,5.65-2.42l3-4c19.49-25.14,26.76-36.39,25.9-40.13l-1.54-1.73C440.28,113.86,432.62,110.62,412.18,117.38Z" transform="translate(-79.35 -102.56)"/><path class="cls-24" d="M440.51,120.5c-3.13.35-7.9,16-9.47,21.15-2.3,7.57-3,11.1-2.95,12.86a2,2,0,0,0,.8,2c1.06,0.82,3.48,1.16,10.14,1.93,3.74,0.43,9.77,1.13,11.51,1.87-0.76,6-17.64,79.37-20.08,83.51l-0.37.63,0.17,0.79c2.48,7.06,4.7,6.61,5.42,6.47,14.8-3,39.93-8.49,43-12.07a10.49,10.49,0,0,0,2.37-7.42c0-.67,0-1.32-0.07-2l0-3.45c0.17-1.11.56-6.45,1.12-13.83,1-13.45,3-40.41,4.24-46.11,2.71,0.52,9.83,2.13,15.8,3.47,18.75,4.25,18.91,4.19,19.68,3.94a1,1,0,0,0,.46.06c1.31,0.09,3.28.2,4.48-1.17a3.61,3.61,0,0,0,.57-3.42c-0.93-3.75-7.12-20.54-7.38-21.25l-0.28-.75-0.78-.25c-28.11-9-73.82-24-76.77-26.3l0.23,0.28a1.92,1.92,0,0,0-1.88-.94" transform="translate(-79.35 -102.56)"/><path class="cls-25" d="M440.51,120.5c-3.13.35-7.9,16-9.47,21.15-2.3,7.57-3,11.1-2.95,12.86a2,2,0,0,0,.8,2c1.06,0.82,3.48,1.16,10.14,1.93,3.74,0.43,9.77,1.13,11.51,1.87-0.76,6-17.64,79.37-20.08,83.51l-0.37.63,0.17,0.79c2.48,7.06,4.7,6.61,5.42,6.47,14.8-3,39.93-8.5,43-12.07a10.49,10.49,0,0,0,2.37-7.42c0-.67,0-1.32-0.07-2l0-3.45c0.17-1.11.56-6.45,1.12-13.83,1-13.45,3-40.41,4.24-46.11,2.71,0.52,9.83,2.13,15.8,3.47,18.75,4.25,18.91,4.19,19.68,3.94a1,1,0,0,0,.46.06c1.31,0.09,3.28.2,4.48-1.17a3.61,3.61,0,0,0,.57-3.42c-0.93-3.75-7.12-20.54-7.38-21.25l-0.28-.75-0.78-.25c-28.11-9-73.82-24-76.77-26.3l0.23,0.28A1.92,1.92,0,0,0,440.51,120.5Z" transform="translate(-79.35 -102.56)"/><path class="cls-24" d="M141.75,135.29c26.17,2.79,40,12.94,40.19,29.39,0,0.35,0,.69,0,1-0.36,14.39-12.47,22.52-18.45,25.67a92.08,92.08,0,0,0,10.75,8.55c8.41,6,11.46,13.52,11.52,20.34a24.06,24.06,0,0,1-2.2,10.23c-3.18,6.84-13,16.62-41.43,24.4L116,262.21c-10.7,3-10.89,3.1-12.45,2.08a3.06,3.06,0,0,1-1.37-2.38c-2.94-5.85-9.15-58.24-9.86-64.34l-0.58-4.84c-2-17.21-3.86-33.41-4-43.15a33.15,33.15,0,0,1,.49-7.18l0.39-1.73,1.81-.33c1.47-.27,36.16-6.67,51.28-5.05M128,234.34c1,0.56,26-10.14,26.21-13S124.43,218,124.43,218c-1.78.21,2.53,15.8,3.52,16.36m-1.81-61.5c0.8,0.76,22-14.1,22-15.63s-26.37-3.58-26.37-3.58,3.54,18.46,4.34,19.21" transform="translate(-79.35 -102.56)"/><path class="cls-25" d="M141.75,135.29c26.17,2.79,40,12.94,40.19,29.39,0,0.35,0,.69,0,1-0.36,14.39-12.47,22.52-18.45,25.67a92.11,92.11,0,0,0,10.75,8.55c8.41,6,11.46,13.52,11.52,20.34a24.07,24.07,0,0,1-2.2,10.23c-3.18,6.84-13,16.62-41.43,24.4L116,262.21c-10.7,3-10.89,3.1-12.45,2.08a3.06,3.06,0,0,1-1.37-2.38c-2.94-5.85-9.15-58.24-9.86-64.34l-0.58-4.84c-2-17.21-3.86-33.41-4-43.15a33.13,33.13,0,0,1,.49-7.18l0.39-1.73,1.81-.33C91.94,140.07,126.64,133.67,141.75,135.29ZM128,234.34c1,0.56,26-10.14,26.21-13S124.43,218,124.43,218C122.65,218.18,127,233.77,128,234.34Zm-1.81-61.5c0.8,0.76,22-14.1,22-15.63s-26.37-3.58-26.37-3.58S125.35,172.08,126.14,172.83Z" transform="translate(-79.35 -102.56)"/><path class="cls-26" d="M190.3,158h0c-11.13,12.84-14.91,29.19-11.22,48.59l0.23,1.35-0.16.24,5.62,18.55L185,227c12.31,15.16,28.52,18.55,49.57,10.38,17.36-6.74,28.74-24.37,33.8-52.4s-20.46-44.87-27.57-47.84c-6.34-2.65-30.09-2.62-50.46,20.89m17.35,29.93a12.49,12.49,0,0,1-.94-10.76c3.5-9.78,9-21.11,20.88-22h0.17l0.18,0c0.16,0,4-1,7.09,3.29,3.71,5.11,5.11,19.57,3.05,24.13l-0.11.26c-2.39,5.28-6.81,15.14-17.77,13-5.77-1.13-10.23-3.92-12.56-7.86" transform="translate(-79.35 -102.56)"/><path class="cls-27" d="M190.3,158h0c-11.13,12.84-14.91,29.19-11.22,48.59l0.23,1.35-0.16.24,5.62,18.55,0.19,0.24c12.31,15.16,28.52,18.55,49.57,10.38,17.36-6.74,28.74-24.37,33.8-52.4s-20.46-44.87-27.57-47.84C234.42,134.44,210.67,134.47,190.3,158Zm17.35,29.93a12.49,12.49,0,0,1-.94-10.76c3.5-9.78,9-21.11,20.88-22h0.17l0.18,0c0.16,0,4-1,7.09,3.29,3.71,5.11,5.11,19.57,3.05,24.13l-0.11.26c-2.39,5.28-6.81,15.14-17.77,13C214.44,194.63,210,191.84,207.65,187.91Z" transform="translate(-79.35 -102.56)"/><path class="cls-26" d="M263.59,170.91h0c-5,16-1.73,32.48,9.61,48.91L274,221l-0.06.28,12.76,14.91,0.29,0.15c17.51,9.26,33.81,6.22,49.79-9.29,13.19-12.78,16.42-33.3,9.6-61s-37.19-33.47-44.95-33.5c-6.92,0-28.73,9-37.81,38.36m28.21,20.92a12.82,12.82,0,0,1-5.27-9.53c-0.79-10.31-.36-22.83,10.18-28.13l0.15-.07L297,154c0.12-.1,3.23-2.44,7.87.34,5.49,3.28,12.71,16,12.69,21v0.28c0,5.76,0,16.5-11,18.68-5.77,1.14-11,.27-14.76-2.45" transform="translate(-79.35 -102.56)"/><path class="cls-27" d="M263.59,170.9h0c-5,16-1.73,32.48,9.61,48.91L274,221l-0.06.28,12.76,14.91,0.29,0.15c17.51,9.26,33.81,6.22,49.79-9.29,13.19-12.78,16.42-33.3,9.6-61s-37.19-33.47-44.95-33.5C294.48,132.53,272.67,141.57,263.59,170.9Zm28.21,20.92a12.82,12.82,0,0,1-5.27-9.53c-0.79-10.31-.36-22.83,10.18-28.13l0.15-.07L297,154c0.12-.1,3.23-2.44,7.87.34,5.49,3.28,12.71,16,12.69,21v0.28c0,5.76,0,16.5-11,18.68C300.79,195.42,295.55,194.55,291.8,191.82Z" transform="translate(-79.35 -102.56)"/><path class="cls-26" d="M412.18,117.38L408,118.74c-18.81,6.2-36.57,12-46.46,21.17l-5.23,4.6c-6.47,5.52-12.65,10.82-12.57,17.72a14.24,14.24,0,0,0,2,6.91c5.47,9.83,20.22,14.4,32.08,18.07l21,6.74c4.69,1.44,10.31,3.18,12.48,4.18-1.46,1.94-5.69,5.95-14.24,8.26-10.73,2.89-35.22,2.79-39.89,1l-2.15-.86c-2.85-1.17-4.57-1.87-6.24,1.42-0.43.87-4.25,6.41-7.92,11.77-11.68,17-12.16,17.95-12.15,18.86,0,1.44,1.42,6.18,4.42,6.16,1.94,0,34.64-5.25,46.68-8.47,11.56-3.1,54.6-21.39,57.65-25.06,0.13-.16,10.14-12.63,10.05-21.37a7.45,7.45,0,0,0-2.07-5.42c-6.49-6.46-12.61-10.38-18.69-12l-10.21-2.14c-11.28-2.25-37.65-7.52-39.93-10.27l-0.37-.85a16.85,16.85,0,0,1-.64-1.61,25.32,25.32,0,0,1,2.61-.4c5.31-.61,26.69,3.32,30.1,5.54l0.11,0.08,0.14,0.06c1.15,0.49,3.63.54,5.65-2.42l3-4c19.49-25.14,26.76-36.39,25.9-40.13l-1.54-1.73c-1.34-.72-9-4-29.44,2.8" transform="translate(-79.35 -102.56)"/><path class="cls-27" d="M412.18,117.38L408,118.74c-18.81,6.2-36.57,12-46.46,21.17l-5.23,4.6c-6.47,5.52-12.65,10.82-12.57,17.72a14.24,14.24,0,0,0,2,6.91c5.47,9.83,20.22,14.4,32.08,18.07l21,6.74c4.69,1.44,10.31,3.18,12.48,4.18-1.46,1.94-5.69,5.95-14.24,8.26-10.73,2.89-35.22,2.79-39.89,1l-2.15-.86c-2.85-1.17-4.57-1.87-6.24,1.42-0.43.87-4.25,6.41-7.92,11.77-11.68,17-12.16,17.95-12.15,18.86,0,1.44,1.42,6.18,4.42,6.16,1.94,0,34.64-5.25,46.68-8.47,11.56-3.1,54.6-21.39,57.65-25.06,0.13-.16,10.14-12.63,10.06-21.37a7.45,7.45,0,0,0-2.07-5.42c-6.49-6.46-12.61-10.38-18.69-12l-10.21-2.14c-11.28-2.26-37.65-7.52-39.93-10.27l-0.37-.85a16.91,16.91,0,0,1-.64-1.61,25.32,25.32,0,0,1,2.61-.4c5.31-.61,26.69,3.32,30.1,5.54l0.11,0.08,0.14,0.06c1.15,0.49,3.63.54,5.65-2.42l3-4c19.49-25.14,26.76-36.39,25.9-40.13l-1.54-1.73C440.28,113.86,432.62,110.62,412.18,117.38Z" transform="translate(-79.35 -102.56)"/><path class="cls-26" d="M440.51,120.5c-3.13.35-7.9,16-9.47,21.15-2.3,7.57-3,11.1-2.95,12.86a2,2,0,0,0,.8,2c1.06,0.82,3.48,1.16,10.14,1.93,3.74,0.43,9.77,1.13,11.51,1.87-0.76,6-17.64,79.37-20.08,83.51l-0.37.63,0.17,0.79c2.48,7.06,4.7,6.61,5.42,6.47,14.8-3,39.93-8.49,43-12.07a10.49,10.49,0,0,0,2.37-7.42c0-.67,0-1.32-0.07-2l0-3.45c0.17-1.11.56-6.45,1.12-13.83,1-13.45,3-40.41,4.24-46.11,2.71,0.52,9.83,2.13,15.8,3.47,18.75,4.25,18.91,4.19,19.68,3.94a1,1,0,0,0,.46.06c1.31,0.09,3.28.2,4.48-1.17a3.61,3.61,0,0,0,.57-3.42c-0.93-3.75-7.12-20.54-7.38-21.25l-0.28-.75-0.78-.25c-28.11-9-73.82-24-76.77-26.3l0.23,0.28a1.92,1.92,0,0,0-1.88-.94" transform="translate(-79.35 -102.56)"/><path class="cls-27" d="M440.51,120.5c-3.13.35-7.9,16-9.47,21.15-2.3,7.57-3,11.1-2.95,12.86a2,2,0,0,0,.8,2c1.06,0.82,3.48,1.16,10.14,1.93,3.74,0.43,9.77,1.13,11.51,1.87-0.76,6-17.64,79.37-20.08,83.51l-0.37.63,0.17,0.79c2.48,7.06,4.7,6.61,5.42,6.47,14.8-3,39.93-8.5,43-12.07a10.49,10.49,0,0,0,2.37-7.42c0-.67,0-1.32-0.07-2l0-3.45c0.17-1.11.56-6.45,1.12-13.83,1-13.45,3-40.41,4.24-46.11,2.71,0.52,9.83,2.13,15.8,3.47,18.75,4.25,18.91,4.19,19.68,3.94a1,1,0,0,0,.46.06c1.31,0.09,3.28.2,4.48-1.17a3.61,3.61,0,0,0,.57-3.42c-0.93-3.75-7.12-20.54-7.38-21.25l-0.28-.75-0.78-.25c-28.11-9-73.82-24-76.77-26.3l0.23,0.28A1.92,1.92,0,0,0,440.51,120.5Z" transform="translate(-79.35 -102.56)"/><path class="cls-26" d="M141.75,135.29c26.17,2.79,40,12.94,40.19,29.39,0,0.35,0,.69,0,1-0.36,14.39-12.47,22.52-18.45,25.67a92.08,92.08,0,0,0,10.75,8.55c8.41,6,11.46,13.52,11.52,20.34a24.06,24.06,0,0,1-2.2,10.23c-3.18,6.84-13,16.62-41.43,24.4L116,262.21c-10.7,3-10.89,3.1-12.45,2.08a3.06,3.06,0,0,1-1.37-2.38c-2.94-5.85-9.15-58.24-9.86-64.34l-0.58-4.84c-2-17.21-3.86-33.41-4-43.15a33.15,33.15,0,0,1,.49-7.18l0.39-1.73,1.81-.33c1.47-.27,36.16-6.67,51.28-5.05M128,234.34c1,0.56,26-10.14,26.21-13S124.43,218,124.43,218c-1.78.21,2.53,15.8,3.52,16.36m-1.81-61.5c0.8,0.76,22-14.1,22-15.63s-26.37-3.58-26.37-3.58,3.54,18.46,4.34,19.21" transform="translate(-79.35 -102.56)"/><path class="cls-27" d="M141.75,135.29c26.17,2.79,40,12.94,40.19,29.39,0,0.35,0,.69,0,1-0.36,14.39-12.47,22.52-18.45,25.67a92.11,92.11,0,0,0,10.75,8.55c8.41,6,11.46,13.52,11.52,20.34a24.07,24.07,0,0,1-2.2,10.23c-3.18,6.84-13,16.62-41.43,24.4L116,262.21c-10.7,3-10.89,3.1-12.45,2.08a3.06,3.06,0,0,1-1.37-2.38c-2.94-5.85-9.15-58.24-9.86-64.34l-0.58-4.84c-2-17.21-3.86-33.41-4-43.15a33.13,33.13,0,0,1,.49-7.18l0.39-1.73,1.81-.33C91.94,140.07,126.64,133.67,141.75,135.29ZM128,234.34c1,0.56,26-10.14,26.21-13S124.43,218,124.43,218C122.65,218.18,127,233.77,128,234.34Zm-1.81-61.5c0.8,0.76,22-14.1,22-15.63s-26.37-3.58-26.37-3.58S125.35,172.08,126.14,172.83Z" transform="translate(-79.35 -102.56)"/><path class="cls-2" d="M194.44,150.94h0c-11.32,12.76-15.27,29.09-11.76,48.56l0.22,1.35-0.16.24,5.47,18.62,0.19,0.25c12.23,15.29,28.51,18.83,49.77,10.83,17.53-6.6,29.14-24.15,34.51-52.17s-20.14-45.12-27.27-48.15c-6.36-2.71-30.25-2.89-51,20.47m17.16,30.13a12.46,12.46,0,0,1-.84-10.78c3.61-9.76,9.3-21.06,21.22-21.83h0.17l0.18,0c0.16,0,4-1,7.1,3.36,3.68,5.15,4.95,19.64,2.84,24.19l-0.12.26c-2.45,5.27-7,15.1-18,12.84-5.79-1.19-10.25-4-12.56-8" transform="translate(-79.35 -102.56)"/><path class="cls-1" d="M183,199.2c1.79,2.86-9-25.76,11.35-48.67s43.62-22.33,49-20,31.67,18.32,26.29,46.37-16.73,44.66-33.46,51-34.06,6.87-47.81-10.3Zm24.8-30.91c-3.29,8.87,2.09,18.32,14.64,20.9s17.63-8.87,20-14,0.9-20.32-3-25.76-9-4-9-4c-13.44.86-19.42,14-22.71,22.9" transform="translate(-79.35 -102.56)"/><path class="cls-28" d="M232.35,138.22s6,0,9.56,2.58,26,15.75,19.12,40.65-26.89,38.64-26.89,38.64-3.59-10-2.69-25.19c0,0,11.95-6.87,15.23-15.74s4.19-20.61-1.19-28.63A23.77,23.77,0,0,0,232,140.8Z" transform="translate(-79.35 -102.56)"/><path class="cls-28" d="M198.58,157.12c-6.27,8-15.83,20.9-9.86,41.51s8.36,23.47,17,27.19,20.91,0.57,27.49-4.87c0,0-6.27-23.76-3-26.05,0,0-6,4.3-18.53-.57s-14-31.77-1.79-41.79,20.32-11.45,20.32-11.45v-2.58s-25.4,10.59-31.67,18.61" transform="translate(-79.35 -102.56)"/><path class="cls-2" d="M268,164.54h0c-5.15,16-2.05,32.51,9.19,49.07l0.76,1.16L278,215l12.69,15,0.28,0.15c17.53,9.43,34,6.53,50.19-8.86,13.39-12.69,16.84-33.2,10.24-61s-37.09-33.84-44.89-33.94c-7-.08-29,8.78-38.41,38.08m28.17,21.2a12.8,12.8,0,0,1-5.2-9.59c-0.7-10.34-.13-22.87,10.52-28.08l0.15-.07,0.15-.11c0.13-.1,3.28-2.41,7.91.4,5.49,3.35,12.63,16.18,12.56,21.16v0.28c-0.07,5.77-.21,16.52-11.24,18.6-5.82,1.1-11.08.18-14.83-2.59" transform="translate(-79.35 -102.56)"/><path class="cls-1" d="M277.94,212.57c2.82,2-18.85-20.29-9.6-49s30.89-37,36.78-36.93,36.64,4.87,43.24,32.68,3,47.36-9.77,59.47-28.46,19.19-48.17,8.6ZM288,174.78c0.63,9.4,9.47,16,22.06,13.67S322.6,173.64,322.67,168s-7.54-19-13.35-22.54-9.89-.3-9.89-0.3c-12,5.87-12.07,20.23-11.44,29.63" transform="translate(-79.35 -102.56)"/><path class="cls-28" d="M298.14,137.9s5.49-2.26,9.85-1.25,30.37,4.65,34.3,30.13-8.8,45.67-8.8,45.67-7.42-7.85-12.84-22.13c0,0,8.16-10.83,7.52-20.22s-4.64-20.52-12.89-25.85a24.56,24.56,0,0,0-16.35-3.86Z" transform="translate(-79.35 -102.56)"/><path class="cls-28" d="M273.42,168c-2.47,9.74-6,25.19,8,41.87s17.35,18.4,26.85,18.55,19.46-7.38,23.26-14.86c0,0-15.55-19.46-13.47-22.81,0,0-3.72,6.21-17.25,6.48s-26-23.89-18.85-37.73,14-18.2,14-18.2L294.86,139s-19,19.33-21.44,29.07" transform="translate(-79.35 -102.56)"/><path class="cls-2" d="M418.06,112.26l-4.19,1.33c-19,6-36.92,11.73-46.95,20.78l-5.31,4.57c-6.56,5.47-12.83,10.72-12.83,17.63a14.34,14.34,0,0,0,2,6.94c5.42,9.9,20.22,14.6,32.1,18.38l21,6.94c4.71,1.49,10.35,3.28,12.52,4.29-1.48,1.94-5.77,5.91-14.4,8.14-10.83,2.8-35.46,2.49-40.14.64l-2.15-.88c-2.86-1.19-4.57-1.91-6.29,1.37-0.45.86-4.33,6.38-8.09,11.72C333.44,231,332.94,232,332.94,232.88c0,1.45,1.36,6.2,4.39,6.2,2,0,34.9-4.95,47-8.07,11.66-3,55.13-20.93,58.24-24.59,0.14-.15,10.32-12.56,10.32-21.31a7.43,7.43,0,0,0-2-5.45c-6.47-6.52-12.58-10.51-18.69-12.18L422,165.25c-11.32-2.35-37.8-7.86-40.06-10.64l-0.36-.86c-0.27-.61-0.5-1.2-0.63-1.62,0.72-.17,2-0.31,2.63-0.38,5.36-.57,26.82,3.56,30.22,5.81l0.12,0.08,0.14,0.06c1.15,0.5,3.65.57,5.7-2.37l3.08-3.93c19.85-25,27.27-36.21,26.45-40l-1.54-1.74c-1.33-.74-9-4-29.63,2.54" transform="translate(-79.35 -102.56)"/><path class="cls-29" d="M446.25,110.33c-0.25-1.16-8.36-4.58-29,2s-40,12.31-50.49,21.76-22.11,15.74-15.83,27.2,26.59,15.74,38.54,20,28.39,8.59,27.79,10-5.08,7.16-16.14,10-36.15,2.57-41.23.57-5.08-2.58-6.27-.29-20.32,28.63-20.32,29.77S334.51,236,336,236s34.36-4.87,46.61-8,54.67-20.9,57.36-24,14-18.89,8.37-24.62-11.66-10-17.92-11.74-49.6-9.45-51.4-13.74-2.39-4.58,3-5.16,27.48,3.51,31.37,6.09c0,0,1.79.78,3.58-1.79s30.47-37.22,29.28-42.65" transform="translate(-79.35 -102.56)"/><path class="cls-30" d="M357.21,153.27c3-4.63,24.2-18.9,33.76-22.33s43-14,43-12.6S414.58,149.26,412.79,149s-25.4-9.16-31.07-6.3-15.24,7.44-12,12.88,24.51,12.6,40.64,16.89,32.86,12.31,32,14-1.49,13.16-34.35,25.76a352,352,0,0,1-59.46,17.17l11.95-21.75s20.92,4.29,37.35-.57,32.87-10.88,25.69-17.17S391.87,177,386.19,174.45s-34.06-13.45-29-21.18" transform="translate(-79.35 -102.56)"/><path class="cls-2" d="M93.46,134.13l-1.82.32-0.42,1.73a33.69,33.69,0,0,0-.56,7.18c0,9.75,1.67,26,3.56,43.24l0.53,4.85c0.66,6.11,6.4,58.63,9.3,64.52a3,3,0,0,0,1.35,2.39c1.55,1,1.75,1,12.54-2l26.37-7.07c28.72-7.54,38.65-17.25,41.91-24.08A23.92,23.92,0,0,0,188.54,215c0-6.82-3-14.39-11.4-20.47a93.71,93.71,0,0,1-10.73-8.66c6-3.1,18.31-11.12,18.81-25.54,0-.35,0-0.7,0-1,0-16.47-13.85-26.76-40.15-29.79-15.19-1.75-50.16,4.35-51.64,4.61" transform="translate(-79.35 -102.56)"/><path class="cls-29" d="M183.66,222.9c-2.7,5.64-11.54,15.1-40.1,22.6-43.62,11.45-35.25,10.3-37,8s-7.17-46.95-9-63.55S92.18,143,94,135.57c0,0,35.85-6.3,50.79-4.58s38.37,7.38,37.65,28.05c-0.6,17.18-20.32,24.62-20.32,24.62s0.41,2.48,13.35,11.83,10.91,21.77,8.22,27.41" transform="translate(-79.35 -102.56)"/><path class="cls-30" d="M99.35,139.58s41.23-6.3,56.77,0,19.72,5.15,21.51,16-17.93,21.18-24.5,26.33-1.2,5.72-.6,7.44,17.93,10.88,21.51,21.18-8.36,20.61-18.53,24-36.45,13.17-40,9.16-11.36-63.55-12-73.29-4.18-30.91-4.18-30.91" transform="translate(-79.35 -102.56)"/><path class="cls-1" d="M114.93,146.53a3.68,3.68,0,0,1,3.59-2.86c3,0,25.09.57,34.06,4s9.56,7.44,7.77,10.31-22.11,18.89-29.28,19.46-12,6.3-12-.57-4.18-30.34-4.18-30.34" transform="translate(-79.35 -102.56)"/><path class="cls-1" d="M121.77,203c2.18-1.21,14.34-1,21.91.77s20.72,4,20.92,8.4-2.59,12-14.14,17-19.72,10.11-21.91,6.3-9.16-31.11-6.77-32.44" transform="translate(-79.35 -102.56)"/><path class="cls-2" d="M126.87,212.17s30.07,0.76,29.87,3.63-25.49,13.36-26.48,12.79-5.18-16.22-3.39-16.41" transform="translate(-79.35 -102.56)"/><path class="cls-2" d="M124.85,147.71s26.49,2.29,26.49,3.82S129.83,167.75,129,167s-4.18-19.27-4.18-19.27" transform="translate(-79.35 -102.56)"/><path class="cls-2" d="M446.53,115.63c-3.16.32-8.1,16-9.73,21.09-2.39,7.56-3.09,11.09-3.09,12.85a2,2,0,0,0,.79,2c1,0.83,3.47,1.2,10.16,2,3.76,0.47,9.81,1.22,11.57,2-0.83,6-18.52,79.33-21,83.45l-0.39.63,0.17,0.79c2.42,7.09,4.66,6.66,5.4,6.52,14.92-2.86,40.24-8.15,43.38-11.71a10.45,10.45,0,0,0,2.46-7.42c0-.66,0-1.32-0.06-2l0.07-3.45c0.18-1.11.63-6.45,1.25-13.84,1.14-13.45,3.43-40.44,4.72-46.14,2.72,0.54,9.87,2.22,15.86,3.62,18.83,4.41,19,4.36,19.76,4.12a0.91,0.91,0,0,0,.46.07c1.32,0.09,3.31.22,4.53-1.14a3.6,3.6,0,0,0,.61-3.42c-0.9-3.76-7-20.63-7.22-21.35l-0.27-.75-0.78-.25c-28.2-9.22-74-24.71-77-27l0.23,0.29a1.93,1.93,0,0,0-1.89-1" transform="translate(-79.35 -102.56)"/><path class="cls-29" d="M525.88,144.39s-76.2-24.9-77.68-27.48-13.15,31.49-11.36,32.92,22.11,2.29,22.41,4.58-19,81.87-21.37,85c0,0,2,5.72,3.45,5.44s39.14-7.44,42.43-11.16,1.48-8.3,2.09-12,4.78-61.55,6.57-61.55,35.25,8.3,36.15,8,5.38,1.15,4.49-2.58-7.17-21.18-7.17-21.18" transform="translate(-79.35 -102.56)"/><path class="cls-30" d="M450.89,123.78l69.61,25.47s3.59,8.88,3,9.73-31.67-9.16-34.06-9.45-3,1.14-3,2.29-8.66,78.44-8.66,78.44l-27.49,6s16.13-83.3,14.94-85.59a3.37,3.37,0,0,0-3.29-2s-19.72-2.29-19.12-3.15,8.07-21.76,8.07-21.76" transform="translate(-79.35 -102.56)"/><path class="cls-1" d="M499.08,229.53a7.77,7.77,0,1,1,7.78,7.36,7.5,7.5,0,0,1-7.78-7.36m7.78,6.14a6.12,6.12,0,1,0-6.24-6.14,6.05,6.05,0,0,0,6.24,6.14m-1.62-1.88H503.9v-8.47h3.37c2.09,0,3.12.74,3.12,2.41a2.25,2.25,0,0,1-2.29,2.33l2.51,3.73h-1.5l-2.33-3.67h-1.54v3.67Zm1.6-4.76c1.14,0,2.15-.08,2.15-1.38,0-1-1-1.24-1.93-1.24h-1.82V229h1.6Z" transform="translate(-79.35 -102.56)"/><rect class="cls-31" width="456.81" height="202.48"/></svg>