<?xml version="1.0" encoding="utf-8"?>
<!-- Generator: Adobe Illustrator 19.2.1, SVG Export Plug-In . SVG Version: 6.00 Build 0)  -->
<svg version="1.1" id="Layer_1" xmlns="http://www.w3.org/2000/svg" xmlns:xlink="http://www.w3.org/1999/xlink" x="0px" y="0px"
	 viewBox="0 0 241.2 74.1" style="enable-background:new 0 0 241.2 74.1;" xml:space="preserve">
<style type="text/css">
	.st0{fill-rule:evenodd;clip-rule:evenodd;fill:#ED3024;}
	.st1{fill:#ED3024;}
</style>
<g>
	<path class="st0" d="M57.2,52.2C54,64.8,42.6,74.1,29,74.1c-16,0-29-13-29-29c0-16,13-29,29-29c13.5,0,25,9.4,28.2,21.9H45.4
		c-2.7-6.2-8.9-10.6-16.2-10.6c-9.8,0-17.7,7.9-17.7,17.7c0,9.8,7.9,17.7,17.7,17.7c7.2,0,13.5-4.3,16.2-10.6H57.2"/>
	<path class="st0" d="M88.3,62.5c-9.7,0-17.5-7.8-17.5-17.5c0-9.7,7.8-17.5,17.5-17.5c9.7,0,17.5,7.9,17.5,17.5
		C105.8,54.7,97.9,62.5,88.3,62.5 M88.3,16c-16,0-29,13-29.1,29c0,16.1,13,29,29.1,29.1c16.1,0,29-13,29.1-29.1
		C117.3,29,104.3,16,88.3,16z"/>
	<rect x="121" class="st1" width="12.7" height="74.1"/>
	<path class="st0" d="M166,26.1c7.4,0,13.4,5.1,14.3,11.6l-28.4-0.1l-0.3,0.1C152.5,31.3,158.6,26.1,166,26.1 M167.2,62.9
		c-8.9,0-16.3-6.6-16.4-14.5c0-0.3,0-0.6,0.1-0.8h41.8c0-23-11.9-31.7-26.5-31.7c-11.3,0-27.6,7.3-27.6,28.8
		c0,17.8,12.9,29.4,27.6,29.4c12.6,0,23.3-7.6,25.9-20.2h-11.7C178.6,59.6,173.5,62.9,167.2,62.9z"/>
	<path class="st0" d="M228.5,34.3h11c0,0,0.5-9.9-7.7-14.8c0,0-3.9-3.5-14.8-3.5c0,0-10.9-0.1-15.9,4.8c0,0-5.2,3.9-5.2,11.5
		c0,0-0.9,7.4,6.3,12c0,0,5.9,2.8,11.5,4.5c0,0,9.2,2.5,10.7,3.4c0,0,7.9,3.7,3.2,8.2c0,0-2.1,3-9.3,3c0,0-12.5,0.4-12.5-9.1h-11.2
		c0,0-1.1,10.1,7.6,15.8c0,0,5.5,3.8,16.2,3.7c0,0,10.3-0.1,15.8-4c0,0,7-5.1,7-13.7c0,0,0.8-8.8-10.3-13.8c0,0-11.2-3.8-14.1-4.5
		c0,0-11.1-2.4-8.8-8c0,0,0.5-3.8,9.4-3.8c0,0,6.3-0.1,9,3.4C226.3,29.3,228.2,31.5,228.5,34.3"/>
</g>
</svg>
