<?xml version="1.0" encoding="utf-8"?>
<!-- Generator: Adobe Illustrator 19.2.1, SVG Export Plug-In . SVG Version: 6.00 Build 0)  -->
<svg version="1.1" id="Layer_1" xmlns="http://www.w3.org/2000/svg" xmlns:xlink="http://www.w3.org/1999/xlink" x="0px" y="0px"
	 viewBox="0 0 540.5 50.5" style="enable-background:new 0 0 540.5 50.5;" xml:space="preserve">
<g>
	<path d="M534.9,3.8c0.3,0,0.6,0.4,0.9,0.1c0.8-0.9,1.2-1.9,1.7-2.9c0.2-0.3,0.6-0.4,0.9-0.3c0.2,0,0.4,0.2,0.4,0.4
		c-0.5,4-0.7,8.3-0.5,12.5c-0.1,0.2-0.2,0.4-0.4,0.5c-0.3,0-0.6,0-0.8-0.2c-0.4-1-0.6-2.1-1.1-3.1c-1.2-3.7-5-7.3-8.9-7.8
		c-4-1-8.3-0.2-11.4,2.1c-2.2,1.8-3.2,4.6-2.3,7.3c1.3,3.7,5.3,4.8,8.4,5.8c5,1.5,10.2,2.7,14.5,5.7c4.6,3.5,4.9,9.8,3.5,14.9
		c-1.3,4.6-6,8.7-10.6,9.9c-6.3,1.8-13.6,0.7-18.7-2.9c-0.2-0.1-0.5-0.1-0.7,0c-0.7,0.9-1.2,1.9-1.7,2.9c-0.2,0.4-0.6,0.4-1,0.3
		c-0.1-0.1-0.3-0.2-0.4-0.4c0.1-4.4-0.1-8.5-0.4-12.8c0-0.2,0.2-0.4,0.4-0.5c0.3-0.1,0.6,0,0.7,0.1c0.4,0.7,0.6,1.5,0.8,2.2
		c1.4,4.8,6.5,8.5,11.4,9.1c5.4,0.8,11.1-0.3,14.1-4.9c1.1-1.8,1.5-4.4,0.4-6.4c-1.7-2.6-4.5-3.9-7.1-5c-6.7-2.6-15.5-3.7-18.5-11.6
		c-1.4-3.8-1-8.8,1.3-12.2c3.6-5.6,10.3-7.6,16.9-6.4C529.7,0.8,532.4,2.1,534.9,3.8"/>
	<path d="M486.4,1l-1.5,0c-6.6,0.3-13.5,0.2-20.2,0.3c-0.2,0-0.4-0.4-0.6,0c-5.5,0-11.1-0.1-16.5-0.2l-0.5,0.2
		c-0.2,0.2-0.3,0.5-0.3,0.7c0,0.2,0.1,0.5,0.3,0.6c1,0.3,2.1,0.1,3.1,0.5c1.5,0.6,1.8,2.2,1.8,3.7c0,11.8,0,24.3,0.1,36.5
		c-0.1,0.9-0.1,1.7-0.5,2.5c-1,1.4-2.7,1.3-4.1,1.4c-0.3,0.1-0.4,0.3-0.5,0.5c-0.1,0.3-0.1,0.7,0.2,0.9c0.2,0.1,0.5,0.3,0.7,0.3
		c12.9-0.6,26.5-0.1,39.3-0.1l0.2-0.1c1.1-3.8,2.2-7.7,3.3-11.5c0.2-0.4,0.3-0.9,0.1-1.3c-0.1-0.2-0.3-0.4-0.5-0.4
		c-0.3-0.1-0.6-0.1-0.8,0.2c-0.9,1.8-1.4,3.7-2.4,5.4c-1.2,2.1-3.1,4.4-5.7,4.6c-5.4,0.5-10.8,0.3-16.4,0.3c-1,0.1-1.9,0-2.7-0.4
		c-1-0.5-1.3-1.5-1.4-2.5l0-17.8l0.1-0.1h11.9l1.1,0.1c1.5,0,2.8,1,3.3,2.3c0.7,1.3,0.1,3.2,1,4.4c0.2,0.1,0.5,0.2,0.8,0.1
		c0.4-0.1,0.4-0.5,0.5-0.8c-0.4-4.9-0.4-9.6,0-14.5c0-0.4,0-0.9-0.3-1.2c-0.2-0.1-0.4-0.2-0.7-0.1c-0.2,0.1-0.4,0.2-0.5,0.4
		c-0.6,1.5-0.3,3.4-1.1,4.8c-0.8,1.3-2.2,1.7-3.7,1.8H461l-0.1-0.1l0-15.1c0.1-0.7,0.1-1.6,0.4-2.2c0.4-0.7,1.2-1.1,2-1.2l10.6-0.1
		c2.4,0,4.9,0,7,0.7c4.1,1.1,5,5.5,6.7,8.6c0.2,0.3,0.5,0.6,0.9,0.5c0.4-0.2,0.5-0.6,0.4-1.1c-0.8-3.7-1.5-7.4-2.3-11.2L486.4,1"/>
	<path d="M421.9,1c-0.3,0.1-0.6,0.1-0.7,0.3c-0.2,0.3-0.2,0.7-0.1,1c0.6,0.8,1.8,0.4,2.6,0.6c0.9,0.2,1.5,1.2,1.6,2.1
		c0.2,8.5,0.1,17.7,0.1,26.6l-0.1,0c-8.5-10.1-16.7-20.3-25.2-30.5c-4.6,0.3-9.2,0.3-13.8,0l-1,0.2c-0.3,0.1-0.4,0.4-0.4,0.6
		c0.1,0.3,0.1,0.5,0.3,0.7c1.4,0.5,3.3,0,4.5,1c0.9,0.5,1.5,1.4,1.6,2.4c0,12.8,0.1,25.2,0,37.8c-0.1,0.8-0.3,1.6-0.7,2.2
		c-0.7,1.4-2.4,0.6-3.5,1.4c-0.2,0.2-0.2,0.6-0.1,0.9c0.1,0.3,0.5,0.4,0.8,0.4c2.9-0.2,6-0.2,8.9,0c0.6,0,1.1,0.1,1.5-0.3
		c0.2-0.2,0.2-0.5,0.1-0.8c-0.5-1-1.9-0.4-2.7-0.9c-1.1-0.6-1.6-1.7-1.7-2.8c0-12.1,0-23.6,0-35.2c0-0.1,0-0.4,0.2-0.4
		c2.4,2.8,4.7,5.7,7.1,8.6l26.5,32.1c0.1,0,0.2,0.1,0.2,0c0.1-14.8,0-28.4,0-43c0-0.8,0.1-1.6,0.5-2.3c0.7-1.4,2.6-0.7,3.7-1.4
		c0.2-0.3,0.2-0.7,0.1-1c-0.1-0.4-0.5-0.4-0.8-0.5C428.5,1.2,425.1,1.2,421.9,1"/>
	<path d="M307.3,1.1c-5,0.4-10.3,0.4-15.3,0c-0.5,0-1,0.1-1.3,0.5c-0.3,2,2.2,0.8,3.2,1.6c1.3,0.7,1.1,2.2,1.2,3.5l0,33.3
		c0,2.7-0.3,5.3-2.4,7c-2,1.5-5.3,1.2-7.5,0.3c-0.1-0.1-0.4-0.2-0.3-0.5c1.5-0.9,2.5-2.5,2.9-4.1c0.3-2.1-0.6-3.9-2.2-5.3
		c-1.6-1.3-4.4-1.6-6.3-0.6c-2.1,1.1-3.3,3.3-3.1,5.6c0.2,4,4.4,6.2,7.8,7.2c4.5,1.1,9.8,1,13.9-1c4-1.9,6.1-6,6.2-10.2l0.1-33.3
		c0.1-0.6,0.2-1.2,0.6-1.7c0.9-1.1,2.5-0.5,3.6-1.1c0.2-0.2,0.2-0.6,0.1-0.9C308.3,1.3,307.8,1.1,307.3,1.1"/>
	<path d="M147.4,1.5c-1.8,0-3.6-0.5-5.3-0.1c-0.3,0.1-0.5,0.3-0.5,0.6c0,0.3,0.1,0.6,0.4,0.7c1.5,0.5,3.6-0.1,4.7,1.3
		c0.1,0.3,0.2,0.6,0.1,0.9c-4,9.7-7.9,19.5-12.1,29.2h-0.1c-4.2-9.5-8.3-19-12.5-28.6c-0.3-0.4-0.2-0.9-0.1-1.3
		c0.2-0.4,0.6-0.6,1-0.8c1-0.6,2.5,0,3.3-0.8c0-0.3,0.1-0.5,0-0.8c-0.2-0.3-0.5-0.4-0.8-0.5c-6,0.4-12.3,0.4-18.3,0
		c-0.5,0-1,0.1-1.2,0.5c-0.1,0.3-0.1,0.7,0.1,0.9c1.1,0.5,2.5,0.1,3.7,0.6c2,0.9,2.7,3.1,3.6,4.8l17.8,40.8l0.1,0
		c6.1-14.5,12.1-29,18.1-43.5l0.6-1.1c0.6-0.8,1.5-1,2.5-1.2c0.6-0.2,1.4,0,2-0.5c0.2-0.3,0.1-0.8-0.1-1.1c-0.2-0.2-0.4-0.2-0.7-0.3
		C151.7,1.4,149.6,1.5,147.4,1.5"/>
	<path d="M169.3,1.2c-0.4,0.1-0.8,0.2-1.1,0.6c-0.2,1.7,1.9,0.9,2.8,1.4c1.3,0.4,1.5,1.8,1.7,3l0,36.9c0,1.5-0.1,3.1-1.7,3.8
		c-0.8,0.5-2.1,0-2.7,0.8c-0.1,0.2-0.1,0.5,0,0.7c0.1,0.4,0.6,0.5,0.9,0.6c5.2-0.3,10.7-0.3,15.9,0c0.4-0.1,0.8-0.1,1-0.5
		c0.1-0.2,0.1-0.5,0-0.8c-0.7-1-2.2-0.3-3.1-1c-0.9-0.5-1.1-1.4-1.3-2.2l0-8.4c0-0.1,0.2-0.2,0-0.3l0-30.1c0.1-0.9,0.3-1.9,1.3-2.3
		c0.8-0.7,2.2-0.1,3-0.9c0.1-0.3,0.2-0.6,0.1-0.8c-0.2-0.3-0.6-0.4-1-0.5C180,1.6,174.5,1.6,169.3,1.2"/>
	<path d="M359.3,9c3.5,6.1,3.5,13.8,3.1,21c-0.4,3.4-1,6.6-2.4,9.6c-0.2,0.1-0.1,0.3-0.2,0.5c-2.2,4.6-7.1,7.3-12.3,7
		c-4.8,0.1-9.3-2.4-11.3-6.7c-2.9-6.2-3.1-13.9-2.5-21.2c0.7-6,2.3-12.9,8.7-15.4c4.9-1.7,11.2-1.1,14.9,2.7
		C358.1,7.3,358.8,8.1,359.3,9 M367.7,10.1c-6.5-8.2-17.4-11.5-27.6-8.3c-7.9,2.2-15.2,9.9-16.7,17.9c-0.2,0-0.1,0.3-0.1,0.4
		c-0.7,3.5-0.6,7.6,0.3,10.9c1.8,8.1,9.4,15.5,17.6,17.6c9.5,2.4,19-0.3,25.5-7.3c6.4-6.7,8.1-17.6,4.3-26
		C370.1,13.5,369,11.7,367.7,10.1z"/>
	<path d="M237.9,11c2.6,5.2,2.5,11.4,2.5,17.5c-0.4,6.3-2,12.8-8.2,16c-3.8,2.1-8.5,1.8-13.1,1.8c-1.3-0.2-2.9,0-3.7-1.2
		c-0.5-1.4-0.2-3.1-0.3-4.7c0-10.5,0-22.5,0-33.8c0.1-0.6,0.1-1.2,0.5-1.7c0.4-0.9,1.4-1,2.3-1C225.6,3.5,234.1,3.7,237.9,11
		 M201.9,1.2c-0.3,0.1-0.5,0.1-0.7,0.4c-0.2,0.2-0.1,0.6-0.1,0.9c0.1,0.2,0.3,0.4,0.6,0.5c1.1,0.2,2.2,0.2,3.2,0.8
		c1.1,0.7,1.1,2,1.2,3.2l0,36.9l-0.1,1.6c-0.2,0.8-1,1.2-1.7,1.4c-1,0.2-2.1,0.3-3,0.7c-0.3,0.2-0.3,0.7-0.1,1
		c0.1,0.3,0.4,0.5,0.7,0.5c6.1-0.3,12.6-0.3,18.7,0c6.3,0,12.2-0.7,17.5-3.1c6.6-2.8,10.9-9.5,11.6-16.2c0.8-5.1,0.2-10.6-1.8-15
		c-3.6-8.6-12.7-13-21.7-13.4C218.1,1.1,210,1.8,201.9,1.2z"/>
	<path d="M36.6,10.9c2.5,5.1,2.7,11.2,2.6,17.2c-0.2,7-2.7,14.9-10.1,17.3c-3.3,1.2-7.2,0.9-10.9,0.9c-1.4-0.2-3.1,0-3.9-1.3
		c-0.4-0.9-0.4-1.9-0.4-3l0-35.3c0.1-0.8,0.2-1.7,1-2.2C16.1,3.8,17.6,4,19,3.8C25.9,3.6,33.1,4.5,36.6,10.9 M0.8,1.2
		c-0.3,0-0.5,0.1-0.7,0.4C0,1.8,0,2.1,0,2.3c0,0.3,0.3,0.5,0.5,0.6c1.1,0.2,2.3,0.3,3.3,0.8c1,0.6,1,1.7,1.2,2.7l0,34
		c-0.1,1.8,0.2,3.8-0.3,5.4c-0.3,0.6-0.9,0.9-1.4,1c-1,0.3-2.1,0.3-3.1,0.7c-0.2,0.3-0.3,0.7-0.2,1c0.1,0.3,0.4,0.4,0.6,0.5
		C6.7,48.7,13,48.7,19,49c6.5,0.1,12.6-0.6,18-3.1c4.9-2.1,9.1-6.9,10.5-11.8c1.9-6.1,1.8-13.7-0.8-19.4c-4-9.3-14.1-13.5-24-13.4
		C15.4,1.5,8.1,1.6,0.8,1.2z"/>
	<path d="M78.3,16.3c2.4,5.5,4.8,11,7.1,16.6c-4.9,0.1-9.9,0.1-14.8,0v-0.1c2.5-5.6,4.8-11.2,7.4-16.8L78.3,16.3 M81.5,1.3
		C74.9,16.1,68.6,31,62,45.8c-0.6,0.9-1.5,1.1-2.4,1.3c-0.7,0.2-1.4,0.1-2,0.4c-0.3,0.3-0.3,0.7-0.1,1c0.1,0.3,0.4,0.4,0.6,0.5
		c3.6-0.3,7.6-0.4,11.2,0c0.4,0,0.7-0.1,1-0.3c0.2-0.2,0.1-0.6,0.1-0.9c0-0.2-0.3-0.3-0.5-0.4c-1.4-0.6-3.2,0-4.4-1
		c-0.4-0.4-0.3-1-0.1-1.4l3.9-9.1l0.2-0.3h17.2l0.1,0.1l4.1,9.4l0.1,0.6c0,0.6-0.5,1.1-1,1.2c-1,0.6-2.6,0-3.4,0.8
		c-0.1,0.2-0.1,0.5,0,0.8c0.2,0.3,0.5,0.5,0.8,0.5c6.1-0.3,12.4-0.3,18.5,0c0.3,0,0.6-0.1,0.9-0.4c0.2-0.2,0.1-0.6,0.1-0.8
		c-0.4-0.8-1.4-0.5-2.2-0.6c-3.3,0.3-4.2-3.3-5.3-5.4L87,13.6c-1.8-4.1-3.5-8.2-5.4-12.3H81.5z"/>
</g>
</svg>
