<?xml version="1.0" encoding="utf-8"?>
<!-- Generator: Adobe Illustrator 19.2.1, SVG Export Plug-In . SVG Version: 6.00 Build 0)  -->
<svg version="1.1" id="Layer_1" xmlns="http://www.w3.org/2000/svg" xmlns:xlink="http://www.w3.org/1999/xlink" x="0px" y="0px"
	 viewBox="0 0 308.4 126.6" style="enable-background:new 0 0 308.4 126.6;" xml:space="preserve">
<style type="text/css">
	.st0{fill:#E21D38;}
	.st1{fill:#FFFFFF;}
</style>
<g>
	<path class="st0" d="M0,109.2l71.7,0.1c40.4,0,50.5,17.4,50.5,17.4s11-17.2,54.3-17.2l131.9-0.2V0.3L176.5,0.2
		c-43.3,0-54.3,15.9-54.3,15.9S112.1,0,71.7,0L0,0.1V109.2z"/>
	<g>
		<path class="st1" d="M36.5,53.2c0-7.1,0-8.4-0.1-9.8c-0.1-1.6-0.5-2.3-2-2.6c-0.4-0.1-1.2-0.1-1.8-0.1c-0.5,0-0.8-0.1-0.8-0.4
			c0-0.3,0.3-0.4,1-0.4c2.5,0,5.4,0.1,6.7,0.1c1.4,0,4.4-0.1,7.2-0.1c5.8,0,13.6,0,18.6,5.3c2.3,2.4,4.5,6.3,4.5,11.8
			c0,5.9-2.5,10.3-5.1,13c-2.1,2.2-7,5.5-15.6,5.5c-1.7,0-3.6-0.1-5.3-0.3c-1.8-0.1-3.4-0.3-4.5-0.3c-0.5,0-1.5,0-2.6,0
			c-1.1,0-2.3,0.1-3.2,0.1c-0.6,0-0.9-0.1-0.9-0.5c0-0.2,0.2-0.4,0.7-0.4c0.7,0,1.2-0.1,1.7-0.2c0.9-0.2,1.2-1.2,1.3-2.6
			c0.2-2,0.2-5.6,0.2-9.9V53.2z M42.3,58.3c0,4.9,0,8.5,0.1,9.4c0,1.2,0.1,3,0.5,3.5c0.6,0.9,2.4,1.9,6.1,1.9
			c4.7,0,7.9-0.9,10.7-3.3c3-2.6,3.9-6.8,3.9-11.6c0-5.9-2.5-9.7-4.5-11.6c-4.3-4.1-9.6-4.6-13.2-4.6c-0.9,0-2.7,0.1-3,0.3
			c-0.4,0.2-0.6,0.4-0.6,0.9c0,1.6,0,5.6,0,9.3V58.3z"/>
		<path class="st1" d="M81.5,62.8c0-2.5-0.5-3.5-1.1-4.9c-0.3-0.7-6.5-11-8.2-13.4c-1.2-1.7-2.3-2.9-3.2-3.4
			c-0.6-0.3-1.4-0.6-1.9-0.6c-0.4,0-0.7-0.1-0.7-0.4c0-0.3,0.3-0.4,0.9-0.4c0.8,0,4.3,0.1,5.9,0.1c1,0,2.9-0.1,5-0.1
			c0.5,0,0.7,0.1,0.7,0.4c0,0.3-0.3,0.3-1,0.5c-0.4,0.1-0.6,0.5-0.6,0.8c0,0.4,0.2,0.9,0.6,1.6c0.6,1.4,7.2,12.6,7.9,13.9
			c0.5-1.1,6.3-11.3,7-12.8c0.5-1,0.7-1.8,0.7-2.4c0-0.5-0.2-1-1-1.2c-0.4-0.1-0.8-0.2-0.8-0.5c0-0.3,0.2-0.4,0.8-0.4
			c1.5,0,3,0.1,4.4,0.1c1,0,4.1-0.1,5-0.1c0.5,0,0.8,0.1,0.8,0.4c0,0.3-0.4,0.5-0.9,0.5c-0.5,0-1.3,0.2-2,0.6c-1,0.5-1.5,1-2.5,2.3
			c-1.5,1.9-8,12.8-8.9,14.8c-0.7,1.7-0.7,3.1-0.7,4.6v3.8c0,0.7,0,2.7,0.1,4.6c0.1,1.3,0.5,2.4,1.9,2.6C90,73.9,91,74,91.7,74
			c0.5,0,0.7,0.1,0.7,0.4c0,0.3-0.4,0.5-1,0.5c-2.9,0-5.8-0.1-7.1-0.1c-1.2,0-4.1,0.1-5.8,0.1c-0.6,0-1-0.1-1-0.5
			c0-0.2,0.2-0.4,0.7-0.4c0.6,0,1.2-0.1,1.6-0.2c0.9-0.2,1.3-1.2,1.4-2.6c0.1-2,0.1-3.9,0.1-4.6V62.8z"/>
		<path class="st1" d="M104.7,40.7c0.1-0.8,0.4-1,0.8-1c8.9,0,16.5,18.8,16.9,18.8c0.4,0,7.8-18.9,18.7-18.9c0.4,0,0.7,0.1,0.8,1
			l0,28.7c0,2.9,0.9,3.7,2.3,4.1c1.3,0.4,2.3,0.5,2.9,0.5c0.4,0,0.7,0,0.7,0.3c0,0.4-0.6,0.5-1.2,0.5c-1.2,0-8.2-0.3-10.7,0
			c-1.1,0.1-1.6-0.2-1.6-0.5c0-0.2,0.4-0.3,0.7-0.5c0.3-0.1,1.7-0.4,1.7-3l0-24.1c0,0,0-0.1-0.2,0c-4.4,1.3-13.5,19.8-14.2,19.8
			c-0.6,0-9-20-14.6-20.9h-0.2l0,24.4c0,0,0.2,3.2,1.7,3.7c0.8,0.3,1.5,0.2,1.9,0.2c0.4,0,0.7,0.1,0.7,0.3c0,0.4-0.4,0.5-1.1,0.5
			c-1.9,0-4-0.1-4.9-0.1c-0.9,0-3.1,0.1-4.6,0.1c-0.5,0-0.8-0.1-0.8-0.5c0-0.2,0.3-0.4,0.7-0.4c0.4,0,0.7,0,1.4-0.1
			c1.3-0.3,2-1.6,2-3.7V40.7z"/>
		<path class="st1" d="M146.3,57.3c0-7.9,5.2-18.2,19.2-18.2c11.6,0,18.8,6.7,18.8,17.4c0,10.6-7.4,19-19.2,19
			C151.7,75.5,146.3,65.5,146.3,57.3 M177.7,58.2c0-10.4-6-16.9-13.6-16.9c-5.3,0-11.4,3-11.4,14.5c0,9.7,5.3,17.3,14.3,17.3
			C170.2,73.2,177.7,71.6,177.7,58.2"/>
		<path class="st1" d="M193.5,70.4c-4.5-4-5.8-9.2-5.8-13.7c0-3.2,1-8.6,5.4-12.7c3.3-3.1,7.8-4.9,14.7-4.9c2.9,0,4.6,0.2,6.7,0.5
			c1.8,0.2,3.2,0.7,4.6,0.8c0.5,0,0.7,0.3,0.7,0.6c0,0.4-0.1,0.9-0.2,2.6c-0.1,1.5,0,4.1-0.1,5c0,0.7-0.1,1.1-0.6,1.1
			c-0.4,0-0.5-0.4-0.5-1c0-1.4-0.6-3.1-1.8-4.3c-1.5-1.6-5.2-2.9-9.4-2.9c-4,0-6.7,1-8.7,2.9c-3.4,3.1-4.3,7.5-4.3,12
			c0,11.1,8.4,16.5,14.6,16.5c4.1,0,6.6-0.5,8.5-2.6c0.8-0.9,1.4-2.2,1.6-3.1c0.1-0.7,0.2-0.9,0.6-0.9c0.3,0,0.4,0.3,0.4,0.7
			c0,0.6-0.6,4.6-1,6.2c-0.2,0.8-0.4,1-1.2,1.3c-1.9,0.7-5.4,1.1-8.4,1.1C203.1,75.5,197.8,74.1,193.5,70.4"/>
		<path class="st1" d="M233.6,55.2h0.2c1.6-1.7,8.4-8.6,9.7-10.2c1.3-1.5,2.3-2.7,2.3-3.5c0-0.5-0.2-0.8-0.6-0.9
			c-0.4-0.1-0.6-0.2-0.6-0.5c0-0.3,0.2-0.4,0.7-0.4c1,0,3.5,0.1,4.8,0.1c1.4,0,4-0.1,5.4-0.1c0.5,0,0.8,0.1,0.8,0.4
			c0,0.3-0.2,0.4-0.7,0.4c-0.7,0-1.8,0.2-2.7,0.5c-1.4,0.6-3,1.5-5,3.5c-1.4,1.4-9,9-10.6,10.7c1.7,2.2,13.7,19.3,22.3,22.2
			c1.4,0.5,2.5,0.7,3.1,0.7c0.3,0,0.6,0.1,0.6,0.4c0,0.3-0.2,0.5-1.1,0.5h-4c-1.4,0-3.4-0.2-4.9-0.8c-4.1-1.6-10.3-7.5-19-19.2
			l-0.5-0.7h-0.2v4.2c0,4.3,0,6.8,0.1,8.8c0.1,1.3,0.5,2.3,1.7,2.5c0.6,0.1,1.7,0.2,2.3,0.2c0.4,0,0.6,0.1,0.6,0.4
			c0,0.3-0.4,0.5-0.9,0.5c-2.6,0-5.5-0.1-6.7-0.1c-1.1,0-4,0.1-5.9,0.1c-0.6,0-0.9-0.1-0.9-0.5c0-0.2,0.2-0.4,0.7-0.4
			c0.7,0,1.3-0.1,1.7-0.2c0.9-0.2,1.2-1.2,1.3-2.6c0.2-2,0.2-5.6,0.2-9.9v-8.2c0-7.1,0-8.4-0.1-9.8c-0.1-1.6-0.5-2.3-2-2.6
			c-0.4-0.1-1.2-0.1-1.8-0.1c-0.5,0-0.8-0.1-0.8-0.4c0-0.3,0.3-0.4,1-0.4c2.5,0,5.4,0.1,6.5,0.1c1.1,0,4-0.1,5.6-0.1
			c0.7,0,1,0.1,1,0.4c0,0.3-0.3,0.4-0.6,0.4c-0.5,0-0.7,0-1.3,0.1c-1.3,0.2-1.6,1-1.7,2.6c-0.1,1.5-0.1,2.8-0.1,9.8V55.2z"/>
		<path class="st1" d="M259.5,74.3c-0.7-0.3-0.9-0.6-0.9-1.6c0-2.6,0.2-5.3,0.2-6.1c0-0.7,0.2-1.2,0.6-1.2c0.4,0,0.5,0.4,0.5,0.8
			c0,0.6,0.2,1.6,0.4,2.4c1,3.4,3.8,4.7,6.6,4.7c4.2,0,6.2-2.8,6.2-5.3c0-2.3-0.7-4.4-4.5-7.4l-2.1-1.7c-5.1-4-6.9-7.2-6.9-11
			c0-5.1,4.3-8.8,10.7-8.8c3,0,5,0.5,6.2,0.8c0.4,0.1,0.7,0.2,0.7,0.6c0,0.6-0.2,1.9-0.2,5.6c0,1-0.1,1.4-0.5,1.4
			c-0.3,0-0.5-0.3-0.5-0.8c0-0.4-0.2-1.9-1.2-3.1c-0.7-0.9-2-2.3-5.1-2.3c-3.4,0-5.5,2-5.5,4.8c0,2.1,1.1,3.8,4.9,6.7l1.3,1
			c5.6,4.2,7.6,7.4,7.6,11.8c0,2.7-1,5.9-4.4,8.1c-2.3,1.5-4.9,1.9-7.4,1.9C263.6,75.5,261.5,75.2,259.5,74.3"/>
	</g>
</g>
</svg>
