<svg id="Layer_1" data-name="Layer 1" xmlns="http://www.w3.org/2000/svg" viewBox="0 0 484 166.35"><defs><style>.cls-1{fill:#73a950;}.cls-2{fill:none;}</style></defs><title>Endota_Spa_Logo</title><path class="cls-1" d="M238.88,167.74c0-10.78-.77-19-6.26-19-5,0-7.51,7.61-7.7,19h14Zm16.56,2H224.82c0,11.94,6.26,19.06,15.5,19.06a14.78,14.78,0,0,0,14-8.56l0.68,0.29c-2.79,10.3-11.46,16.17-22.44,16.17-13.77,0-25.12-9.05-25.12-24.74,0-15.12,11.46-24.85,25.22-24.85,15.5,0,22.82,9.92,22.82,22.63" transform="translate(-53.67 -123.65)"/><path class="cls-1" d="M282.1,148.1v12.51c2.31-8.66,8.56-13.48,16.65-13.48,10.49,0,15.31,7.32,15.31,16.66v21.46c0,6.36.3,7.61,4.53,10.3v0.19H292.3v-0.19c4.24-2.7,4.53-3.95,4.53-10.3v-22c0-4.43-2-8-6.54-8-4.81,0-8.19,4-8.19,12.71v17.23c0,6.36.29,7.61,4.53,10.3v0.19H260.34v-0.19c4.23-2.7,4.53-3.95,4.53-10.3V158.79c0-6.55-.58-7.9-5.1-10.49v-0.2H282.1Z" transform="translate(-53.67 -123.65)"/><path class="cls-1" d="M360.07,177.08v-11c0-8.66-4.34-14.24-9.24-14.24-6.17,0-9.05,7.12-9.05,20.6,0,11.17,3.27,17.43,9.24,17.43,4.91,0,9.05-5.2,9.05-12.8M343.9,196.72c-11.17,0-20.31-9.43-20.31-24.26,0-15.41,9.63-25.32,21.56-25.32,7.9,0,12.9,4.44,14.92,10.78V134.33c0-6.45-1.25-8.28-5.78-10.49v-0.19h23v61.61c0,6.07.48,7.61,4.62,10.3v0.19H360.07V183.82c-2,7.22-7.7,12.9-16.17,12.9" transform="translate(-53.67 -123.65)"/><path class="cls-1" d="M418.69,171.88c0-15.12-2.21-23.1-8.18-23.1s-8.19,8-8.19,23.1,2.22,23.2,8.19,23.2,8.18-8,8.18-23.2m-34.65,0c0-14.92,11.94-24.75,26.48-24.75S437,157,437,171.88,425,196.71,410.51,196.71,384,186.9,384,171.88" transform="translate(-53.67 -123.65)"/><path class="cls-1" d="M478.66,178.42c-1.25,9.24-5.68,18.29-17.43,18.29-8.85,0-15.4-5.2-15.31-16.27l0.2-29.94h-5.2v-1.05c9.92-2.12,17.81-8.37,21.27-18.1h1V148.1h14.44l-0.49,2.41h-14v30.33c0,4.91,1.92,7.71,5.77,7.71,4.44,0,7.32-3.86,8.57-10.49Z" transform="translate(-53.67 -123.65)"/><path class="cls-1" d="M509,170.63c-6.16,1.25-8.75,4.91-8.75,11.17,0,4.9,1.92,8,5.58,8,4.53,0,7.12-4.43,7.12-9.92l0.1-10.2Zm28.69,21.56c-2.41,2.7-7,4.43-11.65,4.43-7.8,0-11.75-3.36-12.61-8.56,0-.39-0.2-2-0.2-2.51-1.53,6.46-7.31,10.88-15.5,10.88-7.51,0-14.24-3.85-14.24-12,0-10.88,10.68-13,22.23-15.11l7.32-1.35v-9.34c0-4.91-1.83-9.72-7.32-9.72-4.52,0-6.83,3.17-6.83,7.31,0,3.85,1.64,5.88,4.62,5.88a6.37,6.37,0,0,0,1.83-.3c-1.93,3.76-5.59,5.69-10.3,5.69-5,0-9.14-3.08-9.14-8.09,0-7.42,8.28-12.23,20.31-12.23,15.78,0,24,4.81,24,16.85,0,5.88-.19,11.75-0.19,18.68,0,6.26.77,9.72,5.48,9.72a6,6,0,0,0,2.22-.38v0.19Z" transform="translate(-53.67 -123.65)"/><path class="cls-1" d="M220.11,227.9c0,4.34,3,5.68,11.84,8.37,12.52,3.95,17.71,8.29,17.71,17.61,0,9.83-8,16-19.53,16-6.64,0-11.17-2-14.64-2-2.41,0-3.56,1.05-4.9,2.12l-1.06-17.61h0.2c5.48,10.29,11.94,15.88,20.41,15.88,4.71,0,8.18-2.32,8.18-6.93,0-4.91-4.24-6.17-11.46-8.37-11.84-3.66-17-8.47-17-17.71,0-9,7.61-14.93,17.43-14.93,6.07,0,9.73,2.32,13.19,2.32,2.22,0,3.66-1,5.39-2.41v15.6h-0.19c-4.24-8.29-11.56-13.86-18.39-13.86-4.33,0-7.12,2.41-7.12,6" transform="translate(-53.67 -123.65)"/><path class="cls-1" d="M278.44,239.93v11c0,8.66,4.33,14.14,9.24,14.14,6.07,0,9-7,9-20.5,0-11.17-3.17-17.43-9.24-17.43-4.81,0-9,5.19-9,12.8M282.87,290H256.68V289.8c4.15-2.7,4.53-3.95,4.53-10.3V231.95c0-6.54-.67-7.9-5.1-10.49v-0.2h22.34V233.2c1.93-7.22,7.6-12.9,16.07-12.9,11.17,0,20.32,9.43,20.32,24.16,0,15.41-9.63,25.41-21.47,25.41-8,0-13-4.43-14.92-10.78V279.5c0,6.36.29,7.61,4.43,10.3V290Z" transform="translate(-53.67 -123.65)"/><rect class="cls-2" width="484" height="166.34"/><path class="cls-1" d="M347.93,243.78c-6.16,1.25-8.75,4.91-8.75,11.17,0,4.91,1.92,8,5.58,8,4.53,0,7.13-4.43,7.13-9.92l0.09-10.2Zm28.69,21.56c-2.41,2.7-7,4.43-11.65,4.43-7.8,0-11.75-3.36-12.61-8.56,0-.39-0.2-2-0.2-2.51-1.53,6.46-7.31,10.88-15.5,10.88-7.51,0-14.24-3.85-14.24-12,0-10.88,10.68-13,22.23-15.11l7.32-1.35v-9.34c0-4.9-1.83-9.72-7.32-9.72-4.52,0-6.83,3.17-6.83,7.31,0,3.85,1.64,5.88,4.62,5.88a6.7,6.7,0,0,0,1.83-.29c-1.93,3.75-5.58,5.68-10.3,5.68-5,0-9.14-3.08-9.14-8.09,0-7.42,8.28-12.23,20.31-12.23,15.78,0,24,4.81,24,16.85,0,5.88-.19,11.75-0.19,18.68,0,6.26.77,9.73,5.48,9.73a6,6,0,0,0,2.22-.39v0.19Z" transform="translate(-53.67 -123.65)"/><path class="cls-1" d="M149.24,225.43c-3.63,14.89-11.59,26.42-21.27,33-6,4-24.1,9-35.59,4.56s-23.12-12.73-26.64-19.64c-5.81-11.43-6.23-19.84-4.78-30,1.28-8.94,4.26-20,8.08-27.34a55.8,55.8,0,0,1,10.75-14.85,38.89,38.89,0,0,1,11.94-8.67c9.44-5.14,24.5-5,34.08-.22,3.06,1.53,19,9.91,22.35,24.09,2.87,12.12,4,27.26,1.09,39.07m9.37-33.87c-1.37-14.08-5.61-25.42-23.82-37.79s-41.22-3.67-41.22-3.67c-5.84,2.06-11.8,6.3-16.49,11a71.26,71.26,0,0,0-16,23.36c-6.41,14.89-8.92,26.11-6.41,43.75,2.87,20.14,20.73,36.52,34.81,39.62s40.65,2.41,54.73-15.8,15.8-46.38,14.43-60.46" transform="translate(-53.67 -123.65)"/><rect class="cls-2" width="484" height="166.35"/><path class="cls-1" d="M141,222.2c-2,8.58-9.8,22.4-16.05,26.12s-17.56,10.48-28.69,7.27c-2.23-.65-19-7.06-24.61-18.85-5.75-12.13-3.3-30.63,1.05-40.88,3.32-7.82,8.08-16.3,16.28-21,10.5-6,13.87-5.78,18.2-5.78a78.61,78.61,0,0,1,8.34.64s9.26,2.13,14.34,6.43,11.23,10.79,12.2,20.56,0.89,16.87-1.07,25.48m3.56-28.52a31.18,31.18,0,0,0-14.25-22.33c-9.36-6.25-16.16-7.67-22.33-7.67-5.24,0-8.93.37-20.2,6.81-8.94,5.1-13.83,14.46-17.45,23s-6.06,18.44-5.21,35,17.34,25.16,27.54,29c12.1,4.54,21.67,3.43,33.71-4.1,8.94-5.59,15.65-22.71,17.76-32.07s1.89-17.07.43-27.65" transform="translate(-53.67 -123.65)"/><path class="cls-1" d="M129.16,233.34c-2.75,4.12-8.82,12.74-20.38,14.51s-22.16-3.93-25.88-9.22-10.39-15.49-7.26-28.43,7.3-20.15,10-22.74c4.7-4.51,8.62-7.05,13.91-8.63,0,0,13.53-3.92,22.75,2s13.91,13.91,13.72,24.7-4.13,23.72-6.86,27.84m9.39-36.88c-1.06-7.7-7.38-14.31-10-16.78-5.23-5-18.34-7.26-22-6.65-3.95.66-7,.11-16.73,5.65-7.57,4.33-12,12.4-14.73,19.76-3.63,9.88-5.5,25.7-.2,36.9,5.13,10.87,17.74,15.33,23.18,16.74,10.35,2.7,21-4.24,26-8.46s11.7-14.72,14-23.72c2-7.87,1.6-14.46.36-23.43" transform="translate(-53.67 -123.65)"/><path class="cls-1" d="M122.51,219.59c-5.18,11.5-13.69,15.18-18.7,14.36-0.64-.1-13.79-2.57-16.46-10.43-2.45-7.12-.83-19.28,3.55-24.63s11.68-9.73,17.5-9.4c0,0,8.7.34,11.94,5,2.82,4.09,6.73,14.95,2.17,25.06M129.79,196c-2.71-6.11-9.5-11.21-16.34-13.11s-15.19,1.14-15.19,1.14A26.21,26.21,0,0,0,88,191.87c-3.81,4.37-5.33,7.6-7.6,18.8S84,232.34,88,237.27s14.62,8.35,23.93,5.51,14.44-9.89,17.85-20,2.28-21.65,0-26.78" transform="translate(-53.67 -123.65)"/><path class="cls-1" d="M116.12,218.07c-2.16,4.43-7.3,9.21-11,8.48S93.91,221,94.52,214.21s2-7.93,3.19-9.57a13.44,13.44,0,0,1,4.32-3.5s7.31-3.81,11.32.73,4.93,11.78,2.77,16.2m0.43-21.56c-3.76-2.41-5.6-3-8.62-3a13.89,13.89,0,0,0-9.48,3.44c-3.16,2.74-5.46,4.74-6.75,8.48a24,24,0,0,0,.73,17.67c2.44,5.6,10.33,7.9,15.66,6.89,6-1.13,11.35-10.45,12.79-15.52,1.57-5.6-.73-15.67-4.32-18" transform="translate(-53.67 -123.65)"/><path class="cls-1" d="M104.51,203.09c3.35-.73,6.47.47,7.51,3s2.53,8.59.65,11.5-3.37,5.07-7.45,4.64A8.43,8.43,0,0,1,98.73,216c-0.5-2.49.66-8.08,1.69-9.3s2.77-3.37,4.09-3.66" transform="translate(-53.67 -123.65)"/><rect class="cls-2" width="484" height="166.34"/></svg>