<svg id="Layer_1" data-name="Layer 1" xmlns="http://www.w3.org/2000/svg" viewBox="0 0 479.83 67.72"><defs><style>.cls-1{fill:#6a6c6e;}</style></defs><title>JacquiE_Logo</title><path class="cls-1" d="M396.79,175.88h-8.42v3.94a11.45,11.45,0,0,1,.07,1.43v32.94c0,10.15-8.39,13.75-21,13.73s-21-3.59-21-13.73V181.24c0-.46,0-0.85.05-1.21v-4.18H338v3.94c0,0.41.06,0.88,0.06,1.44V215.9c-0.14,15,15.9,19.5,29.34,19.49s29.49-4.52,29.36-19.47V181.26c0-.46,0-0.85,0-1.2v-4.18Z" transform="translate(-53.59 -175)"/><path class="cls-1" d="M427.48,175.89h-8.33v3.83a10.81,10.81,0,0,1,.09,1.53v48a12.07,12.07,0,0,1-.09,1.53v3.84h8.33V175.89Z" transform="translate(-53.59 -175)"/><path class="cls-1" d="M528.78,227.09l-0.31,0H485.19V208.22h0.09v-0.06h34.3v-7.43h-4.64l-0.32,0h-29.4V183.37H527a6.57,6.57,0,0,1,1.2.09h3.77v-7.59h-4.63a2.65,2.65,0,0,1-.32,0H476.32v3.89a12.29,12.29,0,0,1,.08,1.48v47.94c0,0.58,0,1.06-.08,1.47v3.84h57.1v-7.41h-4.64Z" transform="translate(-53.59 -175)"/><path class="cls-1" d="M87.33,175.81v4.81c0,0.18,0,.36,0,0.55v34.69c0,9.34-3.33,12-13.45,12-5.05,0-9.85-1-12.59-2.71l-5-2.28-2.7,6.65,6.24,2.84c0.89,0.31,1.89.66,3,1a31.56,31.56,0,0,0,11.16,2c12.41,0,21.66-3.6,21.66-16.81V181.19c0-.25,0-0.48,0-0.7v-4.67H87.33Z" transform="translate(-53.59 -175)"/><path class="cls-1" d="M160.18,228.36a9.08,9.08,0,0,1,.74,2.11l1.9,4h8.67l-27.56-58.7H132.54l-25.66,58.69h7.66l1.55-3.56a10.31,10.31,0,0,1,.8-1.82l5.19-11.88,0.16,0.07,0.08-.19,32.4,0Zm-34.8-18.68,12.6-28,13.4,28.06Z" transform="translate(-53.59 -175)"/><path class="cls-1" d="M242,224.43l-5.3-6.95-5.83,4c-3.43,2.64-9.94,5.54-19.08,5.54-13.87,0-23.33-9.35-23.32-21.76s9.2-22.81,24.53-22.8a35.33,35.33,0,0,1,17.35,5l5.23,2.8,3.84-8L234,179.39c-1.12-.45-2.47-1-4-1.57A46.37,46.37,0,0,0,212.69,175c-18.14,0-33.09,11.22-33.08,30.29s14.41,30.07,32.54,30.08c14.16,0,21.69-6.07,25.65-8.07Z" transform="translate(-53.59 -175)"/><path class="cls-1" d="M306.95,239.56l3.57,3.17,6.58-5.78-4.4-3.89c-1-.79-2.39-1.95-4.47-3.67a28.54,28.54,0,0,0,13-24.19c0-16.54-13.08-30.16-33.67-30.17s-33.69,13.6-33.7,30.17,13.08,30.19,33.68,30.2a37.76,37.76,0,0,0,12.57-2c3.81,3.32,5.82,5.06,6.88,6.18M287.5,227.91c-15.24,0-24.87-10.19-24.87-22.87s9.64-22.55,24.89-22.54,24.87,10,24.87,22.55a21.52,21.52,0,0,1-8.88,17.76,23.7,23.7,0,0,1-9.89,4.38l0,0a29.46,29.46,0,0,1-6.16.68" transform="translate(-53.59 -175)"/><polygon class="cls-1" points="393.21 33.9 393.2 25.09 402.02 25.09 402.02 33.91 393.21 33.9"/></svg>