<?xml version="1.0" encoding="utf-8"?>
<!-- Generator: Adobe Illustrator 19.2.1, SVG Export Plug-In . SVG Version: 6.00 Build 0)  -->
<svg version="1.1" id="Layer_1" xmlns="http://www.w3.org/2000/svg" xmlns:xlink="http://www.w3.org/1999/xlink" x="0px" y="0px"
	 viewBox="0 0 291 227" style="enable-background:new 0 0 291 227;" xml:space="preserve">
<style type="text/css">
	.st0{clip-path:url(#SVGID_2_);fill:#FFF200;}
</style>
<g>
	<g>
		<defs>
			<rect id="SVGID_1_" x="0.1" y="0.2" width="290.9" height="226.7"/>
		</defs>
		<clipPath id="SVGID_2_">
			<use xlink:href="#SVGID_1_"  style="overflow:visible;"/>
		</clipPath>
		<rect x="0.1" y="0.2" class="st0" width="290.9" height="226.7"/>
	</g>
	<polyline points="64.5,161.5 58.3,161.5 58.3,139.3 29.3,139.3 29.3,203.7 58.3,203.7 58.3,179.9 64.5,179.9 64.5,203.7 
		93.5,203.7 93.5,139.3 64.5,139.3 64.5,161.5 	"/>
	<rect x="102.7" y="139.3" width="29" height="64.4"/>
	<polyline points="184,139.3 163.3,139.3 163.3,203.7 192.3,203.7 192.3,179.9 218.6,179.9 218.6,163.2 192.3,163.2 192.3,155.4 
		223.1,155.4 223.1,139.3 184,139.3 	"/>
	<rect x="232.7" y="139.3" width="29" height="64.4"/>
	<rect x="137.9" y="162.1" width="18.1" height="18.4"/>
	<path d="M30.3,76.8H74v22c0,0,1.3,5.1,6.4,4.6c5,0.3,7.8-0.1,7.8-0.1s4.3,0,5.1-4.6v-75h42.1v82.6c0,0,1.3,16.8-10.7,19.3
		c-12.7,0-80.7,0-80.7,0s-13.8-2.6-13.8-16.8C30.2,94.7,30.3,76.8,30.3,76.8"/>
	<path d="M153.9,23.6h94.7c0,0,11.8,1.6,11.8,14.3c0,12.7,0,22,0,22s0.1,12.3-10,11.8c0,0,10,1.6,10,12.7c0,11.1,0,25,0,25
		s-0.3,16.3-13.4,16.3s-93.1,0-93.1,0V23.6 M214.5,42.1h-18.3v21.2h18.4C214.6,63.4,224.9,53.9,214.5,42.1z M214.5,83.7h-18.3v21.3
		h18.4C214.6,104.9,224.9,95.5,214.5,83.7z"/>
</g>
</svg>
