<?xml version="1.0" encoding="utf-8"?>
<!-- Generator: Adobe Illustrator 19.2.1, SVG Export Plug-In . SVG Version: 6.00 Build 0)  -->
<svg version="1.1" id="Layer_1" xmlns="http://www.w3.org/2000/svg" xmlns:xlink="http://www.w3.org/1999/xlink" x="0px" y="0px"
	 viewBox="0 0 236 309.2" style="enable-background:new 0 0 236 309.2;" xml:space="preserve">
<style type="text/css">
	.st0{fill:#E21E29;}
	.st1{fill:#015BA1;}
	.st2{fill:#FFFFFF;}
	.st3{fill:none;}
	.st4{fill:none;stroke:#FFFFFF;stroke-width:0.309;}
</style>
<g>
	<path class="st0" d="M0,66.8V0l236,0v66.8L0,66.8z M236,309.2v-66.8l-236,0l0,66.8L236,309.2z"/>
	<rect x="0" y="66" class="st1" width="236" height="177"/>
	<path class="st2" d="M71,129.6c0,11.8,0,18.6-2,20.9c-2,2.3-5.1,4.6-11.8,5.7c-2.3,0.4-4,0.6-6.2,0.6l-5.6-14.9
		c1.5-0.2,2-0.1,3.3-0.5c5.3-1.5,4.9-4,4.9-10.6V83.8l17.5,0V129.6z"/>
	<path class="st2" d="M196.4,142.2c-1.8,1.7-1.5,1.4-3.5,2.5c-2.9,1.5-5.2,2.1-8.6,2.1c-6.8,0-12-3-14-8c-1-2.6-1.3-4.7-1.3-10
		v-20.2l-4-0.1l-0.1-7.7l15.9-17.3l3.7,0l0,14.4l12.1,0v10.7l-12.3,0l0,19.4c0,4.6,1.4,6.4,4.8,6.4c2.3,0,4.3-0.6,7.3-3V142.2z"/>
	<path class="st2" d="M85.4,203.3c-2.7,2.1-9.7,5.8-17.2,5.8c-7,0-12.3-2.2-16.6-6.8c-4.4-4.6-6.8-11-6.8-18
		c0-14.4,9-24.9,21.2-24.9c12,0,20.6,6.3,20.6,24.8c0,1.3,0,1.8,0,2.4H60.3c0.5,7.2,4.3,11.1,10.8,11.1c4,0,9.8-1.8,14.3-5.1
		L85.4,203.3z M71.7,179.8c-0.1-5.5-0.6-10-5.3-10c-4.9,0-5.8,4.3-5.9,10L71.7,179.8z"/>
	<path class="st2" d="M127.4,209.1c0,0-0.5,0-1.6,0c-3.8,0-6.8-0.7-8.7-4.2c-3.7,3.1-8.4,4.3-13.2,4.3c-7.6,0-12.9-4.5-12.9-11.8
		c0-3.8,1.2-7.3,3.9-9.4c2.4-1.8,3.6-2.4,9.5-4.3c5.2-1.7,7.6-2.1,7.6-2.9c0.1-7.2-0.3-8.3-4.7-8.3c-3.5,0-7.3,2.4-10.8,5
		c-0.4,0.3-2.4,1.9-2.1,2V166c1.9-2,8.6-6.7,15.4-6.7c7.4,0,12.7,2.9,15.6,7.9c2,3.4,1.9,4.8,1.9,11.3v11.1c0,5.6,0,8.4,3.5,8.5
		L127.4,209.1z M112.1,189.6c-1.3,0.4-2.5,1.2-4.7,2.3c-1.3,0.6-2.4,3.1-2.4,4.7c0,1.5,1.3,3.7,3.6,3.7c1.2,0,2.5-0.2,3.6-1
		c0,0-0.1-1.4-0.1-3.4V189.6z"/>
	<path class="st2" d="M135.8,160.1l14.5,0l0,6.3c3.2-5.2,8.1-7,12.9-7c3.7,0,6.9,1,9.1,3.3c3.2,3.3,3.7,7.6,3.7,15.1v30.4h-15.3
		l0-26.3c0-4.8-0.1-8.7-4.4-8.6c-3.6,0-5.9,3-6,6.8l0,28.2l-14.5,0L135.8,160.1z"/>
	<path class="st2" d="M38.4,193.1c0,11.8,0.1,18-2.1,20.7c-1.2,1.5-5,4.8-11.7,5.9c-2.3,0.4-4,0.6-6.2,0.6l-5.6-14.9
		c1.5-0.2,2,0,3.2-0.5c5.5-2,4.9-4,4.9-10.5v-47.1l17.5,0V193.1z"/>
	<path class="st2" d="M182,190.8c4.1,2.4,8.7,5.7,12.4,5.7c3.5,0,4.8-0.5,4.8-2.7c0-2-3-3.4-6.7-6c-4.4-3.2-5-3.7-7.1-6
		c-2.1-2.4-3.6-4.8-3.6-8.6c0-4,2.1-7.9,5-10.2c2.8-2.3,5.9-3.4,10.8-3.4c5.2,0,8.4,1.5,11.8,2.9l0,12c-4.2-3.4-5.6-3.6-8.3-3.5
		c-2.1,0-3.8,1.6-3.8,3.6c0,2,1.5,3.1,5,5.5c5.1,3.6,9.1,5.2,11,9.1c1.2,2.4,1.2,4.2,1.2,6.3c0,8.3-7.2,13.9-16.4,13.9
		c-6.3,0-12-2.5-16.2-5.5L182,190.8z"/>
	<path class="st2" d="M211.2,215c0-3.4,2.7-6.1,6.1-6.1c3.3,0,6.1,2.7,6.1,6.1c0,3.4-2.7,6.1-6.1,6.1
		C214,221.1,211.2,218.3,211.2,215 M222.3,215c0-2.7-2.2-4.9-4.9-4.9c-2.8,0-5,2.2-5,4.9c0,2.8,2.2,5,5,5
		C220.1,219.9,222.3,217.7,222.3,215"/>
	<path class="st2" d="M220.4,218.3l-1.5,0l-1.5-2.8l-1.3,0v2.8l-1.3,0l0-6.6l3.2,0c0.6,0,1.3,0,1.8,0.3c0.6,0.4,0.8,1,0.8,1.7
		c0,1.2-0.6,1.7-1.8,1.8L220.4,218.3z M218.1,214.5c0.7,0,1.2-0.2,1.2-1c0-0.9-0.9-0.9-1.6-0.9l-1.6,0v1.9H218.1z"/>
	<path class="st2" d="M79.6,97.8l15.3,0c0,0,0,25.2,0,28.8c0,3.7,0.5,6.9,4.7,6.7c4.2-0.2,5.6-3.5,5.7-5.5c0.1-2,0-30,0-30l15.2,0
		c0,0,0,27.8,0,29.1c0,1.3-0.2,6.9,4.3,6.2l-4,13.4c0,0-11,2.7-13.9-5.7c0,0-4.6,6.9-15.1,5.7c-10.4-1.2-12.1-7-12.1-12.2
		C79.5,132.4,79.6,97.8,79.6,97.8"/>
	<path class="st2" d="M157.2,99.9v12c0,0-6.6-5.6-11.2-2.3c-4.6,3.3,5.1,8.3,7.8,10.1c2.8,1.8,12,7.8,6.4,19.9
		c-4,8.6-17.7,7.2-20.8,6.2c-3.1-1-6.8-2.6-9.1-4.3l0.1-12.2c0,0,8.2,5.8,12.9,5c4.7-0.7,4-3.4,0.3-6c-3.7-2.6-15.7-9.5-14.1-19.1
		C131.2,99.6,141.8,92.9,157.2,99.9"/>
	<g>
		<polygon class="st3" points="0,0 0,309.2 236,309.2 236,0 		"/>
		<path class="st4" d="M0,242.9l236,0 M0,66.8l236,0"/>
	</g>
</g>
</svg>
