<svg id="svg7275" xmlns="http://www.w3.org/2000/svg" viewBox="0 0 495.5 154.76"><defs><style>.cls-1{fill:#212620;}</style></defs><title>Kathmandu_logo</title><g id="layer1"><path id="path7277" class="cls-1" d="M90.81,218.26l22.75-28.57H93.81l-18.52,25.1H75.11v-25H58.71V251h16.4V223.16h0.18L94.44,251h20.88L90.81,218.22v0Zm51.82,12.47c0,5.33-3.81,10.81-9.81,10.81-3.7,0-6.53-1.85-6.53-5,0-4.37,4.23-6.07,9.63-6.07,2.36,0,4.66.14,6.7,0.23v0ZM158.33,251a56,56,0,0,1-.88-10.83V223.16c0-14-10.16-19-21.87-19a47.56,47.56,0,0,0-18.34,3.28l0.26,10.76a29.88,29.88,0,0,1,14.64-3.46c5.7,0,10.41,1.68,10.5,7.9a46.54,46.54,0,0,0-7.41-.62c-8.47,0-23.72,1.68-23.72,15.66,0,9.95,8.11,14.41,17.22,14.41,6.49,0,10.94-2.58,14.52-8.29h0.18c0,2.4.26,4.76,0.35,7.23h14.55v0Zm26.33,1.06a76.11,76.11,0,0,0,10-.88l-0.53-10.3a30.71,30.71,0,0,1-4.83.62c-5,0-6.35-2.82-6.35-8.36v-16.9H194V205.17H182.94V190.05l-15.57,4.89v10.28H158v11.11H167V235c0,10.87,3.46,17.14,17.64,17.14ZM230.21,251h15.87V222.47c0-9.49-5-18.29-17.57-18.29A18.13,18.13,0,0,0,213.17,212H213v-27H197.12v66H213V231.7c0-9.88,3.39-14.32,9.88-14.32,4.32,0,7.34,2.91,7.34,11.54V251Zm81.31,0H327.4V224c0-12.35-3-19.84-16.23-19.84-6.53,0-12.59,2.65-16.33,8.82-2.47-6-7.83-8.82-14.36-8.82-7.23,0-13.58,2.91-16.76,9.52h-0.18v-8.47H249.08v45.81H265V231.7c0-9.88,3.35-14.32,9-14.32,4.48,0,6.35,3.85,6.35,9.07v24.62h15.87V231.7c0-9.88,3.35-14.32,9-14.32,4.48,0,6.35,3.85,6.35,9.07V251Zm48.37-20.34c0,5.33-3.83,10.81-9.81,10.81-3.67,0-6.53-1.85-6.53-5,0-4.37,4.23-6.07,9.63-6.07,2.35,0,4.66.14,6.7,0.23v0ZM361,251h14.52a56,56,0,0,1-.88-10.83v-17c0-14-10.14-19-21.87-19a47.68,47.68,0,0,0-18.34,3.28l0.28,10.76a29.7,29.7,0,0,1,14.6-3.46c5.71,0,10.41,1.68,10.51,7.9a46.54,46.54,0,0,0-7.41-.62c-8.47,0-23.72,1.68-23.72,15.66,0,9.95,8.11,14.41,17.18,14.41,6.53,0,10.94-2.58,14.55-8.29h0.18c0,2.4.25,4.8,0.35,7.27Zm51,0h15.87V222.45c0-9.49-5-18.29-17.57-18.29-7.23,0-13.58,2.91-16.76,9.52h-0.18v-8.47H379V251h15.87V231.7c0-9.88,3.39-14.32,9.88-14.32,4.32,0,7.34,2.91,7.34,11.54V251Zm54.5-22.75c0,6.67-4.36,11.69-9.7,11.69-6,0-9.6-5-9.6-12.28,0-6.09,3.46-11.39,9.61-11.39,5.82,0,9.7,4.94,9.7,11.94ZM467.82,251h14.64v-66h-16v26H466.3c-4.06-5.26-9.44-6.93-15.77-6.93-12.7,0-19.65,11.89-19.65,23.11,0,13.55,7.32,24.82,21,24.82,7.3,0,13.72-4.15,15.77-9.24h0.18V251Zm51.42-45.81v19.37c0,9.88-3.39,14.32-9.88,14.32-4.32,0-7.34-2.91-7.34-11.54v-22.1H486.14v28.57c0,9.49,5,18.29,17.57,18.29,7.23,0,13.58-2.91,16.76-9.52h0.18v8.47h14.46V205.26H519.23v0Zm25-9.7h-1.32v-3.17h1.73c1.23,0,2.52.32,2.52,1.59,0,1.48-1.38,1.59-2.93,1.59h0Zm5.19,6.21-3.17-4.55a2.93,2.93,0,0,0,2.82-3.25c0-2.29-1.27-3.32-3.79-3.32H541v11.11H543v-4.5H544l3.17,4.53h2.22Zm2.72-5.29a7.49,7.49,0,1,1-7.48-7.66,7.32,7.32,0,0,1,7.48,7.66v0Zm2.08,0a9.52,9.52,0,1,0-9.52,9.49,9.49,9.49,0,0,0,9.52-9.49v0ZM393,162.91L328.49,98.1a2.29,2.29,0,0,0-3.28,0l-50.09,50.34a6.14,6.14,0,0,1-4,1.64h-22s-2.33,0-.74-1.64L278,118.69a2.27,2.27,0,0,1,3.28,0l7.44,7.48L299,115.93,281.31,98.19a2.27,2.27,0,0,0-3.28,0l-64.5,64.75c-0.93,1-.35,1.64.67,1.64h62.9a6.12,6.12,0,0,0,4-1.66l44.1-44.27a2.31,2.31,0,0,1,3.3,0l29.63,29.77s1.66,1.64-.65,1.64h-22a6.16,6.16,0,0,1-4-1.64L317.8,134.72,307.57,145l17.82,17.94a6.17,6.17,0,0,0,4,1.62h63c1,0,1.62-.65.71-1.62" transform="translate(-58.71 -97.38)"/></g></svg>