<svg id="Layer_1" xmlns="http://www.w3.org/2000/svg" viewBox="0 0 235.1 85.8"><style>.st0{fill:#ffd530}.st1{fill:#162243}.st2{fill:none}.st3{font-family:&apos;ObjektivMk1-XBold&apos;}.st4{font-size:11.7574px}</style><path class="st0" d="M83.5 35.2L99 1.6l39 18-6.7 15.6M124 1c-4.2-1.9-9-1.1-11.9 1.9-.8.8-1.4 1.7-1.9 2.7l2 .9c.4-.8.9-1.5 1.4-2 2.4-2.4 6.2-3.1 9.6-1.5 4.2 2 6.2 6.7 4.5 10.7l1.8.8c2.3-5-.2-11-5.5-13.5z"/><path class="st1" d="M8.8 65.7c-1.6 0-3.1-.2-4.7-.6-1.6-.4-2.9-1-4.1-1.7l1.7-6.1c.9.7 2 1.2 3.3 1.6 1.3.4 2.4.6 3.5.6 1.2 0 2-.1 2.6-.4.6-.3.8-.7.8-1.3 0-.4-.1-.7-.3-.9-.2-.2-.5-.4-.9-.6-.4-.2-1.1-.5-2-.8-2.1-.8-3.6-1.7-4.5-2.9-.9-1.2-1.4-2.6-1.4-4.4 0-2.5.9-4.5 2.7-5.9 1.8-1.5 4.3-2.2 7.4-2.2 1.5 0 3 .2 4.5.6 1.5.4 2.8.9 3.8 1.6l-1.8 6c-1-.6-2.1-1.1-3.3-1.5-1.2-.4-2.2-.6-3.1-.6-1.7 0-2.6.5-2.6 1.5 0 .3.1.6.3.8.2.2.5.4.9.6.4.2 1 .5 1.8.8 2.3.9 3.9 1.9 4.8 3 .9 1.1 1.4 2.6 1.4 4.5 0 2.6-1 4.6-2.9 6.1s-4.5 2.2-7.9 2.2zm24.8 0c-3.3 0-5.9-.8-7.7-2.4-1.8-1.6-2.7-3.8-2.7-6.7 0-1.1.1-2.3.4-3.8L26 40.6h7.9l-2.5 12.8c-.2.7-.2 1.4-.2 2.1 0 1.1.2 2 .7 2.5.5.5 1.3.8 2.3.8 1.2 0 2.2-.4 2.9-1.1.7-.8 1.2-2 1.6-3.8l2.6-13.3h7.9l-2.8 14.2c-.7 3.8-2.1 6.5-4.2 8.3-2.1 1.8-4.9 2.6-8.6 2.6zm20.1-25.1h8c3.2 0 5.7.7 7.4 2 1.7 1.3 2.6 3.3 2.6 5.7 0 3.2-1 5.5-3 7.2-2 1.6-4.9 2.5-8.8 2.5h-2.1l-1.4 7.2h-7.5l4.8-24.6zm5.2 11.8h1.2c1.3 0 2.4-.3 3.1-.9.7-.6 1.1-1.5 1.1-2.7 0-.8-.3-1.4-.8-1.9-.6-.4-1.4-.6-2.4-.6h-.8l-1.4 6.1zm17.6-11.8h17.2l-1.1 5.9H82.5l-.7 3.4h8.8l-1.1 5.9h-8.8l-.7 3.6h10.9l-1.1 5.9h-18l4.7-24.7zm22.4 0h7.8c3.3 0 5.9.6 7.6 1.9 1.7 1.3 2.6 3.2 2.6 5.6 0 1.8-.4 3.4-1.3 4.7-.9 1.3-2.1 2.3-3.7 3l4.4 9.4h-8.2l-2.7-7.7h-2.3l-1.5 7.7h-7.5l4.8-24.6zm5.2 11.6h1.2c2.7 0 4.1-1.2 4.1-3.6 0-.8-.3-1.4-.8-1.9-.6-.4-1.4-.6-2.4-.6h-.8l-1.3 6.1zm24.2 13.5c-1.6 0-3.1-.2-4.7-.6-1.6-.4-2.9-1-4.1-1.7l1.7-6.1c.9.7 2 1.2 3.3 1.6 1.3.4 2.4.6 3.5.6 1.2 0 2-.1 2.6-.4.6-.3.8-.7.8-1.3 0-.4-.1-.7-.3-.9-.2-.2-.5-.4-.9-.6-.4-.2-1.1-.5-2-.8-2.1-.8-3.6-1.7-4.5-2.9-.9-1.2-1.4-2.6-1.4-4.4 0-2.5.9-4.5 2.7-5.9 1.8-1.5 4.3-2.2 7.4-2.2 1.5 0 3 .2 4.5.6 1.5.4 2.8.9 3.8 1.6l-1.8 6c-1-.6-2.1-1.1-3.3-1.5-1.2-.4-2.2-.6-3.1-.6-1.7 0-2.6.5-2.6 1.5 0 .3.1.6.3.8.2.2.5.4.9.6.4.2 1 .5 1.8.8 2.3.9 3.9 1.9 4.8 3 .9 1.1 1.4 2.6 1.4 4.5 0 2.6-1 4.6-2.9 6.1s-4.5 2.2-7.9 2.2zm24.6 0c-3.3 0-5.9-.8-7.7-2.4-1.8-1.6-2.7-3.8-2.7-6.7 0-1.1.1-2.3.4-3.8l2.4-12.2h7.9l-2.5 12.8c-.2.7-.2 1.4-.2 2.1 0 1.1.2 2 .7 2.5.5.5 1.3.8 2.3.8 1.2 0 2.2-.4 2.9-1.1.7-.8 1.2-2 1.6-3.8l2.6-13.3h7.9l-2.8 14.2c-.7 3.8-2.1 6.5-4.2 8.3-2 1.8-4.9 2.6-8.6 2.6zm19.9-25.1h8c3.2 0 5.7.7 7.4 2 1.7 1.3 2.6 3.3 2.6 5.7 0 3.2-1 5.5-3 7.2-2 1.6-4.9 2.5-8.8 2.5h-2.1l-1.4 7.2H168l4.8-24.6zm5.2 11.8h1.2c1.3 0 2.4-.3 3.1-.9.7-.6 1.1-1.5 1.1-2.7 0-.8-.3-1.4-.8-1.9-.6-.4-1.4-.6-2.4-.6h-.8l-1.4 6.1zm17.1-11.8h17.2l-1.1 5.9H201l-.7 3.4h8.8l-1.1 5.9h-8.8l-.7 3.6h10.9l-1.1 5.9h-18l4.8-24.7zm22 0h7.8c3.3 0 5.9.6 7.6 1.9 1.7 1.3 2.6 3.2 2.6 5.6 0 1.8-.4 3.4-1.3 4.7-.9 1.3-2.1 2.3-3.7 3l4.4 9.4h-8.2l-2.7-7.7h-2.3l-1.5 7.7h-7.5l4.8-24.6zm5.2 11.6h1.2c2.7 0 4.1-1.2 4.1-3.6 0-.8-.3-1.4-.8-1.9-.6-.4-1.4-.6-2.4-.6h-.8l-1.3 6.1z"/><path class="st2" d="M62.2 74.5H173v10.3H62.2z"/><text transform="translate(62.155 82.833)" class="st1 st3 st4">Shop. Save. Super.</text></svg>