<svg id="Layer_1" data-name="Layer 1" xmlns="http://www.w3.org/2000/svg" viewBox="0 0 507.09 121.03"><defs><style>.cls-1{fill:#231f20;}</style></defs><title>Lorna_Jane_Logo</title><path class="cls-1" d="M230.59,146.17L219.28,175.5l26.16,0h1.49a12.67,12.67,0,0,0,11.89-8.25l11.23-29.33-27.51,0h-0.08A12.66,12.66,0,0,0,230.59,146.17Zm-5,25,9-23a9.19,9.19,0,0,1,8.62-5.94l20.56,0-8.9,23a9.18,9.18,0,0,1-8.62,5.93h-20.6Z" transform="translate(-37.89 -137.91)"/><path class="cls-1" d="M317,138l-11.24,29.33a12.66,12.66,0,0,1-11.88,8.25h-1.49l-26.16,0,11.31-29.33A12.67,12.67,0,0,1,289.45,138H317Zm-26.88,4.33a9.19,9.19,0,0,0-8.62,5.94l-9,23h20.61a9.18,9.18,0,0,0,8.62-5.93l8.9-23Z" transform="translate(-37.89 -137.91)"/><path class="cls-1" d="M336,138a12.68,12.68,0,0,0-11.89,8.26l-11.31,29.33,26.17,0h1.49a12.67,12.67,0,0,0,11.89-8.25L363.58,138Zm21.25,4.37-8.9,23a9.19,9.19,0,0,1-8.62,5.93H319.14l8.95-23a9.18,9.18,0,0,1,8.63-5.93Z" transform="translate(-37.89 -137.91)"/><polygon class="cls-1" points="0 88.36 0 50.55 9.28 50.55 9.28 81.29 38.98 81.29 38.98 88.36 0 88.36"/><path class="cls-1" d="M95.58,219H126V195.45H95.58V219ZM86.35,197.4q0-5.36,2.05-7.15t7.78-1.79h29.24q5.72,0,7.78,1.79t2.06,7.15v19.93q0,5.27-2.1,7.11t-7.73,1.83H96.19q-5.73,0-7.78-1.83t-2.05-7.11V197.4" transform="translate(-37.89 -137.91)"/><path class="cls-1" d="M177.72,195h-21v10.5h21q4.21,0,4.2-3V198q0-3.05-4.2-3.05m-30.14,31.3V188.46h34.06q8.85,0,8.85,7.34v8.94q0,7.24-8.85,7.24h-5.19l18,14.29H181.2L165.39,212h-8.66v14.29h-9.14" transform="translate(-37.89 -137.91)"/><polygon class="cls-1" points="167.85 88.36 167.85 50.55 174.21 50.55 206.32 75.67 206.32 50.55 214.61 50.55 214.61 88.36 208.26 88.36 176.24 62.88 176.24 88.36 167.85 88.36"/><path class="cls-1" d="M279.73,211.09h17.34l-8.85-15.75Zm-17.88,15.18,22.45-37.81h8.86L316,226.27H305.58L300.84,218h-25l-4.74,8.29h-9.21" transform="translate(-37.89 -137.91)"/><path class="cls-1" d="M342.5,226.27q-5.72,0-7.82-1.84t-2.1-7.12v-7.87l9.28-1.7V219.2h18.08V188.46h9.28v28.87q0,5.27-2.1,7.11t-7.82,1.83H342.5" transform="translate(-37.89 -137.91)"/><path class="cls-1" d="M396.49,211.09h17.35L405,195.34Zm-17.88,15.18,22.45-37.81h8.86l22.81,37.81H422.34L417.6,218h-25l-4.74,8.29h-9.21" transform="translate(-37.89 -137.91)"/><polygon class="cls-1" points="404.23 88.36 404.23 50.55 410.58 50.55 442.7 75.67 442.7 50.55 450.99 50.55 450.99 88.36 444.64 88.36 412.62 62.88 412.62 88.36 404.23 88.36"/><polygon class="cls-1" points="466.05 88.36 466.05 50.55 506.64 50.55 506.64 57.25 475.33 57.25 475.33 65.5 493.59 65.5 493.59 72.01 475.33 72.01 475.33 81.29 507.09 81.29 507.09 88.36 466.05 88.36"/><path class="cls-1" d="M75.38,242.5h2L82,256l4.43-13.51h1.5L92.35,256,97,242.5h1.92l-5.77,16.28H91.57l-4.43-13.11-4.46,13.11H81.15Z" transform="translate(-37.89 -137.91)"/><path class="cls-1" d="M102.95,250.63v0a8.24,8.24,0,1,1,16.49,0s0,0,0,0A8.24,8.24,0,1,1,102.95,250.63Zm14.59,0v0a6.43,6.43,0,0,0-6.37-6.67,6.35,6.35,0,0,0-6.33,6.63v0a6.43,6.43,0,0,0,6.37,6.67A6.35,6.35,0,0,0,117.54,250.63Z" transform="translate(-37.89 -137.91)"/><path class="cls-1" d="M125.6,242.5h1.85l5.89,8.82,5.89-8.82h1.85v16.16h-1.82V245.57l-5.89,8.66h-0.09l-5.89-8.64v13.07H125.6V242.5Z" transform="translate(-37.89 -137.91)"/><path class="cls-1" d="M147.94,242.5h11.68v1.66h-9.86v5.52h8.82v1.66h-8.82V257h10v1.66h-11.8V242.5Z" transform="translate(-37.89 -137.91)"/><path class="cls-1" d="M165.72,242.5h1.71l10.18,13v-13h1.78v16.16h-1.45L167.5,245.41v13.25h-1.78V242.5Z" transform="translate(-37.89 -137.91)"/><path class="cls-1" d="M185.16,246.93c1.15-.42,1.64-1,1.55-2h-0.83V242.5H188v2.08a2.84,2.84,0,0,1-2.56,3.16Z" transform="translate(-37.89 -137.91)"/><path class="cls-1" d="M193.17,256.31L194.3,255a7.7,7.7,0,0,0,5.54,2.29c2.17,0,3.6-1.15,3.6-2.75v0c0-1.5-.81-2.35-4.2-3.07-3.72-.81-5.43-2-5.43-4.66v0c0-2.54,2.24-4.41,5.31-4.41a8.43,8.43,0,0,1,5.68,2l-1.06,1.41a7.1,7.1,0,0,0-4.66-1.75c-2.1,0-3.44,1.15-3.44,2.61v0c0,1.52.83,2.38,4.39,3.14s5.26,2.1,5.26,4.57v0c0,2.77-2.31,4.57-5.52,4.57A9.46,9.46,0,0,1,193.17,256.31Z" transform="translate(-37.89 -137.91)"/><path class="cls-1" d="M224.82,244.19h-5.43V242.5h12.7v1.69h-5.43v14.48h-1.85V244.19Z" transform="translate(-37.89 -137.91)"/><path class="cls-1" d="M237.82,242.5H249.5v1.66h-9.86v5.52h8.82v1.66h-8.82V257h10v1.66h-11.8V242.5Z" transform="translate(-37.89 -137.91)"/><path class="cls-1" d="M254.88,250.63v0a8.14,8.14,0,0,1,8.17-8.36,8.41,8.41,0,0,1,6.3,2.56l-1.25,1.34a7,7,0,0,0-5.08-2.22,6.34,6.34,0,0,0-6.26,6.63v0a6.38,6.38,0,0,0,6.26,6.67,7,7,0,0,0,5.22-2.33l1.2,1.18a8.42,8.42,0,0,1-6.47,2.84A8.06,8.06,0,0,1,254.88,250.63Z" transform="translate(-37.89 -137.91)"/><path class="cls-1" d="M274.94,242.5h1.82v7.18h9.33V242.5h1.82v16.16h-1.82v-7.27h-9.33v7.27h-1.82V242.5Z" transform="translate(-37.89 -137.91)"/><path class="cls-1" d="M294.79,242.5h1.71l10.18,13v-13h1.78v16.16H307l-10.44-13.25v13.25h-1.78V242.5Z" transform="translate(-37.89 -137.91)"/><path class="cls-1" d="M315.5,242.5h1.82v16.16H315.5V242.5Z" transform="translate(-37.89 -137.91)"/><path class="cls-1" d="M323.65,250.63v0a8.14,8.14,0,0,1,8.17-8.36,8.41,8.41,0,0,1,6.3,2.56l-1.25,1.34a7,7,0,0,0-5.08-2.22,6.34,6.34,0,0,0-6.26,6.63v0a6.38,6.38,0,0,0,6.26,6.67,7,7,0,0,0,5.22-2.33l1.2,1.18a8.42,8.42,0,0,1-6.47,2.84A8.06,8.06,0,0,1,323.65,250.63Z" transform="translate(-37.89 -137.91)"/><path class="cls-1" d="M349.69,242.38h1.71l7.37,16.28h-2l-1.89-4.27h-8.8l-1.92,4.27h-1.87Zm4.5,10.37-3.67-8.24-3.69,8.24h7.37Z" transform="translate(-37.89 -137.91)"/><path class="cls-1" d="M364.26,242.5h1.82V257h9.1v1.69H364.26V242.5Z" transform="translate(-37.89 -137.91)"/><path class="cls-1" d="M390.09,242.5h11.61v1.69h-9.79V250h8.75v1.66h-8.75v7h-1.82V242.5Z" transform="translate(-37.89 -137.91)"/><path class="cls-1" d="M411.68,242.38h1.71l7.37,16.28h-2l-1.89-4.27h-8.8l-1.92,4.27h-1.87Zm4.5,10.37-3.67-8.24-3.69,8.24h7.37Z" transform="translate(-37.89 -137.91)"/><path class="cls-1" d="M424.86,256.31L426,255a7.7,7.7,0,0,0,5.54,2.29c2.17,0,3.6-1.15,3.6-2.75v0c0-1.5-.81-2.35-4.2-3.07-3.72-.81-5.43-2-5.43-4.66v0c0-2.54,2.24-4.41,5.31-4.41a8.43,8.43,0,0,1,5.68,2l-1.06,1.41a7.1,7.1,0,0,0-4.66-1.75c-2.1,0-3.44,1.15-3.44,2.61v0c0,1.52.83,2.38,4.39,3.14s5.26,2.1,5.26,4.57v0c0,2.77-2.31,4.57-5.52,4.57A9.46,9.46,0,0,1,424.86,256.31Z" transform="translate(-37.89 -137.91)"/><path class="cls-1" d="M443,242.5h1.82v7.18h9.33V242.5H456v16.16h-1.82v-7.27h-9.33v7.27H443V242.5Z" transform="translate(-37.89 -137.91)"/><path class="cls-1" d="M463,242.5h1.82v16.16H463V242.5Z" transform="translate(-37.89 -137.91)"/><path class="cls-1" d="M471.17,250.63v0a8.24,8.24,0,1,1,16.49,0s0,0,0,0A8.24,8.24,0,1,1,471.17,250.63Zm14.59,0v0a6.43,6.43,0,0,0-6.37-6.67,6.35,6.35,0,0,0-6.33,6.63v0a6.43,6.43,0,0,0,6.37,6.67A6.35,6.35,0,0,0,485.76,250.63Z" transform="translate(-37.89 -137.91)"/><path class="cls-1" d="M493.82,242.5h1.71l10.18,13v-13h1.78v16.16H506L495.6,245.41v13.25h-1.78V242.5Z" transform="translate(-37.89 -137.91)"/></svg>