<svg id="Layer_1" data-name="Layer 1" xmlns="http://www.w3.org/2000/svg" viewBox="0 0 530.96 110.38"><defs><style>.cls-1,.cls-3{fill:#9f908a;}.cls-1{stroke:#240000;}.cls-1,.cls-2,.cls-5{fill-rule:evenodd;}.cls-2{fill:#e81d2a;}.cls-4,.cls-5{fill:#6eaed0;}.cls-6{fill:#231f20;}</style></defs><title>OPSM_Logo</title><path class="cls-1" d="M159.49,172.23" transform="translate(-27.96 -146.6)"/><path class="cls-2" d="M348.47,176.77c6.75-5.46,13.16-12.34,24.66-12.09,15.32,0.35,26.38,13.41,26.2,30.24-0.25,23.19-18,40.15-32.75,51.58-3.8,3-12.38,10.46-17.33,10.48-4.2,0-14.27-7.54-17.72-10.07-14.65-10.73-32.33-28-32.76-51.19-0.29-16.3,9.9-29.67,24.66-31,12.91-1.2,18,5.57,25,12.09" transform="translate(-27.96 -146.6)"/><path class="cls-3" d="M61.27,176.6S28.63,176.44,28,208.39c1.69,32.47,31.79,31.46,33.31,31.28s30.44,1,33-31.28C94.42,175.59,61.27,176.6,61.27,176.6Zm22.92,31.63c-1.95,25.19-19.79,27.39-22.92,27.31-2.28,0-23.17.08-23-27.31,1.86-28.07,23.34-27.06,23.34-27.06S85.29,180.66,84.19,208.23Z" transform="translate(-27.96 -146.6)"/><path class="cls-3" d="M139.06,192.84C138.39,176,120,178.55,118.22,178c-0.34-.08-17,0-17,0v60.72a37.09,37.09,0,0,1,4.9-.18c3.89,0,4.39-4.57,4.39-4.57V209.75h10C123.84,209.75,139.91,209.92,139.06,192.84ZM118.43,205h-7.78V185.23s-0.25-1.94,3.13-2.45c7.27-.17,15.48-0.17,15.65,11.08C128.83,205.6,118.43,205,118.43,205Z" transform="translate(-27.96 -146.6)"/><path class="cls-3" d="M176.86,178.54v8.29s-17-9.47-23.76-.08c-3.3,7.43,2.36,10.48,4.65,12.42,0,0,14.12,7.69,14.29,7.87s9.39,5.26,8.46,15.05c0.08,10.82-8.28,17.33-20.12,17.33S144,237.57,144,237.57v-8.12s7,4.57,15.14,4.31c6.59-.17,11.75-1.77,12.18-10.23-0.06-9-15.14-13.14-17.42-15-3.64-2.11-10.49-5.75-10.61-15.89s8.81-15.6,19.34-15.73S176.86,178.54,176.86,178.54Z" transform="translate(-27.96 -146.6)"/><path class="cls-3" d="M183.45,238.58L192,178h4.56s5.07-.33,7,3.81c2,4.65,15.64,44.47,15.64,44.47l16.57-48.37H242a7.11,7.11,0,0,1,6.76,6.09c1,6,5.16,49.29,5.16,49.29s0.34,5.32-4,5.24-6,0-6,0L239,187.17l-17.25,51.5H213.3l-17-51.24-6.51,51.24Z" transform="translate(-27.96 -146.6)"/><rect class="cls-4" x="479.44" y="147.2" width="6.9" height="18.27" transform="translate(-52.42 -4.8) rotate(-16.3)"/><polygon class="cls-5" points="433.25 30.23 428.16 34.88 415.84 21.39 420.94 16.74 433.25 30.23"/><rect class="cls-4" x="541.08" y="168.96" width="18.26" height="6.9" transform="translate(23.97 315.91) rotate(-47.61)"/><path class="cls-5" d="M556.27,208.72l-0.06.15a2.36,2.36,0,0,1-.26.69c-0.11.28-.22,0.55-0.33,0.81-0.22.51-.45,1-0.68,1.53-0.44,1-.92,1.88-1.43,2.79a50.43,50.43,0,0,1-3.4,5.29,57.4,57.4,0,0,1-8.57,9.26,62.62,62.62,0,0,1-23,12.71,60,60,0,0,1-41-2.4A61.92,61.92,0,0,1,458.69,227a50.86,50.86,0,0,1-11.63-16.81c-0.14-.34-0.29-0.7-0.42-1.07l-0.2-.54c0.14-.29.28-0.6,0.42-0.9,0.51-1.07,1.05-2.13,1.62-3.18,1.14-2.09,2.37-4.12,3.69-6.1a55.47,55.47,0,0,1,8.6-10.47,47.49,47.49,0,0,1,5.13-4.07c1.8-1.25,3.6-2.51,5.48-3.63a57.93,57.93,0,0,1,11.82-5.35,59.11,59.11,0,0,1,25.66-2.4,57,57,0,0,1,21.9,7.55,63,63,0,0,1,16.91,14.87,69.63,69.63,0,0,1,8.58,13.82m-55,29.72a30.14,30.14,0,1,0-1.75,0c0.59,0,1.17,0,1.75,0" transform="translate(-27.96 -146.6)"/><path class="cls-6" d="M487.86,208.13a13.37,13.37,0,1,1,13.37,13.37,13.38,13.38,0,0,1-13.37-13.37" transform="translate(-27.96 -146.6)"/><polygon class="cls-5" points="486.02 17.54 492.64 19.47 497.77 1.94 491.15 0 486.02 17.54"/></svg>