<?xml version="1.0" encoding="utf-8"?>
<!-- Generator: Adobe Illustrator 19.2.1, SVG Export Plug-In . SVG Version: 6.00 Build 0)  -->
<svg version="1.1" id="Layer_1" xmlns="http://www.w3.org/2000/svg" xmlns:xlink="http://www.w3.org/1999/xlink" x="0px" y="0px"
	 viewBox="0 0 433.4 72.9" style="enable-background:new 0 0 433.4 72.9;" xml:space="preserve">
<g>
	<path d="M305.2,12.9l-6.3,0c-12.7,0-22,3-22,16.2l0,9c0,13.1,9.3,16.2,22,16.2l6.3,0c6.1,0,11.4-0.9,15.3-3.1l0,3.1l6.7,0l0-25.2
		C327.2,16,317.9,12.9,305.2,12.9 M320.5,37.7c0,9.3-5.5,11.1-13.3,11.1h-10.4c-7.8,0-13.3-1.8-13.3-11.1l0-8.3
		c0-9.3,5.5-11.1,13.3-11.1l10.4,0c7.8,0,13.3,1.8,13.3,11.1V37.7z"/>
	<path d="M249.4,12.8h-0.9c-8.1,0-14.7,1.2-18.5,5.6c-3.8-4.3-10.5-5.6-18.7-5.6l-0.1,0c-6.2,0-11.4,1.4-15.2,4.3l0-4h-6.4l0,40.9
		l6.7,0l0-24.6c0-9.3,5.5-11.1,13.3-11.1l3.7,0c7.8,0,13.3,1.8,13.3,11.1v24.6l0,0l6.7,0v0V29.4c0-9.3,5.5-11.1,13.3-11.1l4.8,0
		c7.8,0,13.3,1.8,13.3,11.1l0,24.6l6.7,0V29C271.4,15.8,262.2,12.8,249.4,12.8"/>
	<path d="M85.1,12.9l-7.2,0c-12.7,0-22,3.1-22,16.2v8.8c0,13.1,9.3,16.2,22,16.2l7.1,0c12.7,0,22-3,22-16.2l0-8.8
		C107.1,15.9,97.8,12.9,85.1,12.9 M100.4,37.4c0,9.3-5.5,11.1-13.3,11.1l-11.2,0c-7.8,0-13.3-1.8-13.3-11.1v-8
		c0-9.3,5.5-11.1,13.3-11.1l11.2,0c7.8,0,13.3,1.8,13.3,11.1L100.4,37.4z"/>
	<path d="M29.2,12.9H22c-12.7,0-22,3-22,16.2l0,43.9h6.7l0-22C10.6,53.1,15.9,54,22,54l7.2,0c12.7,0,22-3.1,22-16.2l0-8.8
		C51.2,16,41.9,12.9,29.2,12.9 M44.5,37.4c0,9.3-5.5,11.1-13.3,11.1H20c-7.8,0-13.3-1.8-13.3-11.1v-8c0-9.3,5.5-11.1,13.3-11.1
		l11.2,0c7.8,0,13.3,1.8,13.3,11.1L44.5,37.4z"/>
	<path d="M359.4,13l-4.7,0c-6.3,0-11.8,1.5-15.7,4.5l0-3.6l-6.3,0v40l6.7,0V29.5c0-9.3,5.5-11.1,13.3-11.1l8.7,0
		c7.8,0,13.3,1.8,13.3,11.1v24.3l6.7,0l0-24.7C381.4,16,372.2,13,359.4,13"/>
	<path d="M417.3,30.6l-17.7,0c-6.7,0-7.7-1.9-7.7-5.2V24c0-4.5,2-5.5,11.1-5.5h12c5.2,0,8.7,0.1,10.1,2.7l5.8-2.9
		c-1.5-3.2-5.5-5.3-15.5-5.3l-10.6,0c-15.7,0-19.2,3.6-19.2,10.1v2.4c0,7.6,3.3,10.6,12.3,10.6l20.5,0c7.7,0,8.7,2.1,8.7,5.9v0.3
		c0,6-3,6.3-12.6,6.3h-14.5c-3.9,0-6.4-0.7-7.7-2.4l-5.8,2.6c2.9,5.2,9.7,5.2,16.8,5.3l12.6,0c7.8,0,17.6-0.4,17.6-11.6l0-0.2
		C433.4,31.6,426.8,30.6,417.3,30.6"/>
	<path d="M134.9,12.9c-6.1,0-11.4,0.8-15.3,2.9l0-2.9h-6.7l0,41l6.7,0l0-24.4c0-9.3,5.5-11.1,13.3-11.1c0,0,10,0.1,11.3,2.7l5.5-2.9
		C147.6,13.2,134.9,12.9,134.9,12.9"/>
	<path d="M178.8,48.6c2.7,0,6.2-0.4,6.2-0.4l0,5.8c-0.1,0-2.4,0.5-5.1,0.5c-3.7,0-21.7,0.6-21.7-13.6c0-1.1,0-22.3,0-22.3l-0.1-0.2
		l-4.9,0l0-5.4h4.9L158,0l7,0l0,12.9h17.4l0,5.4l-17.4,0c0,0,0,17.5,0,20.6C165.1,45.3,168.2,48.6,178.8,48.6"/>
</g>
</svg>
