<?xml version="1.0" encoding="utf-8"?>
<!-- Generator: Adobe Illustrator 19.2.1, SVG Export Plug-In . SVG Version: 6.00 Build 0)  -->
<svg version="1.1" id="Layer_1" xmlns="http://www.w3.org/2000/svg" xmlns:xlink="http://www.w3.org/1999/xlink" x="0px" y="0px"
	 viewBox="0 0 237.3 221.8" style="enable-background:new 0 0 237.3 221.8;" xml:space="preserve">
<style type="text/css">
	.st0{fill:#FFFFFF;}
	.st1{fill:#EB2532;}
	.st2{fill:#009D56;}
	.st3{fill:#FEDF13;}
	.st4{fill:#00549F;}
	.st5{fill:#010101;}
	.st6{fill:none;}
</style>
<g>
	<rect y="133" class="st0" width="237.3" height="44.4"/>
	<rect y="177.4" class="st1" width="237.3" height="44.4"/>
	<rect y="44.4" class="st2" width="237.3" height="44.4"/>
	<rect y="88.6" class="st3" width="237.3" height="44.4"/>
	<rect y="0" class="st4" width="237.3" height="44.4"/>
	<path class="st5" d="M53.4,137.8c-0.3-11.7,17.8-30,31.7-30.4c6.8-0.2,7.8,3.1,6.5,9.2c-10-3.7-31.1,11-30.8,22.9
		c0.3,11,18.3,15.6,18.6,26.3c0.2,7.3-7.5,12.5-17.7,12.8c-5.1,0.1-9.5-1.1-10.7-2.3c-2.4-2.3-1.3-4,0.7-3.2
		c1.9,0.8,2.4,1.9,7.1,1.7c8-0.2,11.5-5.4,11.4-9.4C69.9,155.4,53.8,151.9,53.4,137.8"/>
	<path class="st5" d="M143.6,143.7c-0.1-4.6,8.5-14.3,15.2-14.5c3.3-0.1,4.4,2.4,3,5.1c-4.9-0.8-12.3,7.3-12.1,12.9
		c0.2,6.4,11.1,11,11.3,17.2c0.1,4.3-4.7,6.9-9.6,7c-5.2,0.1-7.6-1.5-9.2-3c-1-1,0.3-4.4,1.2-3.3c1.3,1.6,4.5,2.7,6.3,2.7
		c3.8-0.1,4.1-1.8,4-4.2C153.5,157.8,143.9,152,143.6,143.7"/>
	<path class="st5" d="M81.2,182.4c-0.2-5.8-1.3-45.1-1.4-47.6c0,0,0-2.2-0.5-2.6c1.1-1.2,3.3-2,5-0.5c1.7,1.4,1.4,7.9,1.4,7.9
		c1.5-3.2,3.8-3.3,5.9-3.3c3.3-0.1,7.9,5.6,8.3,18.4c0.3,10.9-2.7,16.8-8.1,17c-2,0.1-4.1-0.4-4.9-1.3c0.1,4.9,0.3,9.5,0.4,12.9
		C87.4,186.7,81.3,187.4,81.2,182.4"/>
	<path class="st0" d="M89.6,166.7c-1.2,0-3.2-0.4-3.4-6.2c-0.2-7.3,2.8-18.9,4.8-19c2.2-0.1,3.3,6.5,3.5,12.7
		C94.5,159.3,93.2,166.6,89.6,166.7"/>
	<path class="st5" d="M102.5,161c-0.3-9.1,2.3-20.2,6-20.3c1.7-0.1,3.8,1.5,3.8,1.8c0,1.2-0.1,4.4,2.8,4.4c3.5-0.1,4.7-4.5,4.6-8.1
		c0.4-1.7,4.8-1.7,5.2,0c-0.2,1.3,0.2,4.9,0.2,4.9c1.5-1,1.7-1.3,4.6-1.4c3.2-0.1,4.9,2.4,4.9,4.4c0,0.8-0.7,1.3-2,0.7
		c-0.5-0.2-1.6-0.7-3-0.6c-4.4,0.1-4.6,12.1-4.1,21.4c-3.4,1.8-5.7-2.6-5.8-6.2c-0.1-3.6,0.1-9.9,0.1-13.2c-1.4,1.5-2.7,1.8-4.8,1.9
		c1.7,9.4,1.9,21.4-5.5,21.6C105.3,172.4,102.6,166.9,102.5,161"/>
	<path class="st0" d="M109.3,167.9c-0.7,0-1.8-0.8-1.9-5.3c-0.2-6.1,1.2-13.6,2.3-13.6c0.7,0,1.7,3.6,1.9,8.2
		C111.7,160.9,111,167.9,109.3,167.9"/>
	<path class="st5" d="M116.1,126.4c-3.5,0-3.6-3.1,0-3.1c3.7,0,17,0,18.3,0c2.8,0,2.4,0.1,2.4-1.5c0-1.2,0-4.1,0-6.2
		s3.7-4.6,6.2-2.1c0,0-0.4,1.3-0.3,3.2c0,0,0,3.8,0,5c0,1.7,0.7,2,2.6,2c2.4,0,16.2,0,18.1,0c3.2,0,3.4,3.1-0.2,3.1
		c-5.3,0-15.8,0-18.2,0c-2.7,0-2.8,0.4-3.2,2.2c-0.4,2.2-1.9,36.2-1.7,38.5s0,3.8,0.4,5.9c-3.6,2.4-6.3,0.3-5.4-3.8
		c0.9-3.9,1.3-37.7,1.2-40.5c-0.1-2.1-0.7-2.7-3-2.7C131.8,126.4,119.1,126.4,116.1,126.4"/>
	<path class="st5" d="M161.8,159.8c-0.3-11.9,4.5-25,11.8-25.2c2.8-0.1,6.2,0.7,6.3,4.6c0.6-1.1,3.4-0.5,3.5,1
		c-2.6,8-0.6,22,0.9,31.1c1,6.1-4.5,12.8-11.9,13c-5.6,0.2-11.5-1.8-15-6.1c-3.7-4.6-1.3-4.3,0.9-2.2c2.4,2.2,6.2,3.8,10.1,3.7
		c8.3-0.2,11.4-6.2,9.1-17.2c-3.2,3.4-4.2,5.9-7.9,6C165.2,168.5,162,165,161.8,159.8"/>
	<path class="st0" d="M174.1,139c1.3,0,2.7,1.9,2.8,5.5c0.2,7.3-4.5,20-7.1,20.1c-1.6,0-2.9-2.5-3-4.5
		C166.8,155.8,169.7,139.2,174.1,139"/>
	<path class="st5" d="M192.4,134c2.3-0.1,3.9-1.9,3.8-4.3s-1.8-4-4.1-3.9s-4.1,1.8-4,4.3C188.2,132.4,190.1,134.1,192.4,134"/>
	<path class="st5" d="M188.4,138.2c0.5-1.8,5.5-1.3,6.1-0.2c0,1.8-2.3,16-1,22c2.1,9.6,6.1-10.6,8.6-24.1c1-1.7,5.8-1.6,6.5,0.2
		c0,1.3-0.1,5.4-0.1,5.4c2.2-1.4,2.6-1.2,3.6-1.2c1.6,0,4.3,0.8,5.5,2.7c-7.8,0.2-9.2,2.1-8.6,23.1c-1.2,3-5,2.2-5.4-2
		c-0.6-5.6-0.1-10.3-0.4-13.9c-1.7,1.5-2.2,17.1-9.9,17.3C185.3,167.8,188.5,143.9,188.4,138.2"/>
	<path class="st5" d="M221.2,111.2c-0.1-3.6,7.7-2.9,6.9-1.1c-1.2,2.9-4.2,57.7-3.3,62.7c-1.8,4.2-6,2.2-6.1-2.4
		C218.6,165.9,221.3,114.1,221.2,111.2"/>
	<rect y="0" class="st6" width="237.3" height="221.8"/>
</g>
</svg>
