<?xml version="1.0" encoding="UTF-8" standalone="no"?>
<svg
   xmlns:dc="http://purl.org/dc/elements/1.1/"
   xmlns:cc="http://creativecommons.org/ns#"
   xmlns:rdf="http://www.w3.org/1999/02/22-rdf-syntax-ns#"
   xmlns:svg="http://www.w3.org/2000/svg"
   xmlns="http://www.w3.org/2000/svg"
   viewBox="0 0 705.34399 705.34399"
   height="705.34399"
   width="705.34399"
   xml:space="preserve"
   id="svg2"
   version="1.1"><metadata
     id="metadata8"><rdf:RDF><cc:Work
         rdf:about=""><dc:format>image/svg+xml</dc:format><dc:type
           rdf:resource="http://purl.org/dc/dcmitype/StillImage" /></cc:Work></rdf:RDF></metadata><defs
     id="defs6"><clipPath
       id="clipPath18"
       clipPathUnits="userSpaceOnUse"><path
         id="path16"
         d="M 0,529.008 H 529.008 V 0 H 0 Z" /></clipPath></defs><g
     transform="matrix(1.3333333,0,0,-1.3333333,0,705.344)"
     id="g10"><g
       id="g12"><g
         clip-path="url(#clipPath18)"
         id="g14"><g
           transform="translate(520.5039,53.5039)"
           id="g20"><path
             id="path22"
             style="fill:#ffffff;fill-opacity:1;fill-rule:nonzero;stroke:none"
             d="m 0,0 c 0,-24.75 -20.25,-45 -45,-45 h -422 c -24.75,0 -45,20.25 -45,45 v 422 c 0,24.75 20.25,45 45,45 h 422 c 24.75,0 45,-20.25 45,-45 z" /></g><g
           transform="translate(180.6224,314.5622)"
           id="g24"><path
             id="path26"
             style="fill:#ffd52f;fill-opacity:1;fill-rule:nonzero;stroke:none"
             d="M 0,0 48.783,105.696 171.596,49.211 150.628,0" /></g><g
           transform="translate(308.1026,422.0864)"
           id="g28"><path
             id="path30"
             style="fill:#ffd52f;fill-opacity:1;fill-rule:nonzero;stroke:none"
             d="m 0,0 c -13.329,6.131 -28.328,3.372 -37.598,-5.828 -2.404,-2.385 -4.415,-5.209 -5.919,-8.418 l 6.19,-2.847 c 1.189,2.431 2.72,4.6 4.562,6.428 7.458,7.402 19.528,9.622 30.252,4.689 13.374,-6.152 19.64,-21.127 14.229,-33.676 l 5.789,-2.663 C 24.584,-26.627 16.785,-7.721 0,0" /></g><g
           transform="translate(104.2108,218.3978)"
           id="g32"><path
             id="path34"
             style="fill:#142143;fill-opacity:1;fill-rule:nonzero;stroke:none"
             d="m 0,0 c -4.89,0 -9.797,0.629 -14.72,1.885 -4.925,1.255 -9.22,3.005 -12.887,5.246 l 5.195,19.254 c 2.92,-2.106 6.35,-3.805 10.289,-5.094 3.938,-1.291 7.606,-1.935 11.002,-1.935 3.668,0 6.383,0.44 8.15,1.324 1.765,0.882 2.649,2.241 2.649,4.075 0,1.154 -0.272,2.071 -0.815,2.75 -0.545,0.678 -1.495,1.358 -2.853,2.038 -1.359,0.678 -3.463,1.561 -6.316,2.648 -6.588,2.445 -11.342,5.484 -14.261,9.118 -2.921,3.632 -4.381,8.234 -4.381,13.803 0,7.878 2.852,14.109 8.557,18.693 5.705,4.585 13.447,6.877 23.227,6.877 4.686,0 9.456,-0.646 14.313,-1.936 4.855,-1.291 8.812,-2.954 11.868,-4.991 L 33.414,55.01 c -3.193,1.901 -6.606,3.429 -10.238,4.585 -3.634,1.154 -6.912,1.731 -9.831,1.731 -5.434,0 -8.15,-1.563 -8.15,-4.686 0,-1.018 0.288,-1.868 0.866,-2.546 0.577,-0.68 1.511,-1.342 2.802,-1.987 1.289,-0.646 3.191,-1.444 5.705,-2.394 7.131,-2.785 12.173,-5.943 15.128,-9.474 2.954,-3.532 4.431,-8.218 4.431,-14.058 0,-8.218 -3.005,-14.636 -9.016,-19.254 C 19.101,2.308 10.73,0 0,0" /></g><g
           transform="translate(182.4479,218.3978)"
           id="g36"><path
             id="path38"
             style="fill:#142143;fill-opacity:1;fill-rule:nonzero;stroke:none"
             d="m 0,0 c -10.459,0 -18.54,2.512 -24.245,7.538 -5.705,5.026 -8.557,12.088 -8.557,21.19 0,3.395 0.407,7.334 1.222,11.817 l 7.436,38.507 H 0.815 L -7.029,38.711 c -0.476,-2.31 -0.713,-4.517 -0.713,-6.622 0,-3.532 0.78,-6.147 2.343,-7.844 1.561,-1.698 3.973,-2.547 7.233,-2.547 3.871,0 6.892,1.205 9.066,3.617 2.173,2.41 3.803,6.4 4.89,11.97 l 8.15,41.767 H 48.898 L 40.137,34.33 C 37.828,22.513 33.447,13.837 26.996,8.303 20.543,2.766 11.545,0 0,0" /></g><g
           transform="translate(261.989,260.3686)"
           id="g40"><path
             id="path42"
             style="fill:#142143;fill-opacity:1;fill-rule:nonzero;stroke:none"
             d="m 0,0 h 3.667 c 4.21,0 7.419,0.968 9.627,2.904 2.206,1.935 3.311,4.77 3.311,8.506 0,2.58 -0.866,4.549 -2.598,5.908 -1.731,1.358 -4.296,2.038 -7.691,2.038 H 3.667 Z m -16.299,37.081 h 25.06 c 10.05,0 17.81,-2.123 23.277,-6.367 5.466,-4.245 8.201,-10.273 8.201,-18.082 0,-9.916 -3.142,-17.455 -9.423,-22.615 -6.283,-5.162 -15.469,-7.742 -27.556,-7.742 h -6.724 l -4.38,-22.616 h -23.532 z" /></g><g
           transform="translate(317.4062,297.4499)"
           id="g44"><path
             id="path46"
             style="fill:#142143;fill-opacity:1;fill-rule:nonzero;stroke:none"
             d="M 0,0 H 54.297 L 50.732,-18.439 H 18.846 L 16.707,-29.237 H 44.416 L 40.85,-47.676 H 13.141 L 10.9,-58.984 h 34.229 l -3.566,-18.438 h -56.64 z" /></g><g
           transform="translate(404.4485,261.1835)"
           id="g48"><path
             id="path50"
             style="fill:#142143;fill-opacity:1;fill-rule:nonzero;stroke:none"
             d="m 0,0 h 3.667 c 8.624,0 12.938,3.769 12.938,11.308 0,2.58 -0.883,4.533 -2.649,5.858 -1.766,1.324 -4.313,1.986 -7.64,1.986 H 3.667 Z M -16.401,36.266 H 8.15 c 10.526,0 18.523,-2.037 23.99,-6.112 5.466,-4.075 8.201,-9.983 8.201,-17.726 0,-5.704 -1.342,-10.612 -4.024,-14.72 -2.683,-4.11 -6.571,-7.217 -11.664,-9.321 L 38.405,-41.156 H 12.53 L 4.075,-17.012 H -3.26 l -4.686,-24.144 h -23.532 z" /></g><g
           transform="translate(104.2108,128.5237)"
           id="g52"><path
             id="path54"
             style="fill:#142143;fill-opacity:1;fill-rule:nonzero;stroke:none"
             d="m 0,0 c -4.89,0 -9.797,0.629 -14.72,1.885 -4.925,1.255 -9.22,3.005 -12.887,5.246 l 5.195,19.254 c 2.92,-2.106 6.35,-3.805 10.289,-5.094 3.938,-1.291 7.606,-1.935 11.002,-1.935 3.668,0 6.383,0.44 8.15,1.324 1.765,0.882 2.649,2.241 2.649,4.075 0,1.154 -0.272,2.071 -0.815,2.75 -0.545,0.678 -1.495,1.358 -2.853,2.038 -1.359,0.678 -3.463,1.561 -6.316,2.648 -6.588,2.445 -11.342,5.484 -14.261,9.118 -2.921,3.632 -4.381,8.234 -4.381,13.803 0,7.878 2.852,14.109 8.557,18.693 5.705,4.585 13.447,6.877 23.227,6.877 4.686,0 9.456,-0.646 14.313,-1.936 4.855,-1.291 8.812,-2.954 11.868,-4.991 L 33.414,55.01 c -3.193,1.901 -6.606,3.429 -10.238,4.585 -3.634,1.154 -6.912,1.731 -9.831,1.731 -5.434,0 -8.15,-1.563 -8.15,-4.686 0,-1.018 0.288,-1.868 0.866,-2.546 0.577,-0.68 1.511,-1.342 2.802,-1.987 1.289,-0.646 3.191,-1.444 5.705,-2.394 7.131,-2.785 12.173,-5.943 15.128,-9.474 2.954,-3.532 4.431,-8.218 4.431,-14.058 0,-8.218 -3.005,-14.636 -9.016,-19.254 C 19.101,2.308 10.73,0 0,0" /></g><g
           transform="translate(181.8556,128.5237)"
           id="g56"><path
             id="path58"
             style="fill:#142143;fill-opacity:1;fill-rule:nonzero;stroke:none"
             d="m 0,0 c -10.459,0 -18.54,2.512 -24.245,7.538 -5.705,5.026 -8.557,12.088 -8.557,21.19 0,3.395 0.407,7.334 1.222,11.817 l 7.436,38.507 H 0.815 L -7.029,38.711 c -0.476,-2.31 -0.713,-4.517 -0.713,-6.622 0,-3.532 0.78,-6.147 2.343,-7.844 1.561,-1.698 3.973,-2.547 7.233,-2.547 3.871,0 6.892,1.205 9.066,3.617 2.173,2.41 3.803,6.4 4.89,11.97 l 8.15,41.767 H 48.898 L 40.137,34.33 C 37.828,22.513 33.447,13.837 26.996,8.303 20.543,2.766 11.545,0 0,0" /></g><g
           transform="translate(260.8044,170.4944)"
           id="g60"><path
             id="path62"
             style="fill:#142143;fill-opacity:1;fill-rule:nonzero;stroke:none"
             d="m 0,0 h 3.667 c 4.21,0 7.419,0.968 9.627,2.904 2.206,1.935 3.311,4.77 3.311,8.506 0,2.58 -0.866,4.549 -2.598,5.908 -1.731,1.358 -4.296,2.038 -7.691,2.038 H 3.667 Z m -16.299,37.081 h 25.06 c 10.05,0 17.81,-2.123 23.277,-6.367 5.466,-4.245 8.201,-10.273 8.201,-18.082 0,-9.916 -3.142,-17.455 -9.423,-22.615 -6.283,-5.162 -15.469,-7.742 -27.556,-7.742 h -6.724 l -4.38,-22.616 h -23.532 z" /></g><g
           transform="translate(314.4448,207.5757)"
           id="g64"><path
             id="path66"
             style="fill:#142143;fill-opacity:1;fill-rule:nonzero;stroke:none"
             d="M 0,0 H 54.297 L 50.732,-18.439 H 18.846 L 16.707,-29.237 H 44.416 L 40.85,-47.676 H 13.141 L 10.9,-58.984 h 34.229 l -3.566,-18.438 h -56.64 z" /></g><g
           transform="translate(400.3026,171.3094)"
           id="g68"><path
             id="path70"
             style="fill:#142143;fill-opacity:1;fill-rule:nonzero;stroke:none"
             d="m 0,0 h 3.667 c 8.624,0 12.938,3.769 12.938,11.308 0,2.58 -0.883,4.533 -2.649,5.858 -1.766,1.324 -4.313,1.986 -7.64,1.986 H 3.667 Z M -16.401,36.266 H 8.15 c 10.526,0 18.523,-2.037 23.99,-6.112 5.466,-4.075 8.201,-9.983 8.201,-17.726 0,-5.704 -1.342,-10.612 -4.024,-14.72 -2.683,-4.11 -6.571,-7.217 -11.664,-9.321 L 38.405,-41.156 H 12.53 L 4.075,-17.012 H -3.26 l -4.686,-24.144 h -23.532 z" /></g></g></g></g></svg>