<svg id="Layer_1" data-name="Layer 1" xmlns="http://www.w3.org/2000/svg" viewBox="0 0 446.62 136.92"><defs><style>.cls-1{fill:#ed1c24;}.cls-2{fill:none;stroke:#ed1c24;stroke-width:0.03px;}.cls-3{fill:#fff;}.cls-4{fill:#231f20;}</style></defs><title>Target_Logo</title><path class="cls-1" d="M206.42,195.13A68.45,68.45,0,1,1,138,126.68a68.44,68.44,0,0,1,68.45,68.45" transform="translate(-69.51 -126.66)"/><circle class="cls-2" cx="68.46" cy="68.46" r="68.45"/><path class="cls-3" d="M138,150.57a44.56,44.56,0,1,0,44.56,44.56A44.56,44.56,0,0,0,138,150.57" transform="translate(-69.51 -126.66)"/><path class="cls-1" d="M138,172.74a22.38,22.38,0,1,0,22.39,22.39A22.39,22.39,0,0,0,138,172.74" transform="translate(-69.51 -126.66)"/><polygon class="cls-4" points="141.07 13.83 198.18 13.83 198.18 34.08 180.97 34.08 180.97 113.19 158.28 113.19 158.28 34.08 141.07 34.08 141.07 13.83"/><path class="cls-4" d="M286,206.58c-4.11,0-11.8,1.83-11.8,12.34,0,5.18,2.59,8.22,5.94,8.22s5.1-2.59,5.86-4.57v-16m-23.22-30.53c4.49-4.8,11-7.08,20.41-7.08,7.33,0,22.84,1.37,22.84,25.28v33.5c0,4.72,1.22,11.35,2,12.11H288.39c-1.22-2.13-1.37-6.63-1.37-6.63-4.26,4.65-10,8.08-16,8.08-10.81,0-16.6-11.8-16.6-19.65,0-10.21,3.73-23.75,31.59-26.19V188a5.35,5.35,0,0,0-5.4-5.48c-3.65,0-6,2.89-7,8.52l-16.75-1.83a23.87,23.87,0,0,1,5.94-13.17" transform="translate(-69.51 -126.66)"/><path class="cls-4" d="M332.19,199.17v40.69H312.45V170.44h18.73V179c4.27-5.48,8.92-8.32,16.9-9.9v20.4c-6.78-.91-11,0.76-13.48,3.2s-2.42,4.36-2.42,6.44" transform="translate(-69.51 -126.66)"/><path class="cls-4" d="M363.47,246.94c2.44,2.44,5.78,3,11.42,3,8.86,0,14.92-3.2,10.81-8.37-3.55-4.47-19-4.11-22.23-.92a4.41,4.41,0,0,0,0,6.24m11-44.6c2.94,0,6.72-4.18,6.72-11s-3.37-11-6.72-11-6.87,3.32-6.87,11c0,6.68,3,11,6.87,11m-4.6,10.19s-4.57-.15-4.57,3.69,4.68,4.18,7.8,4.18c10.36,0,31.22,0,31.22,19.69,0,17.2-16.6,22.23-31.22,22.23s-28.32-4.41-28.32-14.62c0-8.52,12.49-12,12.49-12-13.87-3.35-12.8-21.32,3.8-25.89-5.94-2.28-11.73-8.53-11.73-18,0-12.56,10.48-22.69,24.52-22.69a31.13,31.13,0,0,1,16.9,4.87,17.45,17.45,0,0,1,14-8.68v15.53c-2.28-.84-6.11-0.58-7.54.84a20,20,0,0,1,2.21,9.52c0,12.13-9,21.77-23.76,21.77a27.18,27.18,0,0,1-5.82-.45" transform="translate(-69.51 -126.66)"/><path class="cls-4" d="M436,196.38c0-11.26-2.44-13.55-6.4-13.55s-7.31,4-7.31,13.55H436m-34.41,11.88c0-21.93,11.12-39,28.47-39S454.91,184.8,454.91,204c0,2.13-.46,6.4-0.46,6.4H421.71c0,9.9,3,16.44,10.36,16.44,5.33,0,7.15-7.46,7.46-10.5l15.53,3.81a21.85,21.85,0,0,1-6.39,14.16,25,25,0,0,1-17.21,7c-20.49,0-29.85-16.73-29.85-33" transform="translate(-69.51 -126.66)"/><path class="cls-4" d="M455.37,170.44h5.33v-20h20.1v20H491.3v16H480.8v32.36c0,4.13.31,5.94,5.78,5.94,2,0,4.72-.31,4.72-0.31v15.53c-6.32,1.68-21.47,2.59-27-2.89-3.53-3.53-3.66-8.84-3.66-16.6v-34h-5.33v-16" transform="translate(-69.51 -126.66)"/><rect class="cls-4" x="426.52" y="91.49" width="20.1" height="21.7"/></svg>