<svg id="Layer_1" data-name="Layer 1" xmlns="http://www.w3.org/2000/svg" viewBox="0 0 398.15 75.68"><defs><style>.cls-1{fill:#004a99;}.cls-2{fill:#fff;}.cls-3{fill:#e30613;}</style></defs><title>TheGoodGuys_horizontal_Logo</title><rect class="cls-1" width="381.16" height="75.68"/><path class="cls-2" d="M26.48,57.85V28.06H19.87V17.93H44.28V28.06H37.68V57.85H26.48Z"/><path class="cls-2" d="M45.68,17.93H56.82V32.26h4.76V17.93H72.72V57.85H61.58V42.23H56.82V57.85H45.68V17.93Z"/><path class="cls-2" d="M75.07,17.93H94.89v9.69H86.27v5.1H94v9.35H86.27v5.49h8.62v10.3H75.07V17.93Z"/><path class="cls-2" d="M139.11,38.14c0,13.83-4.42,20.49-14,20.49-9.35,0-14.95-7.33-14.95-20.72s5.54-20.77,15.17-20.77c6.94,0,11.09,3.08,13.27,9.74l-9.69,3.3c-0.84-2.69-1.9-3.92-3.75-3.92-3.08,0-3.75,3.58-3.75,11.14s0.67,11,3.7,11c2.07,0,3.08-1.74,3.08-5.21V42.67h-3.3V34.56H139C139.06,35.79,139.11,37,139.11,38.14Z"/><path class="cls-2" d="M156,17.14c9.35,0,14.89,7.39,14.89,20.77S165.31,58.63,156,58.63,141,51.3,141,37.91,146.61,17.14,156,17.14Zm0,31.3c3,0,3.64-3.36,3.64-10.81S159,26.83,156,26.83s-3.7,3.42-3.7,10.81S152.94,48.44,156,48.44Z"/><path class="cls-2" d="M187.81,17.14c9.35,0,14.89,7.39,14.89,20.77s-5.54,20.72-14.89,20.72-14.95-7.33-14.95-20.72S178.46,17.14,187.81,17.14Zm0,31.3c3,0,3.64-3.36,3.64-10.81s-0.62-10.81-3.64-10.81-3.7,3.42-3.7,10.81S184.79,48.44,187.81,48.44Z"/><path class="cls-2" d="M213.23,17.93c6.49,0,10.86.62,14.84,4.87,2.86,3.13,4.42,8.23,4.42,15.12,0,13.21-5.71,19.93-16.8,19.93H204.94V17.93h8.29Zm2.86,29.84h0.5c3.7,0,4.65-3.14,4.65-10.08s-0.9-10.19-4.76-10.19h-0.39V47.77Z"/><path class="cls-2" d="M275.93,38.14c0,13.83-4.42,20.49-14,20.49-9.35,0-14.95-7.33-14.95-20.72s5.54-20.77,15.17-20.77c6.94,0,11.09,3.08,13.27,9.74l-9.69,3.3c-0.84-2.69-1.9-3.92-3.75-3.92-3.08,0-3.75,3.58-3.75,11.14s0.67,11,3.7,11c2.07,0,3.08-1.74,3.08-5.21V42.67h-3.3V34.56h14.11C275.87,35.79,275.93,37,275.93,38.14Z"/><path class="cls-2" d="M277.72,17.93h11.14V44.63c0,2.3.78,3.42,2.58,3.42S294,46.93,294,44.63V17.93h11.2V43.57c0,10.36-4.2,15.06-13.77,15.06s-13.72-4.7-13.72-15.06V17.93Z"/><path class="cls-2" d="M317.24,17.93l3,12.26,3-12.26H335l-9.24,23.91v16H314.72v-16l-9.24-23.91h11.76Z"/><path class="cls-2" d="M341,48.44a2.85,2.85,0,0,0,3.08-2.8c0-1.45-1.23-2.57-3-4.25-4.7-4.37-7.84-7.45-7.84-12.65,0-6.66,5-11.59,12.26-11.59a21.25,21.25,0,0,1,9,2.29V29.8c-2.69-2.13-5-3.19-6.94-3.19-1.73,0-2.8,1-2.8,2.41,0,1.62,1.34,2.58,3.19,4,5,4,8,6.77,8,12.65,0,7.78-5.32,12.93-13.49,12.93a16.8,16.8,0,0,1-9.29-3v-11C336.44,47.21,339.13,48.44,341,48.44Z"/><path class="cls-2" d="M362.32,17.78a3.64,3.64,0,0,1,1,2.59,3.58,3.58,0,0,1-1.1,2.64,3.76,3.76,0,0,1-2.61,1.08A3.63,3.63,0,0,1,357,23a3.67,3.67,0,0,1-1.07-2.58,3.74,3.74,0,0,1,1.13-2.66,3.59,3.59,0,0,1,2.57-1A3.67,3.67,0,0,1,362.32,17.78Zm-4.78.41a3.06,3.06,0,0,0-.92,2.19,3.06,3.06,0,0,0,3,3,3.08,3.08,0,0,0,2.15-.87,3,3,0,0,0,.89-2.16,3,3,0,0,0-3-3A2.94,2.94,0,0,0,357.54,18.19Zm2.18,0.07c1.17,0,1.76.42,1.76,1.18a1.11,1.11,0,0,1-.86,1.1l0.91,1.79h-1.23l-0.76-1.62H359.2v1.62h-1.12V18.26h1.64Zm-0.52,1.79h0.4c0.49,0,.73-0.17.73-0.53S360.08,19,359.54,19H359.2v1.09Z"/><rect class="cls-3" x="383.98" width="14.17" height="75.65"/></svg>