<?xml version="1.0" encoding="utf-8"?>
<!-- Generator: Adobe Illustrator 19.2.1, SVG Export Plug-In . SVG Version: 6.00 Build 0)  -->
<svg version="1.1"
	 id="svg2985" inkscape:version="0.48.5 r10040" sodipodi:docname="Ticketek_Brand_Guidelines_2014.pdf" xmlns:cc="http://creativecommons.org/ns#" xmlns:dc="http://purl.org/dc/elements/1.1/" xmlns:inkscape="http://www.inkscape.org/namespaces/inkscape" xmlns:rdf="http://www.w3.org/1999/02/22-rdf-syntax-ns#" xmlns:sodipodi="http://sodipodi.sourceforge.net/DTD/sodipodi-0.dtd" xmlns:svg="http://www.w3.org/2000/svg"
	 xmlns="http://www.w3.org/2000/svg" xmlns:xlink="http://www.w3.org/1999/xlink" x="0px" y="0px" viewBox="0 0 1000 413.2"
	 style="enable-background:new 0 0 1000 413.2;" xml:space="preserve">
<style type="text/css">
	.st0{opacity:0.5;clip-path:url(#SVGID_2_);}
	.st1{fill:#00AEEF;}
</style>
<sodipodi:namedview  bordercolor="#666666" borderopacity="1" fit-margin-bottom="0.5" fit-margin-left="0.5" fit-margin-right="0.5" fit-margin-top="0.5" gridtolerance="10" guidetolerance="10" id="namedview2987" inkscape:current-layer="g2993" inkscape:cx="461.46113" inkscape:cy="10.278037" inkscape:pageopacity="0" inkscape:pageshadow="2" inkscape:window-height="1030" inkscape:window-maximized="0" inkscape:window-width="1054" inkscape:window-x="861" inkscape:window-y="-13" inkscape:zoom="0.5148182" objecttolerance="10" pagecolor="#ffffff" showgrid="false">
	</sodipodi:namedview>
<g id="g2995">
	<g id="g2997">
		<g id="g3005">
		</g>
		<g id="g3003">
			<g id="g3011">
				<defs>
					<rect id="SVGID_1_" x="-463.9" y="675.9" width="291.7" height="14.5"/>
				</defs>
				<clipPath id="SVGID_2_">
					<use xlink:href="#SVGID_1_"  style="overflow:visible;"/>
				</clipPath>
				<g id="g3013" class="st0">
				</g>
			</g>
		</g>
	</g>
</g>
<g id="g3029">
	<g id="g3035" transform="translate(698.3719,266.4345)">
		<path id="path3037" inkscape:connector-curvature="0" class="st1" d="M280.5,39.1c-2.4,0-704.3,0-704.3,0s-2.1,0.2-3.1-1.9
			c-1-2.1-52.9-115.8-52.9-115.8s-0.2-0.4-0.2-0.6c0-0.2,0.3-0.6,0.3-0.6l59.5-88.5c0,0,0.6-0.9,1.5-0.9c0.8,0,1.1,0,1.1,0h698.2
			c0,0,1.9-0.3,1.9,1.9c0,1.9,0,204.5,0,204.5S282.5,39.1,280.5,39.1 M-499.5-108h-29.2V8.4h-34.7V-108h-29.2v-31.8h93.2L-499.5-108
			L-499.5-108z M301.1,52.2c0,0,0-229.1,0-235.2c0-3.4-3.1-3.1-3.1-3.1h-811.1c0,0-1.7,0.1-2-0.3c-0.4-0.4-1.9-4-1.9-4
			s-30.7-70.2-33.2-73.9c-2.8-4.1-4.6,0.9-4.6,0.9l-30,87c0,0-0.1,0.9-1,1c-0.9,0.1-101.9,5.5-108.1,5.6c-6.2,0.1-3.3,3.7-2.1,5.2
			c0.7,0.6,67.8,79.3,67.8,79.3s1.3,1.4,1.7,1.9c0.8,0.8,0.8,2.5,0.8,2.5s13.1,210.5,13.7,221.3c0.7,11.7,6.9,2.8,7.7,1.7
			c0.8-1.1,58.9-82.7,59.9-84.2c1.2-1.9,2-1.9,2.9-1.9c0.9,0,834.6,0,839,0C301.7,56,301.1,52.2,301.1,52.2"/>
	</g>
</g>
<g id="g3039" transform="matrix(2.5359424,0,0,2.5359424,783.3598,402.31057)">
	<path id="path3041" inkscape:connector-curvature="0" class="st1" d="M-114.7-79.5l19.2,29l-15.6,0.1l-13.2-19.9v20.1h-13.2v-58.1
		h13.2v19l17.3-19.4l9.4,9.7L-114.7-79.5z"/>
</g>
<g id="g3043" transform="matrix(2.5359424,0,0,2.5359424,1067.3001,368.71821)">
	<path id="path3045" inkscape:connector-curvature="0" class="st1" d="M-86.7-49.7v12.7h-35.1v-58.3h35v12.2h-21.7v11.2h21.3v11.4
		h-21.3v10.9H-86.7z"/>
</g>
<g id="g3047" transform="matrix(2.5359424,0,0,2.5359424,986.65134,461.39397)">
	<path id="path3049" inkscape:connector-curvature="0" class="st1" d="M-94.6-132v12.5h-11.5v45.8h-13.7v-45.8h-11.5V-132H-94.6z"/>
</g>
<g id="g3051" transform="matrix(2.5359424,0,0,2.5359424,902.52804,368.72861)">
	<path id="path3053" inkscape:connector-curvature="0" class="st1" d="M-102.9-49.7v12.7H-138v-58.3h35v12.2h-21.7v11.2h21.3v11.4
		h-21.3v10.9H-102.9z"/>
</g>
<g id="g3055" transform="matrix(2.5359424,0,0,2.5359424,1123.985,402.30017)">
	<path id="path3057" inkscape:connector-curvature="0" class="st1" d="M-81.1-79.5l19.2,29l-15.6,0.1l-13.2-19.9v20.1h-13.2v-58.1
		h13.2v19l17.3-19.4l9.4,9.7L-81.1-79.5z"/>
</g>
<g id="g3061">
	<g id="g3067" transform="translate(516.2769,289.9936)">
		<path id="path3069" inkscape:connector-curvature="0" class="st1" d="M-114.7-59.2l19.4,25.9c-21.2,17.3-32.8,19.3-51.8,17.5
			c-17.6-1.6-36.3-20.2-43.8-40.2c-7.5-19.9-5.9-42.1-5.2-44.4c0.8-2.3,4.1-44.3,40-60.2c29.6-10.3,56.5,11.9,56.5,11.9l-15.6,27.9
			c-16.7-10.6-31.7-8.1-42.2,7.7c-12.5,19-2.6,44.2-2.6,44.2s7.7,18.2,22.2,18.2C-123.2-50.7-114.7-59.2-114.7-59.2"/>
	</g>
</g>
<path id="path3071" inkscape:connector-curvature="0" class="st1" d="M305.6,274.4h-33.3V127.1h33.3V274.4z"/>
</svg>
