<svg id="图层_1" data-name="图层 1" xmlns="http://www.w3.org/2000/svg" viewBox="0 0 542.59 82.7"><defs><style>.cls-1{fill:#ee3124;}.cls-2{fill:#231f20;}</style></defs><title>EB_Games_Logo</title><path class="cls-1" d="M188.93,161.93c0.82,5-1.9,8.67-5,11.95C176.29,180,169,185,160.31,188.1c1.54,0.74,3.28,1,4.82,1.69,3.61,1.32,7.6,3.42,8.83,7.42,1.51,4-2.51,11.29-14.71,16.61-2.89,1.43-22.18,9.62-30.56,11.94-2.25.84-2.88,1.44-2.6,2.56a5.8,5.8,0,0,1-5.72-3.37c-1.57-3.43-.1-7.57,2.28-10.18,2.83-3.41,6.88-3.76,10.72-5.12a211,211,0,0,0,22.56-8.42c5.2-2.84.17-4.91-.59-5.08-8-1.66-13.49.16-14.93-1-2.11-1.89-2.75-9-.37-11.05,2.68-2.78,6.2-3.92,9.31-5.9,7.67-4.08,15.74-6.89,23.15-11.62,0.75-.77,2.41-1.2,2.25-2.38-1.62-1.95-12.64.7-13.8,0.74-4.43.73-20.92,5.23-23.22,5.56-1,.65.6,2.07,0.9,4.72,0.41,3,.45,4.78-0.91,7.82s-3.31,5.66-4.6,8.7c-5.15,8.13-10.35,16.16-16,24a2.58,2.58,0,0,1-1.34.92c-2.6.38-5.14-.35-6.47-2.65-4.27-8.33,3.54-14.73,7.42-21.07,4.64-6.4,8.09-13.48,12.11-20.21-1.46-1.14-2.89-2.68-2.65-4.84,0.54-5.24,3.3-10.59,8.68-12.38a90.31,90.31,0,0,1,38.65-4.11c4.94,0.62,14,3.09,15.38,10.55" transform="translate(-32.06 -145.62)"/><path class="cls-1" d="M126.29,155c0.12,1.06-.31,3.26-1.63,3.95a4,4,0,0,1-3,.48l-2.31-.68c-8.42-1.18-15.18,1-22.95,2.67-8.4,1.51-16.24,4.51-24.54,6.33a5.26,5.26,0,0,1,.84,4.78c-1.68,1.78-3.31,3.62-5,5.22,13.19-2.18,33.68-5.64,43.11-4.26,5.54,1.34,7.74,6.07,7.69,7.87,0.22,4-5.32,5.44-25.79,7.66-15.35,2.9-33.24,6.42-37.49,7.29-1.57,1.78-3.44,4.39-2.9,6.68,3.21,3.33,19.84-1.3,31-1,11.94,0.17,14,8.25,11,11.15-1.07,1.14-4.2.94-9.88,2-8.75,1.62-21.66,3.83-30.29,3-2.62-.26-4.72-1.5-6.87-2.79-4.94-3.57-5.83-9.59-5.45-15.07-0.13-.89,1.08-1.63.13-2.34-2.39-.14-5.14-0.24-7.12-1.57-1.11-.95-2.4-1.9-2.73-3.5,0.1-2.8.11-5.91,2.55-7.76,5.27,0.95,10.64-.67,15.48-2.45,2.61-3.6,5.39-7.13,8.34-10.65-1.1-1.28-2.71.38-4.12,0.35-4.21.75-9.84,2.07-12.64-2.14-1.8-2.38-1.88-6.08-.91-8.77,0.33-.63,1-1.58,1.72-1.43,1.07,1.76,3.92,1.1,5.57,1,26.18-9.58,56.19-18.28,68.59-14.52,6,1.75,9,5.78,9.64,8.46" transform="translate(-32.06 -145.62)"/><path class="cls-2" d="M186.79,199.85l7-18.3c6.71-17.49,19.92-22.54,43.68-22.54,24.18,0,31.27,7.33,26.88,19.46-0.92,2.54-1.94,5.06-1.94,5.06H239.11s0.85-2.11,2-5.13c2.38-6.23.95-10-6.41-10-7.6,0-12.4,3.88-16.09,13.52,0,0-5.61,14.45-8.44,22-2.58,6.85.17,10.55,6.82,10.55,5.15,0,11.09-2.67,13.77-10.12a37.51,37.51,0,0,1,1.43-3.74h-9.84l3.32-8.55h33.86l-11.81,30.75H229.83L229.34,219s-5.34,5-21.09,5c-19.25,0-27.3-9-21.46-24.16" transform="translate(-32.06 -145.62)"/><path class="cls-2" d="M520.08,208.93c1.45-3.78,1-6.88-7.81-10.14-7.13-2.62-11.45-3.91-15.74-7.36-4.8-3.84-4.89-9.57-2.83-14.92,4-10.53,17.23-17.44,37.23-17.44,19.84,0,26.94,7.17,25.32,15.5a11.24,11.24,0,0,1-.8,2.6H535.16a5.53,5.53,0,0,0,.78-2.25c0.65-3.54-1.64-6.42-7.29-6.42-6,0-8.78,2.55-9.68,5.34-1.21,3.82,1.08,6,7.41,8.14,11.9,4,14.78,5.62,17.34,8.07,3.23,3.09,4.65,8.4,2.32,14.48-4.91,12.8-19.5,19.6-40.59,19.5-18.06-.09-27.62-6.19-24.43-16.81a28.85,28.85,0,0,1,1.14-2.71l19.72,0a10.21,10.21,0,0,0-.68,1.55c-1.58,4.5.85,8.39,8.76,8.39,5.26,0,8.75-1.94,10.12-5.5" transform="translate(-32.06 -145.62)"/><path class="cls-2" d="M432.09,160.63c2.46,0.82,8.74,3.74,2.66,19.46-6.15,15.94-16.41,42.75-16.41,42.75h54l3.52-9H446.11l7.3-18.91h23.53l3.4-9H456.82l6.42-16.6h29.64l3.47-9H432.23Z" transform="translate(-32.06 -145.62)"/><path class="cls-2" d="M338.78,160.63c2,0.72,9.79,3.5,3.27,19.44-6.18,15.14-17.41,42.77-17.41,42.77h10L355,172.32l-5.27,50.51h16.66l33.26-50.52-18.33,50.52h24.27l22.67-62.55H398.73l-24.23,37,4-37H338.91Z" transform="translate(-32.06 -145.62)"/><path class="cls-2" d="M283.88,160.3l-0.11.36s9.84,2.9.17,16.68c-10.35,14.75-31.79,45.5-31.79,45.5h11.68l9.88-14.53h24.61l-1.18,14.53h22.69l4.77-62.53H283.88ZM299,200.19H279.29l22.56-33Z" transform="translate(-32.06 -145.62)"/><path class="cls-2" d="M568.93,160.48l1.84,5.13,1.83-5.13h2.05v7.18h-1.31v-5.79l-2,5.79h-1.13l-2-5.79v5.79h-1.3v-7.18h2Zm-9.39,1.2v-1.2h6.15v1.2h-2.35v6h-1.44v-6h-2.36Z" transform="translate(-32.06 -145.62)"/></svg>