<svg id="Layer_1" data-name="Layer 1" xmlns="http://www.w3.org/2000/svg" viewBox="0 0 231.14 68.38"><defs><style>.cls-1{fill:#015ba1;}.cls-2{fill:none;stroke:#fff;stroke-width:0.02px;}</style></defs><title>Jay_jays</title><path class="cls-1" d="M260.7,138.42c0,18.88-51.74,34.18-115.56,34.18S29.58,157.3,29.58,138.42s51.74-34.18,115.56-34.18,115.56,15.3,115.56,34.18M145.06,106.92c-58.92,0-106.68,14.1-106.68,31.49s47.76,31.48,106.68,31.48,106.68-14.1,106.68-31.49S204,106.92,145.06,106.92" transform="translate(-29.57 -104.23)"/><path class="cls-2" d="M260.7,138.42c0,18.88-51.74,34.18-115.56,34.18S29.58,157.3,29.58,138.42s51.74-34.18,115.56-34.18S260.7,119.54,260.7,138.42ZM145.06,106.92c-58.92,0-106.68,14.1-106.68,31.49s47.76,31.48,106.68,31.48,106.68-14.1,106.68-31.49S204,106.92,145.06,106.92Z" transform="translate(-29.57 -104.23)"/><path class="cls-1" d="M84.77,119.2l-5.45,20.34a22.5,22.5,0,0,1-1.79,4.92,8.31,8.31,0,0,1-4.94,4.5,22.67,22.67,0,0,1-7.88,1.11,20.39,20.39,0,0,1-7.59-1.32c-1.5-.69-3.87-2.36-3.87-5.14a10.51,10.51,0,0,1,.36-2.44l0.65-2.31h9.6l-0.78,2.91a4.39,4.39,0,0,0-.36,1.45,1.15,1.15,0,0,0,1,1.28,3.84,3.84,0,0,0,1,.17,2.43,2.43,0,0,0,1.72-.73,4.46,4.46,0,0,0,.72-1.5l6.52-23.25H84.77" transform="translate(-29.57 -104.23)"/><path class="cls-1" d="M98,140a10.76,10.76,0,0,1-1.58,3.81,5.43,5.43,0,0,1-4,1.63c-0.57,0-2.86-.17-2.86-1.54a2,2,0,0,1,1.14-1.67c1.8-1.24,4.87-1.8,7.31-2.22m10.39-3.47a9.76,9.76,0,0,0,.5-3,3.58,3.58,0,0,0-.65-2.18,3.83,3.83,0,0,0-1.57-1.41c-2.87-1.8-7.52-1.76-8.31-1.76-7.45,0-11.25,2.44-13,4.28a9.84,9.84,0,0,0-1.72,2.91h9.46a3.82,3.82,0,0,1,3.94-2.87,4.17,4.17,0,0,1,1.65.3,1.23,1.23,0,0,1,.79,1.76l-0.64,2.74c-4.95.42-10.6,0.9-14.9,3.34-3.29,1.92-3.44,4.11-3.44,5,0,2.44,1.87,3.56,3.8,4a12.16,12.16,0,0,0,3.51.39c4.59,0,6.74-1.54,8-2.62,0.43-.33.72-0.64,1.08-0.94a4,4,0,0,0,1.22,3h9.67a5.94,5.94,0,0,1-1.58-3.72,9.82,9.82,0,0,1,.22-2c0.22-.77.43-1.59,0.58-2.36Z" transform="translate(-29.57 -104.23)"/><path class="cls-1" d="M120.3,128.62l0.93,12,8-12h8.82l-15.84,21.07a21.05,21.05,0,0,1-4.16,4.41c-2.93,2.23-5.8,2.57-13.61,2.36l1.3-4.63h2.43a8.11,8.11,0,0,0,3.08-.43c1.22-.52,1.79-1.5,2.94-3.21l-3.08-19.57h9.17" transform="translate(-29.57 -104.23)"/><path class="cls-1" d="M164.94,119.2l-5.45,20.34a22.84,22.84,0,0,1-1.79,4.92,8.26,8.26,0,0,1-4.94,4.49,22.82,22.82,0,0,1-7.88,1.12,20.5,20.5,0,0,1-7.6-1.33c-1.51-.68-3.87-2.36-3.87-5.14a10.45,10.45,0,0,1,.36-2.44l0.64-2.31H144l-0.79,2.91a4.54,4.54,0,0,0-.36,1.46,1.17,1.17,0,0,0,1,1.28,4.59,4.59,0,0,0,1,.17,2.46,2.46,0,0,0,1.72-.73,4.52,4.52,0,0,0,.72-1.5l6.52-23.25h11.1" transform="translate(-29.57 -104.23)"/><path class="cls-1" d="M178.2,140a10.82,10.82,0,0,1-1.58,3.81,5.4,5.4,0,0,1-4,1.63c-0.57,0-2.87-.17-2.87-1.54a2,2,0,0,1,1.15-1.67c1.79-1.25,4.87-1.8,7.31-2.23m10.39-3.47a10.12,10.12,0,0,0,.5-3,3.6,3.6,0,0,0-.64-2.19,4,4,0,0,0-1.58-1.42c-2.87-1.8-7.53-1.75-8.31-1.75-7.45,0-11.25,2.44-13,4.28a10,10,0,0,0-1.73,2.91h9.46a3.84,3.84,0,0,1,3.95-2.87,4.44,4.44,0,0,1,1.64.3,1.24,1.24,0,0,1,.79,1.76l-0.64,2.74c-4.94.43-10.61,0.9-14.9,3.34-3.29,1.93-3.44,4.11-3.44,5,0,2.44,1.86,3.55,3.8,4a12.11,12.11,0,0,0,3.51.38c4.59,0,6.73-1.54,8-2.61,0.43-.34.72-0.64,1.07-0.94a4,4,0,0,0,1.22,3H188a6,6,0,0,1-1.58-3.73,9.82,9.82,0,0,1,.22-2c0.22-.77.43-1.59,0.57-2.36Z" transform="translate(-29.57 -104.23)"/><path class="cls-1" d="M200.48,128.62l0.93,12,8-12h8.81l-15.83,21.07a21,21,0,0,1-4.16,4.41c-2.94,2.23-5.8,2.57-13.61,2.36l1.29-4.63h2.44a8.19,8.19,0,0,0,3.08-.43c1.22-.52,1.8-1.5,2.94-3.21l-3.08-19.57h9.17" transform="translate(-29.57 -104.23)"/><path class="cls-1" d="M221.92,142.58a2.66,2.66,0,0,0,.22,2.32,3.83,3.83,0,0,0,2.86,1,6.14,6.14,0,0,0,1.51-.22,1.94,1.94,0,0,0,1.58-1.62,1.55,1.55,0,0,0-.57-1.12c-0.72-.69-1.37-1-3.94-2.27l-1.29-.77a10.33,10.33,0,0,1-4.08-3.51,3.47,3.47,0,0,1-.36-1.8,4,4,0,0,1,.78-2.49c1-1.41,4.3-3.94,10.75-3.94,0.86,0,5.09,0,7.88,2a4.9,4.9,0,0,1,1.65,1.71,4.51,4.51,0,0,1,.22,2.74l-7.45,0c0.15-.81.29-1.88-1-2.4a4.16,4.16,0,0,0-1.65-.31c-1.43,0-2.79.77-2.79,1.72a1.24,1.24,0,0,0,.36.77c0.43,0.56,1.07.9,3.22,2l2.36,1.37c0.57,0.39,1.29.77,1.94,1.2a5.35,5.35,0,0,1,2.65,4.24c0,0.82-.21,2.75-3.22,4.59-1.65,1.07-4.3,2.23-9.1,2.23-4.59,0-6.88-.86-8.46-2.19a5.7,5.7,0,0,1-1.58-2.1,6.24,6.24,0,0,1-.21-3.08h7.74" transform="translate(-29.57 -104.23)"/></svg>