<svg id="Layer_1" data-name="Layer 1" xmlns="http://www.w3.org/2000/svg" viewBox="0 0 486.03 111.87"><title>L&amp;apos;Occitane_Logo</title><path d="M69.39,193.48c0,3.92.16,6.76,1.34,8.1,0.94,1.1,2.2,1.72,8.48,1.72,8.72,0,10-.39,13.59-8.48a2.1,2.1,0,0,1,2.44.47,75.72,75.72,0,0,1-3.3,11.39c-3.3-.16-10.06-0.24-18.86-0.24H64.92c-4,0-7.94.08-11.24,0.24-0.63-.32-0.87-1.89-0.16-2.28l2.36-.4c3.69-.47,4.4-0.71,4.4-8.88V165.91c0-8.17-.71-8.41-4.4-9l-2.2-.31a1.62,1.62,0,0,1,.16-2.28c3.92,0.16,7.46.24,11.07,0.24,3.46,0,7-.08,10.45-0.24a1.56,1.56,0,0,1,.16,2.28l-1.73.31c-3.7.55-4.4,0.79-4.4,9v27.57Z" transform="translate(-53.09 -140.06)"/><path d="M110.48,159.54c0,6-5.34,10.38-10.76,11.71a1.89,1.89,0,0,1-.55-2c3.38-1.42,6.37-3.69,6.37-7.15,0-2.59-2.36-3.85-4.24-4.08a2.77,2.77,0,0,1-2.44-2.83c0-1.33.95-3.69,4.48-3.69,3.85,0,7.15,3.77,7.15,8.09" transform="translate(-53.09 -140.06)"/><path d="M178.14,176.79c0-16.2-7.16-33.69-25.92-33.69-10.21,0-23.47,7-23.47,28.48,0,14.54,7.07,33.39,26.42,33.39,11.78,0,23-8.84,23-28.18m-59.21-2.06c0-19.65,14.73-34.67,35-34.67,22.69,0,34.08,16.4,34.08,33.69,0,19.84-15.12,34.28-34.08,34.28-21.8,0-35-15.62-35-33.29" transform="translate(-53.09 -140.06)"/><path d="M244.26,167.79a2,2,0,0,1-2.52.16c-1.34-5-4.87-11.47-15.24-11.47-10,0-20,7.07-20,23.17,0,16.74,10.45,24.91,20.59,24.91,9.9,0,14.22-6.6,16.42-11.71a1.58,1.58,0,0,1,2.36.31c-0.55,5.26-2.67,10.45-3.77,11.94-0.94.16-1.89,0.48-2.76,0.71a46.84,46.84,0,0,1-12.25,1.89c-7.78,0-14.45-1.57-20.12-5.26-6.36-4.17-11.16-11.31-11.16-21.61a25.64,25.64,0,0,1,9.9-20.82c5.82-4.4,13.75-6.68,21.69-6.68A60.73,60.73,0,0,1,241,155.06c0.95,0.24,1.49.32,2.21,0.47,0.15,1.81.31,6.44,1.1,12.25" transform="translate(-53.09 -140.06)"/><path d="M298.78,167.79a2,2,0,0,1-2.52.16c-1.33-5-4.87-11.47-15.24-11.47-10,0-20,7.07-20,23.17,0,16.74,10.45,24.91,20.58,24.91,9.9,0,14.22-6.6,16.42-11.71a1.58,1.58,0,0,1,2.36.31c-0.55,5.26-2.67,10.45-3.77,11.94-0.94.16-1.88,0.48-2.75,0.71a46.88,46.88,0,0,1-12.26,1.89c-7.77,0-14.46-1.57-20.11-5.26-6.36-4.17-11.15-11.31-11.15-21.61A25.63,25.63,0,0,1,260.2,160c5.81-4.4,13.75-6.68,21.69-6.68a60.77,60.77,0,0,1,13.59,1.72c0.94,0.24,1.49.32,2.2,0.47,0.16,1.81.31,6.44,1.1,12.25" transform="translate(-53.09 -140.06)"/><path d="M320,195.13c0,8.33.7,8.57,4.4,9l1.73,0.24a1.68,1.68,0,0,1-.16,2.28c-3.46-.16-7-0.24-10.45-0.24s-7.15.09-10.61,0.24a1.69,1.69,0,0,1-.16-2.28l1.73-.24c3.7-.47,4.4-0.7,4.4-9V165.91c0-8.33-.71-8.56-4.4-9l-1.73-.23a1.68,1.68,0,0,1,.16-2.28c3.46,0.16,7,.23,10.61.23,3.46,0,7-.07,10.45-0.23a1.67,1.67,0,0,1,.16,2.28l-1.73.23c-3.69.47-4.4,0.71-4.4,9v29.22Z" transform="translate(-53.09 -140.06)"/><path d="M351.81,161.19c0-3.3-.08-3.46-2.13-3.46h-4.4c-7.23,0-9.35.86-12.25,7.23a2,2,0,0,1-2.51-.55c1.33-4.24,2.51-9.12,3.06-11.86a1,1,0,0,1,.87-0.32,0.92,0.92,0,0,1,.79.32c0.39,2,1.49,2,6.83,2h32.06c3.85,0,5-.23,6-2a2.19,2.19,0,0,1,.94-0.32,1.22,1.22,0,0,1,1,.39,55.27,55.27,0,0,0-1.17,12.49,1.88,1.88,0,0,1-2.44.23c-1-6.13-2.51-7.62-10.92-7.62H363c-2,0-2.11.16-2.11,3.46v33.94c0,8.33.7,8.57,4.39,9l2.83,0.31a1.68,1.68,0,0,1-.16,2.28c-4.55-.16-8.09-0.24-11.55-0.24s-7.15.09-12.18,0.24a1.7,1.7,0,0,1-.16-2.28l3.3-.39c3.7-.31,4.4-0.55,4.4-8.88V161.19Z" transform="translate(-53.09 -140.06)"/><path d="M408.69,183.66c2.2,0,2.52-.16,1.89-2l-3.3-9.43c-1.34-4.16-1.8-5.66-2.2-6.21h-0.16c-0.32.55-.95,2.52-2.36,6.21l-3.3,9.19c-0.86,2.28-.63,2.28,1.25,2.28h8.17Zm-9.42,3.53c-2,0-2,0-2.67,2.12l-3.22,9.43c-1.57,4.64-1.25,4.87,1.65,5.26l2.28,0.4a1.68,1.68,0,0,1-.16,2.28c-2.51-.16-5.1-0.16-8.33-0.24-2.59,0-5,.08-7.78.24a1.75,1.75,0,0,1-.08-2.28l2.35-.4c2.28-.31,3.14-1,4.32-3.61,0.95-2,2.2-5.34,3.85-9.58l10.77-28c1-2.52,1.72-4.4,1.49-5.73,2.75-.55,5.35-3.77,5.5-3.77a1.58,1.58,0,0,1,1.34.63c1.26,3.53,2.28,7.22,3.54,10.76l11.31,32.92c1.81,5.26,2.2,5.82,6.21,6.52l1.18,0.24a1.69,1.69,0,0,1,.08,2.28c-3.22-.16-6.13-0.24-10.22-0.24-3.37,0-6.83.16-9.58,0.24a1.8,1.8,0,0,1-.24-2.28l1.73-.24c2.82-.31,3.06-0.78,2-4.16l-3.7-10.69c-0.78-2.12-1-2.12-3.22-2.12H399.27Z" transform="translate(-53.09 -140.06)"/><path d="M484.75,193.09c0,2.35,0,12,.24,13.83a3,3,0,0,1-2.67,1.1c-1.26-1.66-3.54-4.32-9.2-10.77l-18.38-21c-5.11-5.74-7.62-8.72-9-9.9-0.23,0-.23.86-0.23,5v15.32c0,5.88.08,13.12,1.41,15.48,0.71,1.18,2,1.65,4,2l1.73,0.24c0.71,0.55.63,2-.16,2.28-2.9-.16-6-0.24-9-0.24-3.3,0-5.42.08-8.17,0.24a1.61,1.61,0,0,1-.15-2.28L437,204c1.5-.23,2.91-0.55,3.46-1.81,1-2.43,1-9.27,1-15.48V168.11c0-6.13.08-7.39-2.6-9.67a12.71,12.71,0,0,0-4.16-1.57l-1.17-.23c-0.56-.47-0.47-2,0.31-2.28,3,0.32,7.3.24,9.27,0.24,1.65,0,3.54-.08,5.42-0.24,1.33,3.38,9.9,13.28,12.65,16.26l7.85,8.49c3.3,3.61,10.61,11.94,11.4,12.41,0.23-.24.23-0.63,0.23-1.89V174.31c0-5.9-.08-13.13-1.49-15.48-0.71-1.18-2-1.65-3.94-2l-1.81-.23c-0.71-.55-0.62-2,0.16-2.28,3.07,0.16,6,.24,9,0.24,3.38,0,5.43-.08,8.25-0.24a1.61,1.61,0,0,1,.16,2.28l-1.81.39c-1.49.24-2.83,0.55-3.38,1.81-1.1,2.43-1.1,9.27-1.1,15.48v18.77Z" transform="translate(-53.09 -140.06)"/><path d="M502.82,165.91c0-8.33-.71-8.56-4.4-9.12l-1.25-.15a1.68,1.68,0,0,1,.16-2.28c3,0.15,6.68.24,10.13,0.24h15c5,0,9.58-.08,10.61-0.24,0.32,1.34.78,7.54,1.26,10.92-0.31.63-1.88,0.78-2.51,0.31-1.26-4.55-2.44-6.52-5-7.15a22.91,22.91,0,0,0-6.28-.71H515.3c-3.37,0-3.37.16-3.37,4.63v13.28c0,2,.08,2.12,1.89,2.12h3.77c6.83,0,8.17-.08,8.72-3.45l0.55-2.68c0.63-.55,2.12-0.55,2.51.08-0.07,2.13-.23,5-0.23,7.86s0.16,5.73.23,8.25a2.25,2.25,0,0,1-2.51.08l-0.55-3.15c-0.55-3.3-1.89-3.45-8.72-3.45h-3.77c-1.81,0-1.89.16-1.89,2.12v10c0,4,.15,6.83,1.33,8.17,0.94,1.1,2.27,1.72,8.88,1.72,10,0.16,11.7-2.12,14.46-8.48a1.87,1.87,0,0,1,2.52.47,50.77,50.77,0,0,1-3.3,11.39c-3.46-.16-10.22-0.24-19.42-0.24h-9c-3.46,0-8.25.08-11.79,0.24a1.68,1.68,0,0,1-.16-2.28l2.9-.31c3.7-.39,4.4-0.63,4.4-9V165.91Z" transform="translate(-53.09 -140.06)"/><path d="M155.54,236.75c0,1,0,1.09,1,1.09h2.52c1.9,0,2.3-.26,2.7-2l0.18-.91a1.09,1.09,0,0,1,1.35,0c-0.07,1.17-.11,2.49-0.11,3.87s0,2.69.11,3.86a1,1,0,0,1-1.35,0l-0.18-.91c-0.4-1.75-.8-2-2.7-2h-2.52c-1,0-1,0-1,1.13v4.34a6.58,6.58,0,0,0,.59,3.47c0.47,0.65,1.16.95,3.83,0.95,3.18,0,4.41-.11,6.42-4.23a0.89,0.89,0,0,1,1.35.18,20.78,20.78,0,0,1-1.53,5.85c-1.94-.07-5.43-0.11-8.43-0.11H153c-1.75,0-3.54,0-6.28.11a1,1,0,0,1,0-1.28l1.71-.25c1.65-.22,1.86-0.48,1.86-3.83V232.48c0-3.32-.22-3.58-1.86-3.87l-0.91-.18a0.92,0.92,0,0,1,.07-1.28c1.71,0.07,3.5.11,5.26,0.11h7.73c2.33,0,4.41,0,4.88-.11,0,0.59.29,3.21,0.47,5.65a1,1,0,0,1-1.34.15,8.57,8.57,0,0,0-1.39-2.88,4.81,4.81,0,0,0-3.58-1.13h-2.91c-1.21,0-1.21.07-1.21,1.42v6.38Z" transform="translate(-53.09 -140.06)"/><path d="M196.32,245.14c0,2.37,0,4.67.08,5.88a2.89,2.89,0,0,1-2.16.84s-1.24-1.87-2.95-4l-8.43-10.44a43.59,43.59,0,0,0-4-4.66,6.47,6.47,0,0,0-.18,2.33v7.08c0,3,.14,5.69.54,6.68,0.33,0.76,1.17,1,2.11,1.17l1,0.15a1.18,1.18,0,0,1,0,1.28c-2-.07-3.43-0.11-4.89-0.11s-2.7,0-4.09.11a1.17,1.17,0,0,1,0-1.28l0.63-.11c1-.23,1.67-0.44,2-1.2a27.72,27.72,0,0,0,.51-6.68v-9.27c0-2,0-2.59-.26-3.1s-0.8-1-2.08-1.24l-1-.14a1,1,0,0,1,.14-1.28c1.72,0.07,3.54.11,5,.11,1.24,0,2.31,0,3.07-.11,0.37,1.64,2.74,4.41,6,8.32l3.06,3.61c1.64,1.9,2.66,3.17,3.5,4a5.17,5.17,0,0,0,.15-1.65v-5c0-3-.15-5.69-0.54-6.67-0.33-.77-1.13-1-2.12-1.17l-1-.14a1.18,1.18,0,0,1,0-1.28c2,0.07,3.39.11,4.89,0.11s2.66,0,4.09-.11a1.14,1.14,0,0,1,0,1.28l-0.66.11a2.37,2.37,0,0,0-2,1.21c-0.4,1-.55,3.72-0.55,6.67v8.72Z" transform="translate(-53.09 -140.06)"/><path d="M222.95,233.17c0-3.68-.08-4.08-1.61-4.3l-1.13-.15a0.85,0.85,0,0,1,.07-1.24c2.41-.19,5.26-0.33,8.43-0.33a18.7,18.7,0,0,1,6.67.95,6.48,6.48,0,0,1,4.45,6.31c0,6-6,6.85-8,6.85-0.43,0-.76,0-1.16,0a0.7,0.7,0,0,1-.12-1c3-.94,3.65-3.1,3.65-5.8s-1.38-5.62-4.67-5.62c-1.34,0-1.42.4-1.42,1.86v15.39c0,3.4.22,3.65,1.86,3.94l1.17,0.18a0.8,0.8,0,0,1,0,1.24c-2-.07-3.83-0.11-5.59-0.11s-3.5,0-5.46.11a0.8,0.8,0,0,1-.08-1.24l1-.18c1.64-.29,1.86-0.54,1.86-3.94V233.17Z" transform="translate(-53.09 -140.06)"/><path d="M254.61,237.8c0,1.28.11,1.39,2.26,1.39a3.54,3.54,0,0,0,2.78-1,5.35,5.35,0,0,0,1.31-3.95c0-3.28-1.94-5.4-4.78-5.4-1.49,0-1.49.11-1.57,1.86v7.11Zm-5-4.63c0-3.65-.07-4-1.6-4.27l-1-.15a0.82,0.82,0,0,1,.07-1.28c2.74-.19,5.58-0.33,9-0.33,3.1,0,5.76.48,7.14,1.32a6,6,0,0,1,3.21,5.4c0,3.25-2.19,4.63-3.87,5.46-0.36.19-.36,0.41-0.18,0.81,2.41,4.9,3.91,7.63,5.65,9.12a4.44,4.44,0,0,0,2.45,1,0.7,0.7,0,0,1,.14.95,8.57,8.57,0,0,1-2.88.33,7.44,7.44,0,0,1-7.07-3.83,45,45,0,0,1-2.85-5.66A1.85,1.85,0,0,0,256,240.8c-1.27,0-1.34.07-1.34,0.8v4.48c0,3.36.21,3.61,1.86,3.9l1,0.19a1.16,1.16,0,0,1,0,1.27c-1.93-.07-3.61-0.11-5.36-0.11s-3.43,0-5.33.11a1,1,0,0,1,0-1.27l1-.19c1.64-.29,1.86-0.54,1.86-3.9V233.17Z" transform="translate(-53.09 -140.06)"/><path d="M288.61,228.35c-4.49,0-6.89,4.2-6.89,10.29,0,4.45,1.57,11.6,7.51,11.6,4.78,0,6.65-4.66,6.65-10.58,0-6.24-2.74-11.31-7.26-11.31m13.09,10.84c0,7.95-5.32,12.73-13.16,12.73-7.34,0-12.66-4.81-12.66-12.43,0-7.22,5.4-12.81,13-12.81s12.8,5.11,12.8,12.52" transform="translate(-53.09 -140.06)"/><path d="M324.46,242.29c-1.85,4.42-2.84,7.29-3.68,9.34a2.46,2.46,0,0,1-1.28.29,1.5,1.5,0,0,1-1-.29c-0.41-1-1-2.92-1.53-4.16l-5.92-14.84c-1.49-3.69-1.42-3.54-3.17-4l-1-.26a0.93,0.93,0,0,1,.15-1.24c1.86,0,3.07.11,5,.11,1.67,0,3.24,0,5.47-.11a1.1,1.1,0,0,1,0,1.24l-1.09.21c-0.66.14-.91,0.37-0.91,0.7a29.94,29.94,0,0,0,1.46,4l3.21,8.2c0.51,1.35.87,2.2,1.13,2.82,0.29-.62.73-1.61,1.17-2.71l1.35-3.43c0.94-2.29,2.44-6.38,2.88-7.62a4.77,4.77,0,0,0,.36-1.31c0-.26-0.11-0.44-1-0.62L325,228.4a0.84,0.84,0,0,1,.15-1.24c1.72,0.07,3.1.11,4.49,0.11,1.23,0,2.33,0,3.38-.11a1,1,0,0,1,.07,1.24l-0.94.18a2.65,2.65,0,0,0-2,1.28,43,43,0,0,0-3,6.14Z" transform="translate(-53.09 -140.06)"/><path d="M345.43,236.75c0,1,0,1.09,1,1.09H349c1.89,0,2.29-.26,2.69-2l0.19-.91a1.09,1.09,0,0,1,1.35,0c-0.07,1.17-.11,2.49-0.11,3.87s0,2.69.11,3.86a1,1,0,0,1-1.35,0l-0.19-.91c-0.4-1.75-.8-2-2.69-2h-2.52c-1,0-1,0-1,1.13v4.34a6.61,6.61,0,0,0,.59,3.47c0.48,0.65,1.17.95,3.83,0.95,3.17,0,4.41-.11,6.43-4.23a0.89,0.89,0,0,1,1.34.18,20.88,20.88,0,0,1-1.53,5.85c-1.94-.07-5.43-0.11-8.43-0.11h-4.74c-1.75,0-3.54,0-6.28.11a1.06,1.06,0,0,1,0-1.28l1.72-.25c1.64-.22,1.85-0.48,1.85-3.83V232.48c0-3.32-.22-3.58-1.85-3.87l-0.92-.18a0.92,0.92,0,0,1,.07-1.28c1.71,0.07,3.5.11,5.25,0.11h7.73c2.33,0,4.42,0,4.89-.11,0,0.59.29,3.21,0.48,5.65a1,1,0,0,1-1.35.15,8.57,8.57,0,0,0-1.38-2.88,4.82,4.82,0,0,0-3.58-1.13h-2.92c-1.21,0-1.21.07-1.21,1.42v6.38Z" transform="translate(-53.09 -140.06)"/><path d="M386.22,245.14c0,2.37,0,4.67.07,5.88a2.87,2.87,0,0,1-2.15.84s-1.24-1.87-3-4l-8.43-10.44a42.07,42.07,0,0,0-4-4.66,6.57,6.57,0,0,0-.18,2.33v7.08c0,3,.14,5.69.55,6.68,0.33,0.76,1.17,1,2.11,1.17l1,0.15a1.16,1.16,0,0,1,0,1.28c-2-.07-3.43-0.11-4.89-0.11s-2.69,0-4.08.11a1.16,1.16,0,0,1,0-1.28l0.62-.11c1-.23,1.68-0.44,2-1.2a27.58,27.58,0,0,0,.51-6.68v-9.27c0-2,0-2.59-.26-3.1s-0.8-1-2.08-1.24l-1-.14a1,1,0,0,1,.14-1.28c1.72,0.07,3.54.11,5,.11,1.24,0,2.3,0,3.06-.11,0.37,1.64,2.74,4.41,6,8.32l3.07,3.61c1.64,1.9,2.67,3.17,3.5,4a5.18,5.18,0,0,0,.15-1.65v-5c0-3-.15-5.69-0.55-6.67-0.33-.77-1.13-1-2.12-1.17l-1-.14a1.16,1.16,0,0,1,0-1.28c2,0.07,3.39.11,4.89,0.11s2.66,0,4.08-.11a1.15,1.15,0,0,1,0,1.28l-0.65.11a2.37,2.37,0,0,0-2,1.21c-0.4,1-.55,3.72-0.55,6.67v8.72Z" transform="translate(-53.09 -140.06)"/><path d="M418,227.63a48.61,48.61,0,0,0,.44,5.69,1,1,0,0,1-1.38.25,6.63,6.63,0,0,0-6.86-5.22c-4,0-8.39,3.47-8.39,10.73s4.19,11.16,8.57,11.16,6.45-3.17,7.44-5.65a1,1,0,0,1,1.39.26,16.32,16.32,0,0,1-1.39,5.73,27.27,27.27,0,0,1-7.4,1.34c-3.58,0-7.23-.83-9.82-2.77a11.43,11.43,0,0,1-4.63-9.55,12.06,12.06,0,0,1,4.41-9.67,16,16,0,0,1,10.11-3.25,44.3,44.3,0,0,1,7.51,1" transform="translate(-53.09 -140.06)"/><path d="M433.71,236.75c0,1,0,1.09,1,1.09h2.52c1.9,0,2.29-.26,2.7-2l0.18-.91a1.08,1.08,0,0,1,1.35,0c-0.07,1.17-.11,2.49-0.11,3.87s0,2.69.11,3.86a1,1,0,0,1-1.35,0l-0.18-.91c-0.4-1.75-.8-2-2.7-2h-2.52c-1,0-1,0-1,1.13v4.34a6.69,6.69,0,0,0,.58,3.47c0.48,0.65,1.17.95,3.84,0.95,3.17,0,4.41-.11,6.42-4.23a0.89,0.89,0,0,1,1.35.18,20.74,20.74,0,0,1-1.53,5.85c-1.93-.07-5.43-0.11-8.43-0.11h-4.74c-1.75,0-3.54,0-6.27.11a1,1,0,0,1,0-1.28l1.71-.25c1.64-.22,1.86-0.48,1.86-3.83V232.48c0-3.32-.21-3.58-1.86-3.87l-0.92-.18a0.92,0.92,0,0,1,.08-1.28c1.71,0.07,3.5.11,5.25,0.11h7.73c2.34,0,4.42,0,4.89-.11,0,0.59.29,3.21,0.47,5.65a1,1,0,0,1-1.35.15,8.43,8.43,0,0,0-1.39-2.88,4.79,4.79,0,0,0-3.57-1.13h-2.92c-1.21,0-1.21.07-1.21,1.42v6.38Z" transform="translate(-53.09 -140.06)"/></svg>