<?xml version="1.0" encoding="utf-8"?>
<!-- Generator: Adobe Illustrator 19.2.1, SVG Export Plug-In . SVG Version: 6.00 Build 0)  -->
<svg version="1.1" id="Layer_1" xmlns="http://www.w3.org/2000/svg" xmlns:xlink="http://www.w3.org/1999/xlink" x="0px" y="0px"
	 viewBox="0 0 281.6 109.1" style="enable-background:new 0 0 281.6 109.1;" xml:space="preserve">
<g>
	<g>
		<path d="M61,108.6V94.1l-7.2,12l-7.1-12v14.5h-1.6V90.9h1.6l7.1,12.1l7.2-12.1h1.5v17.7H61z"/>
		<path d="M82.5,100.9v7.7h-1.6v-7.7l-8-10h2.1l6.8,8.4l6.7-8.4h2L82.5,100.9z"/>
		<path d="M121.8,109c-1.5,0-3.1-0.2-4.5-0.8c-1.8-0.6-2.8-1.5-4.2-2.9l1.1-1.2c2.3,2.3,4.5,3.2,7.7,3.2c2.4,0,6.8-0.6,6.8-3.8
			c0-2.3-2.3-3.2-4-3.4c-1-0.1-3.3-0.1-4.7-0.1c-2.7,0-5.7-1.1-5.7-4.3c0-2.7,2.2-4.2,4.6-4.9c1.1-0.3,2.2-0.4,3.3-0.4
			c2.8,0,4.9,0.9,7,2.5l-1,1.2c-2.2-1.4-3.7-2.2-6.3-2.2c-0.8,0-1.5,0-2.3,0.2c-1.7,0.4-3.7,1.5-3.7,3.4c0,2.2,2.3,2.6,4.1,2.7
			c1.4,0,3.5,0,4.8,0.1c3,0.2,5.5,1.9,5.5,4.9C130.4,107.9,125.2,109,121.8,109z"/>
		<path d="M147.6,92.5v16.1H146V92.5h-6.8v-1.6h15.1v1.6H147.6z"/>
		<path d="M173.4,109c-5.3,0-9.6-3.9-9.6-9.2c0-5.3,4.3-9.2,9.5-9.2c5.3,0,9.6,3.8,9.6,9.2C182.9,105.1,178.6,109,173.4,109z
			 M173.4,92.2c-4.3,0-8,3.1-8,7.5c0,4.5,3.5,7.7,7.9,7.7c4.3,0,7.9-3.1,7.9-7.5C181.3,95.4,177.8,92.2,173.4,92.2z"/>
		<path d="M207.9,100.2c-0.9,0.7-2.3,0.9-2.9,1l4.5,7.5h-1.9l-4.5-7.5h-7.7v7.5h-1.7V90.9h10.4c1.8,0,2.3,0.1,3.3,0.7
			c1.5,0.8,2.3,2.8,2.3,4.4C209.9,97.5,209.2,99.3,207.9,100.2z M206.8,93.1c-0.6-0.4-1.3-0.5-3.3-0.5h-8v7h8c1.9,0,2.7-0.1,3.4-0.6
			c0.9-0.7,1.4-1.8,1.4-2.9C208.3,94.8,207.8,93.7,206.8,93.1z"/>
		<path d="M221.3,108.6V90.9h14.6v1.7h-13v6.1h7.1v1.6h-7.1v6.7h13.6v1.6H221.3z"/>
	</g>
</g>
<g>
	<rect y="64.3" width="281.6" height="6.8"/>
</g>
<g>
	<polygon points="96.4,29 96.4,44.3 122,44.3 122,30.1 144.6,0 128.4,0 115.6,17 101.3,0 71.9,0 	"/>
	<polygon points="207.2,0 207.2,9.2 171.4,9.2 171.4,17.6 203.4,17.6 203.4,26.8 171.4,26.8 171.4,35.2 207.2,35.2 207.2,44.4 
		148.1,44.4 148.1,0 	"/>
	<polygon points="34,44.3 20.9,44.3 6,15.3 6,44.3 0,44.3 0,0 24.4,0 34.7,20.1 44.9,0 69.2,0 69.2,44.3 46.8,44.3 46.8,15.3 	"/>
	<path d="M250.2,16.2h-9.8v-7h9.8c3,0,5.4,1.1,5.4,3.5C255.6,15,253.2,16.2,250.2,16.2 M281.4,12.7C281.3,3.9,273.7,0,264.1,0h-46.9
		v44.3h23.3V27.2l13.8,17.2h27.1l-15.3-19C274.7,24.7,281.5,20.3,281.4,12.7"/>
</g>
</svg>
