<?xml version="1.0" encoding="utf-8"?>
<!-- Generator: Adobe Illustrator 19.2.1, SVG Export Plug-In . SVG Version: 6.00 Build 0)  -->
<svg version="1.1" id="Layer_1" xmlns="http://www.w3.org/2000/svg" xmlns:xlink="http://www.w3.org/1999/xlink" x="0px" y="0px"
	 viewBox="0 0 638.3 99.5" style="enable-background:new 0 0 638.3 99.5;" xml:space="preserve">
<g>
	<polygon points="76.5,1.1 76.5,98.1 66.3,98.1 11.2,23.5 11.2,98.1 0,98.1 0,1.1 9.5,1.1 65.3,76.2 65.3,1.1 	"/>
	<rect x="98.1" y="1.1" width="11.7" height="97"/>
	<polygon points="206.9,1.1 206.9,98.1 196.7,98.1 141.6,23.5 141.6,98.1 130.4,98.1 130.4,1.1 139.9,1.1 195.7,76.2 195.7,1.1 	"/>
	<polygon points="274.8,1.1 274.8,13.7 239.9,13.7 239.9,42.9 273.6,42.9 273.6,55.5 239.9,55.5 239.9,85.5 275.9,85.5 275.9,98.1 
		228.2,98.1 228.2,1.1 	"/>
	<polygon points="442.5,1.1 409,98.9 406.8,98.9 379.7,19.7 352.4,98.9 350.1,98.9 316.8,1.1 328.6,1.1 351.3,68 374.1,1.1 
		385.3,1.1 408.3,68 430.7,1.1 	"/>
	<polygon points="503,1.1 503,13.7 468.1,13.7 468.1,42.9 501.8,42.9 501.8,55.5 468.1,55.5 468.1,85.5 504.1,85.5 504.1,98.1 
		456.3,98.1 456.3,1.1 	"/>
	<path d="M557,6.8v15.8c-6-6.7-12.4-10.1-19.2-10.1c-2.5,0-4.7,0.5-6.7,1.4c-2,1-3.5,2.3-4.6,4.1c-1.1,1.7-1.7,3.7-1.7,6
		c0,4,1.2,7.2,3.6,9.4c2.4,2.2,6.8,5.5,13,9.8c6.3,4.3,11,8.6,14.1,12.9c3.1,4.3,4.7,10,4.7,16.9c0,4.9-1,9.4-3,13.5
		c-2,4-4.7,7.2-8.2,9.4c-3.5,2.3-7.4,3.4-11.8,3.4c-8.6,0-16.2-3-23-9V72.8c6.2,9.4,13.5,14.1,21.7,14.1c4.2,0,7.5-1.3,9.9-3.8
		c2.3-2.5,3.5-5.3,3.5-8.4c0-4.4-1.4-8.1-4.2-10.9c-2.8-2.9-7.2-6.4-13.1-10.7c-6-4.3-10.5-8.4-13.6-12.4c-3.1-4-4.6-8.9-4.6-14.8
		c0-3.9,0.6-7.5,1.8-10.7c1.2-3.2,2.9-5.9,5.1-8.2c2.2-2.3,4.8-4,7.9-5.2C531.6,0.6,535,0,538.7,0C545.2,0,551.2,2.3,557,6.8"/>
	<polygon points="638.3,1.1 638.3,13.7 609.8,13.7 609.8,98.1 598.1,98.1 598.1,13.7 569.6,13.7 569.6,1.1 	"/>
</g>
</svg>
