<?xml version="1.0" encoding="utf-8"?>
<!-- Generator: Adobe Illustrator 19.2.1, SVG Export Plug-In . SVG Version: 6.00 Build 0)  -->
<svg version="1.1" id="Layer_1" xmlns="http://www.w3.org/2000/svg" xmlns:xlink="http://www.w3.org/1999/xlink" x="0px" y="0px"
	 viewBox="0 0 418.5 147.3" style="enable-background:new 0 0 418.5 147.3;" xml:space="preserve">
<style type="text/css">
	.st0{fill:#BD2035;}
	.st1{fill:#010101;}
</style>
<g>
	<g>
		<path class="st0" d="M186.5,0.1c-5.2,0.4-9.5,2.4-12.2,5.7c-0.6,0-1.2-0.1-1.7-0.1l0,0c-7,0-12.7,3-14.4,7.7
			c-0.3,0.8-0.6,1.9-0.6,3.2c0,2.6,1.1,6.2,4.9,10.5c0,0.4-0.1,0.7-0.1,1c0,5.2,2.4,9.9,7,13.6c1.4,1.1,3,2.1,4.7,2.9
			c-0.1,0.9-0.2,1.9-0.2,2.8c0,1.2,0.2,2.4,0.5,3.6c1.7,5.9,7.4,9,16.9,9.2c4.9,0.1,8-2.5,8.7-7.3c0.1-0.7,0.2-1.4,0.1-2.2
			c0-1.6-0.2-3.3-0.6-5.1c3-0.2,4.9-2,6-3.6c0.6-0.8,1-1.8,1.4-2.8c7.8-2.7,10-7.5,10.6-10.5c0.2-0.8,0.3-1.7,0.3-2.6
			c0-5.9-3.9-12.5-10.2-16.7c-0.4-0.3-0.8-0.4-1.2-0.7C204.3,4.5,199.4-0.9,186.5,0.1 M186.7,3.6c5.2-0.4,9.4,0.3,12.4,2.1
			c-3.4-0.7-6.7-0.7-9.9,0.2c-2.1,0-4.4,0.5-6.7,1.8c-1.3-0.5-2.7-1-4-1.3C180.6,4.8,183.4,3.8,186.7,3.6 M160.9,16.6
			c0-0.7,0.1-1.4,0.4-2c1.2-3.2,5.4-5.3,10.8-5.4c-0.1,0.1-0.1,0.2-0.2,0.3c-0.5,1.1-0.8,2.2-1,3.4c-2.4,0.8-4.9,2.8-6.8,7.3
			c-0.3,0.8-0.6,1.5-0.8,2.3C161.7,20.4,160.9,18.4,160.9,16.6 M175.1,10.9c0.2-0.5,0.5-1,0.7-1.4c1.1,0.2,2.3,0.4,3.5,0.8
			c-0.9,0.9-1.7,1.8-2.4,2.9c-0.2-0.1-0.5-0.2-0.7-0.3c-0.5-0.1-1-0.2-1.6-0.3C174.7,12,174.8,11.4,175.1,10.9 M171.5,39
			c-2-1.6-4.6-4.4-5.4-8.4c2.2,1.9,4.4,3.4,6.5,4.5c0.4,1.9,1,3.7,1.8,5.3c0.1,0.2,0.2,0.4,0.4,0.7C173.6,40.5,172.5,39.8,171.5,39
			 M167.2,21.6c1.1-2.5,2.2-3.9,3.3-4.7c0.1,2.7,0.7,5.6,1.8,8.3c-0.2,1.5-0.4,2.9-0.3,4.4c0,0.4,0,0.8,0.1,1.2
			c-1.4-0.9-2.7-1.9-4-3.1c-0.7-0.6-1.4-1.3-2-1.9C166.2,24.5,166.6,23.1,167.2,21.6 M174,16.5c0-0.2,0-0.4,0-0.5
			c0.4,0,0.8,0.1,1.1,0.2c-0.3,0.7-0.7,1.4-0.9,2.1C174.1,17.7,174,17.1,174,16.5 M179,18.1c2,1.4,4,3.4,6,5.8
			c-1.7,2-3.5,4.2-5.1,6.7c-0.4-0.5-0.9-0.9-1.3-1.4c-0.8-1-1.5-2.2-2.1-3.3C176.7,23.5,177.4,20.8,179,18.1 M184.2,12.4
			c2.5,1.4,4.8,3.4,6.8,5.9c-1.1,0.7-2.3,1.8-3.7,3.1c-2-2.5-4.2-4.5-6.4-6.1C181.9,14.3,183,13.3,184.2,12.4 M177,32.8
			c0-0.1,0-0.2-0.1-0.3c0.4,0.4,0.7,0.8,1.1,1.2c0,0,0,0,0,0.1c-0.3-0.1-0.6-0.2-0.8-0.3C177.2,33.2,177.1,33,177,32.8 M184.1,30.6
			c-0.1,0.5-0.1,1-0.1,1.5c0,0.2,0,0.4,0,0.5c0,0.5,0.1,1,0.2,1.5c-0.6-0.4-1.1-0.8-1.7-1.2C183,32.2,183.6,31.4,184.1,30.6
			 M187.5,32.4c0-0.1,0-0.2,0-0.4c0-1.2,0.3-2.4,0.8-3.7c1.1,1.7,2.1,3.4,3.1,5.2c-1.1,0.5-2.2,0.8-3.4,1
			C187.7,33.9,187.5,33.2,187.5,32.4 M191.5,23.2c0.5,1.8,0.8,3.6,1,5.4c-0.8-1.3-1.6-2.5-2.4-3.7C190.5,24.4,191,23.8,191.5,23.2
			 M189.6,9.4c2.4,0.1,4.9,1,7.5,2.8c2.5,1.7,4.5,5.3,5.8,9.4c-0.8,2.1-2.1,4.2-3.6,6c-0.3-1.1-0.6-2.3-1.1-3.6
			c-2.4-6.4-6.4-10.8-10.8-13.7C188.1,10,188.8,9.7,189.6,9.4 M199,9.4c-0.1-0.1-0.2-0.2-0.4-0.2c1.6,0.4,3.3,1,4.8,1.9
			c0.4,1.3,0.7,2.7,0.7,4.1c0,0.2,0,0.3,0,0.5C202.7,13,201,10.8,199,9.4 M195.9,28.3c0.2,0.8,0.4,1.5,0.5,2.2
			c-0.1,0.1-0.2,0.1-0.3,0.2C196,29.9,196,29.1,195.9,28.3 M196.5,34.7c-0.1,0.5-0.1,1-0.2,1.4c-0.1-0.2-0.2-0.4-0.3-0.6
			c0-0.2,0-0.4,0-0.6C196.3,34.9,196.4,34.8,196.5,34.7 M192.6,36.8c0,0.1,0,0.2,0,0.4c-0.2,0-0.4-0.1-0.7-0.1
			C192.2,36.9,192.4,36.9,192.6,36.8 M204.1,26.8c0.2,1.6,0.4,3.2,0.4,4.8c0,1.7-0.2,3.3-0.5,4.8c-0.9,0.2-1.8,0.5-2.7,0.6
			c-0.5,0.1-1.1,0.2-1.6,0.2c0.3-1.1,0.4-2.4,0.4-3.8c0-0.5,0-1-0.1-1.5C201.6,30.3,203,28.6,204.1,26.8 M207.6,15.1
			c0-0.5-0.1-0.9-0.1-1.4c4.1,3.5,6.6,8.1,6.7,12.2c0,0.7-0.1,1.3-0.2,1.9c-0.6,3-2.8,5.4-6.2,7c0.2-1.1,0.2-2.3,0.2-3.6
			c0-3.2-0.5-6.6-1.4-9.8C207.2,19.4,207.6,17.3,207.6,15.1 M179.8,37.9c1.8,0.4,3.4,0.5,5,0.5c0.6,0.3,1.2,0.5,1.8,0.7
			c0.9,1.1,2,2.1,3.3,2.9c0.3,0.2,0.6,0.4,0.9,0.5c-2.1,0.8-4.6,1.2-7.2,1c-1.4-1.1-2.9-2.8-4.1-4.9
			C179.5,38.4,179.6,38.1,179.8,37.9 M201.9,40.4c0.1,0,0.2,0,0.3-0.1c-0.9,1.2-2.2,1.7-3.7,1.7c-0.1-0.4-0.2-0.8-0.4-1.2v0
			C199.4,40.7,200.6,40.6,201.9,40.4 M189.1,52.2c2.5-1.1,4.3-3.9,5.5-7.6c0.5,0.2,0.9,0.3,1.3,0.4c0.4,1.9,0.7,3.7,0.7,5.3
			c0,0.7,0,1.3-0.1,2c-0.5,3.1-2.1,4.5-5.2,4.4c-7.8-0.2-12.4-2.4-13.7-6.7c-0.2-0.8-0.4-1.8-0.4-2.7c0-0.4,0.1-0.9,0.1-1.4
			c0.1,0,0.2,0.1,0.4,0.1C182.5,53,186.5,53.4,189.1,52.2 M183.5,47.7c0.9,0.4,1.9,0.8,2.8,0.9c0.6,0.1,1.4,0.1,2.2-0.1
			c-0.3,0.2-0.6,0.5-0.9,0.6C186.5,49.6,185.1,49.1,183.5,47.7"/>
	</g>
	<path class="st1" d="M35,39.9l-0.9,0c-9.6,0-19.7,1.6-29.2,4.6c-2.4,0.9-4.1,2.8-4.4,5C0.2,51.6,0,53.7,0,55.9
		c0,2.4,0.2,7.5,0.3,12l0.2,7c0,8.4,8.7,13.6,16.8,13.6l30.3,0c5.2,0,7.4,2.5,7.4,8.4c0,2.1-0.5,5.8-2.3,6.8
		c-1.2,0.7-15.1,0-24.3-0.5c-5.7-0.3-10.6-0.5-12.9-0.5c-3.9,0-14.3,0-14.3,7.7c0,2,0.9,3.8,2.5,4.8c4.9,3.1,25,3.8,31.6,3.8
		c7.7,0,26-0.5,30.3-4.6c1.4-1.3,2.3-3.4,2.3-5.7c0-6.7-0.5-13.6-0.9-20.2l-0.3-4.8C66.6,77.7,64,75,58.4,75c-3.4,0-29.1-0.8-39-2.8
		c-3.9-0.8-6.7-4.3-6.7-8.4c0-4.6,3.5-8.3,8.1-8.6l8.5-0.4c11.3-0.5,20.7-0.9,22.1-1.5c1.7-0.5,2.8-2.1,2.8-4.1
		c0-2.3-0.7-4.2-2.2-5.6C48.1,39.8,40.2,39.8,35,39.9"/>
	<path class="st1" d="M169.7,103.5l0-0.9c0-15.1-2-34.2-3.6-47.6c-0.6-5.4-5.4-11.5-11.3-11.9l-6.4-0.4c-5.5-0.4-11.1-0.8-16.4-0.7
		c-4.5,0-6.5,4.8-7.7,7.7l-0.3,0.7c-1.1,2.9-1.7,6.3-2.1,9c-0.5,3.5-0.5,7.2-0.4,11.5l0.1,4.6l0,15.1c0,1,0,4-0.8,4.8
		c-0.1,0.1-0.2,0.2-0.4,0.2c-0.9,0-2-2.1-2.1-3.4c-0.4-2.1-0.3-4.2-0.3-6.3l0-1.6c0-10.9-0.8-26.4-3-34c-0.8-2.9-2.9-5-5.5-5.8
		c-2.5-0.9-15.9-3-19.9-3c-10.7,0-12.3,14.9-13.2,23.8l-0.4,3.2c-0.3,2.7,0.2,30.6,0.8,41.8c0.4,5.4,3.2,8.6,7.5,8.6
		c2.2,0,4.7-0.9,5.4-3.3c1.1-3.6,1.8-8,1.8-12c0-4.2-0.4-8.6-0.7-12.9c-0.4-4.4-0.8-9-0.8-13.5l0-2.1c-0.1-5.1-0.3-14.5,3-18
		c0.8-0.9,1.9-1.3,3.1-1.3c4.6,0,7.4,5.6,7.4,9.6L103.3,85c0,5.7,0.2,10.6,0.6,15c1.1,11.9,11.2,11.9,20.1,11.9
		c2.9,0,11.8,0,11.8-8.9c0-5.8-0.1-11.7-0.2-17.4c-0.1-5.7-0.2-11.6-0.3-17.4c0-5.6,3.5-11.5,10.1-11.5c4,0,8.7,2.5,9.3,6.5
		c0.2,1.3,0.3,2.5,0.3,3.6l0.1,1.8c0,0,0.6,12.4,0.6,12.4c0.4,8.2,0.8,16.7,0.8,25c0,6.3,2.5,9.9,6.9,9.9c1.6,0,2.9-0.5,3.9-1.5
		C169.8,111.9,169.8,107.1,169.7,103.5"/>
	<path class="st1" d="M240.5,100.4c0,7,7.1,5,11.7,6.6c1.5,0.5,2.8,1.6,3.3,3.2c2,4.9,5.2,15.6,5.2,20.6c0,7-3.4,14.1-11.2,14.4
		c-10.9,0.5-21.6,1-32.3,1.5c-1.9,0.2-3.9,0.5-5.8,0.5c-6.2,0-6-6.5-6-11.2c0-3.2-1.2-18.5-1.2-22.7c0-13.1,10.5-5.7,16.8-10.6
		c0.6-0.5,1-1.1,1-1.9c0-5.2-8.9-4.4-12.2-5.8c-3.6-1.6-4.1-12-4.1-15.6c0-5.4-0.3-10.7-0.3-16.2c0-11.2,12.8-12.7,21.4-12.7
		c2.8,0,5,1.8,7.6,1.8c7.1,0,6.9-14.3,18.9-18.7c0.6-0.2,1.5-0.3,2.1-0.3c3.4,0,5.2,2.9,5.2,6c0,7.1-8.6,12-8.6,17
		c0,2.1,0.3,4,0.3,6.2c0,8.4,2.5,15.9,2.5,23.7c0,1.8-0.2,3.4-0.3,5C253.8,98.2,240.5,93.1,240.5,100.4 M216.5,72.9
		c0,10.5,3.6,11.7,13.3,11.6c7.8,0,10.7,0.1,10.7-8.6c0-11-4.4-11.7-14.3-11.7c-2.6,0-9.2,1-9.6,4.4
		C216.6,70.1,216.5,71.6,216.5,72.9 M233.4,135.2c4.9,0,12.3-0.7,12.3-7.2c0-7.6-6.7-10.4-13.3-10.4c-4.9,0-15.9,1.3-15.9,7.6
		C216.6,136.2,225,135.3,233.4,135.2"/>
	<path class="st1" d="M301.5,100.3c0,7,7.1,5,11.7,6.6c1.5,0.5,2.8,1.6,3.2,3.2c2,4.9,5.2,15.6,5.2,20.6c0,7-3.4,14.1-11.2,14.4
		c-10.9,0.5-21.6,1-32.3,1.5c-2,0.2-3.9,0.5-5.8,0.5c-6.2,0-6-6.5-6-11.2c0-3.2-1.2-18.5-1.2-22.7c0-13.1,10.5-5.7,16.9-10.6
		c0.6-0.5,1-1.1,1-1.9c0-5.2-8.9-4.4-12.2-5.8c-3.6-1.6-4.1-12-4.1-15.6c0-5.3-0.3-10.7-0.4-16.2c0-11.2,12.8-12.7,21.4-12.7
		c2.8,0,5,1.8,7.6,1.8c7.1,0,7-14.3,18.9-18.7c0.6-0.2,1.5-0.3,2.1-0.3c3.4,0,5.2,2.9,5.2,6c0,7.1-8.6,12-8.6,17
		c0,2.1,0.3,4,0.3,6.2c0,8.4,2.5,15.9,2.5,23.7c0,1.8-0.1,3.4-0.3,5C314.8,98.1,301.5,93,301.5,100.3 M277.4,72.8
		c0,10.5,3.6,11.7,13.3,11.7c7.8,0,10.7,0.1,10.7-8.6c0-11-4.4-11.7-14.3-11.6c-2.6,0-9.2,1-9.6,4.4C277.6,70,277.4,71.5,277.4,72.8
		 M294.4,135.2c4.9,0,12.3-0.7,12.3-7.2c0-7.6-6.7-10.4-13.3-10.3c-4.9,0-15.9,1.3-15.9,7.6C277.5,136.1,286,135.2,294.4,135.2"/>
	<path class="st1" d="M326.3,40.4c0,2.2,0.4,4.4,0.9,6.6l0.4,2.4c2.9,19.9,3,39,3,59.2c0,4.4,1.7,11.4,6.4,11.4
		c3.9,0,9.8-3.4,9.8-8.2c0-1.7-1-3.6-1.9-5.5c-0.6-1.2-1.2-2.4-1.5-3.4c-1-3.8-1.1-8.3-1.1-11.8c-0.3-16.3-0.7-33-1.5-49.5
		c-0.3-3.9-3.5-9.4-8.3-9.4C328.6,32.3,326.3,37.1,326.3,40.4"/>
	<path class="st1" d="M367.1,89.2c0,2.7,1.5,5.6,4.4,5.8c9.7,0.8,23.4-0.2,32.3,4c1.9,0.9,2.7,3.1,2.7,5.3c0,4.9-5.8,7.5-10.2,7.5
		c-0.8,0-1.7-0.2-2.6-0.3c-7.3-2-14.4-3.4-22.1-3.4c-11.4,0-20.9,1.6-20.9-14.1c0-7,3.2-12.9,3.9-19.7c0.7-6.8,1-13.8,1.7-20.5
		c0.2-2.2,4.2-8,6.4-8.3c8.7-1.4,21.1-3.1,29.7-3.1c4.1,0,8,2.5,8,6.9c0,3.2,0.7,6.3,0.7,9.3c0,1.9,0.2,11.5,0.2,14.6
		c0,8.7-2.9,11.6-11.5,11.6c-5.4,0-10.5-2-16.1-2C369.6,82.7,367.1,85,367.1,89.2 M371.4,58.8c-1.5,1.7-2.5,5.1-2.5,7.5
		c0,3.4,3.6,3.6,6.1,3.5c4.9,0,11.2,0.3,11.2-6.1c0-4.6-2-6.4-6.6-6.4C377.1,57.3,373.1,56.8,371.4,58.8"/>
	<path class="st1" d="M191.6,89.9c0,4.7,0.5,9.4,1.3,14.1c0.5,2.1,1.5,4.5,1.5,6.8c0,4.5-4.2,7.5-8.4,7.5c-4.4,0-8.1-2.9-8.1-7.4
		c0-11,0.8-22.2,0.9-33.4c0-2.1,0-4.4,0.1-6.5c0.2-1.5,0.8-3.1,1.8-4.2c1.1-1,2.7-1.6,4.2-1.6c4.7,0,8.1,4.5,8.1,8.9
		C193.1,78.9,191.6,84.5,191.6,89.9"/>
	<path class="st1" d="M418.5,108.5c0,2.4-1.8,4.2-4.2,4.2c-2.4,0-4.2-1.8-4.2-4.2c0-2.4,1.8-4.2,4.2-4.2
		C416.7,104.3,418.5,106.1,418.5,108.5 M410.8,108.5c0,2,1.5,3.6,3.5,3.6c2,0,3.5-1.6,3.5-3.6c0-2-1.5-3.6-3.5-3.6
		C412.3,104.9,410.8,106.5,410.8,108.5 M413.4,110.9h-0.6l0-4.8l1.9,0c1.1,0,1.6,0.5,1.6,1.3c0,0.9-0.6,1.2-1.2,1.4l1.4,2.1l-0.7,0
		l-1.4-2.1l-1,0V110.9z M414.2,108.3c0.7,0,1.5,0,1.5-0.8c0-0.7-0.6-0.8-1.1-0.8l-1.1,0l0,1.7H414.2z"/>
</g>
</svg>
