<svg xmlns="http://www.w3.org/2000/svg" viewBox="0 0 235.1 65.73"><defs><style>.cls-1{fill:#ffd530;}.cls-2{fill:#162243;}</style></defs><title>supersuper</title><g id="Layer_2" data-name="Layer 2"><g id="Layer_1-2" data-name="Layer 1"><path class="cls-1" d="M83.5,35.23,99,1.63l39,18-6.7,15.6M124,1a10.54,10.54,0,0,0-11.9,1.9,10.15,10.15,0,0,0-1.9,2.7l2,.9a7.84,7.84,0,0,1,1.4-2A8.43,8.43,0,0,1,123.2,3c4.2,2,6.2,6.7,4.5,10.7l1.8.8C131.8,9.53,129.3,3.53,124,1Z"/><path class="cls-2" d="M8.8,65.73a18.93,18.93,0,0,1-4.7-.6A15.31,15.31,0,0,1,0,63.43l1.7-6.1A10.15,10.15,0,0,0,5,58.93a11.69,11.69,0,0,0,3.5.6,5.88,5.88,0,0,0,2.6-.4,1.29,1.29,0,0,0,.8-1.3,1.22,1.22,0,0,0-.3-.9,3.49,3.49,0,0,0-.9-.6,16.17,16.17,0,0,0-2-.8,9.76,9.76,0,0,1-4.5-2.9,7,7,0,0,1-1.4-4.4,7.09,7.09,0,0,1,2.7-5.9c1.8-1.5,4.3-2.2,7.4-2.2a17.4,17.4,0,0,1,4.5.6,12.09,12.09,0,0,1,3.8,1.6l-1.8,6a16.58,16.58,0,0,0-3.3-1.5,9.89,9.89,0,0,0-3.1-.6c-1.7,0-2.6.5-2.6,1.5a1.14,1.14,0,0,0,.3.8,3.49,3.49,0,0,0,.9.6,17.78,17.78,0,0,0,1.8.8,11.65,11.65,0,0,1,4.8,3,6.91,6.91,0,0,1,1.4,4.5,7.36,7.36,0,0,1-2.9,6.1c-1.9,1.5-4.5,2.2-7.9,2.2Zm24.8,0c-3.3,0-5.9-.8-7.7-2.4a8.45,8.45,0,0,1-2.7-6.7,18.89,18.89,0,0,1,.4-3.8L26,40.63h7.9l-2.5,12.8a7.49,7.49,0,0,0-.2,2.1,3.56,3.56,0,0,0,.7,2.5,3.2,3.2,0,0,0,2.3.8,4,4,0,0,0,2.9-1.1,8.47,8.47,0,0,0,1.6-3.8l2.6-13.3h7.9l-2.8,14.2c-.7,3.8-2.1,6.5-4.2,8.3S37.3,65.73,33.6,65.73Zm20.1-25.1h8c3.2,0,5.7.7,7.4,2a6.9,6.9,0,0,1,2.6,5.7,8.8,8.8,0,0,1-3,7.2c-2,1.6-4.9,2.5-8.8,2.5H57.8l-1.4,7.2H48.9Zm5.2,11.8h1.2a4.77,4.77,0,0,0,3.1-.9,3.39,3.39,0,0,0,1.1-2.7,2.56,2.56,0,0,0-.8-1.9,4.27,4.27,0,0,0-2.4-.6h-.8Zm17.6-11.8H93.7l-1.1,5.9H82.5l-.7,3.4h8.8l-1.1,5.9H80.7l-.7,3.6H90.9l-1.1,5.9h-18Zm22.4,0h7.8c3.3,0,5.9.6,7.6,1.9a6.71,6.71,0,0,1,2.6,5.6,8.1,8.1,0,0,1-1.3,4.7,8.5,8.5,0,0,1-3.7,3l4.4,9.4h-8.2l-2.7-7.7h-2.3l-1.5,7.7H94.1Zm5.2,11.6h1.2c2.7,0,4.1-1.2,4.1-3.6a2.56,2.56,0,0,0-.8-1.9,4.27,4.27,0,0,0-2.4-.6h-.8l-1.3,6.1Zm24.2,13.5a18.93,18.93,0,0,1-4.7-.6,15.31,15.31,0,0,1-4.1-1.7l1.7-6.1a10.15,10.15,0,0,0,3.3,1.6,11.69,11.69,0,0,0,3.5.6,5.88,5.88,0,0,0,2.6-.4,1.29,1.29,0,0,0,.8-1.3,1.22,1.22,0,0,0-.3-.9,3.49,3.49,0,0,0-.9-.6,16.17,16.17,0,0,0-2-.8,9.76,9.76,0,0,1-4.5-2.9,7,7,0,0,1-1.4-4.4,7.09,7.09,0,0,1,2.7-5.9c1.8-1.5,4.3-2.2,7.4-2.2a17.4,17.4,0,0,1,4.5.6,12.09,12.09,0,0,1,3.8,1.6l-1.8,6a16.58,16.58,0,0,0-3.3-1.5,9.89,9.89,0,0,0-3.1-.6c-1.7,0-2.6.5-2.6,1.5a1.14,1.14,0,0,0,.3.8,3.49,3.49,0,0,0,.9.6,17.78,17.78,0,0,0,1.8.8,11.65,11.65,0,0,1,4.8,3,6.91,6.91,0,0,1,1.4,4.5,7.36,7.36,0,0,1-2.9,6.1c-1.9,1.5-4.5,2.2-7.9,2.2Zm24.6,0c-3.3,0-5.9-.8-7.7-2.4a8.45,8.45,0,0,1-2.7-6.7,18.89,18.89,0,0,1,.4-3.8l2.4-12.2h7.9l-2.5,12.8a7.49,7.49,0,0,0-.2,2.1,3.56,3.56,0,0,0,.7,2.5,3.2,3.2,0,0,0,2.3.8,4,4,0,0,0,2.9-1.1,8.47,8.47,0,0,0,1.6-3.8l2.6-13.3h7.9l-2.8,14.2c-.7,3.8-2.1,6.5-4.2,8.3s-4.9,2.6-8.6,2.6Zm19.9-25.1h8c3.2,0,5.7.7,7.4,2a6.9,6.9,0,0,1,2.6,5.7,8.8,8.8,0,0,1-3,7.2c-2,1.6-4.9,2.5-8.8,2.5h-2.1l-1.4,7.2H168Zm5.2,11.8h1.2a4.77,4.77,0,0,0,3.1-.9,3.39,3.39,0,0,0,1.1-2.7,2.56,2.56,0,0,0-.8-1.9,4.27,4.27,0,0,0-2.4-.6h-.8l-1.4,6.1Zm17.1-11.8h17.2l-1.1,5.9H201l-.7,3.4h8.8l-1.1,5.9h-8.8l-.7,3.6h10.9l-1.1,5.9h-18l4.8-24.7Zm22,0h7.8c3.3,0,5.9.6,7.6,1.9a6.71,6.71,0,0,1,2.6,5.6,8.1,8.1,0,0,1-1.3,4.7,8.5,8.5,0,0,1-3.7,3l4.4,9.4h-8.2l-2.7-7.7h-2.3l-1.5,7.7h-7.5l4.8-24.6Zm5.2,11.6h1.2c2.7,0,4.1-1.2,4.1-3.6a2.56,2.56,0,0,0-.8-1.9,4.27,4.27,0,0,0-2.4-.6h-.8Z"/></g></g></svg>