<svg xmlns="http://www.w3.org/2000/svg" viewBox="0 0 235.1 85.53"><defs><style>.cls-1{fill:#fecc16;}.cls-2{fill:#162243;}.cls-3{fill:none;}</style></defs><title>supersuper-sss</title><g id="Layer_2" data-name="Layer 2"><g id="Layer_1-2" data-name="Layer 1"><path class="cls-1" d="M83.5,35.23,99,1.63l39,18-6.7,15.6M124,1a10.54,10.54,0,0,0-11.9,1.9,10.15,10.15,0,0,0-1.9,2.7l2,.9a7.84,7.84,0,0,1,1.4-2A8.43,8.43,0,0,1,123.2,3c4.2,2,6.2,6.7,4.5,10.7l1.8.8C131.8,9.53,129.3,3.53,124,1Z"/><path class="cls-2" d="M8.8,65.73a18.93,18.93,0,0,1-4.7-.6A15.31,15.31,0,0,1,0,63.43l1.7-6.1A10.15,10.15,0,0,0,5,58.93a11.69,11.69,0,0,0,3.5.6,5.88,5.88,0,0,0,2.6-.4,1.29,1.29,0,0,0,.8-1.3,1.22,1.22,0,0,0-.3-.9,3.49,3.49,0,0,0-.9-.6,16.17,16.17,0,0,0-2-.8,9.76,9.76,0,0,1-4.5-2.9,7,7,0,0,1-1.4-4.4,7.09,7.09,0,0,1,2.7-5.9c1.8-1.5,4.3-2.2,7.4-2.2a17.4,17.4,0,0,1,4.5.6,12.09,12.09,0,0,1,3.8,1.6l-1.8,6a16.58,16.58,0,0,0-3.3-1.5,9.89,9.89,0,0,0-3.1-.6c-1.7,0-2.6.5-2.6,1.5a1.14,1.14,0,0,0,.3.8,3.49,3.49,0,0,0,.9.6,17.78,17.78,0,0,0,1.8.8,11.65,11.65,0,0,1,4.8,3,6.91,6.91,0,0,1,1.4,4.5,7.36,7.36,0,0,1-2.9,6.1c-1.9,1.5-4.5,2.2-7.9,2.2Zm24.8,0c-3.3,0-5.9-.8-7.7-2.4a8.45,8.45,0,0,1-2.7-6.7,18.89,18.89,0,0,1,.4-3.8L26,40.63h7.9l-2.5,12.8a7.49,7.49,0,0,0-.2,2.1,3.56,3.56,0,0,0,.7,2.5,3.2,3.2,0,0,0,2.3.8,4,4,0,0,0,2.9-1.1,8.47,8.47,0,0,0,1.6-3.8l2.6-13.3h7.9l-2.8,14.2c-.7,3.8-2.1,6.5-4.2,8.3S37.3,65.73,33.6,65.73Zm20.1-25.1h8c3.2,0,5.7.7,7.4,2a6.9,6.9,0,0,1,2.6,5.7,8.8,8.8,0,0,1-3,7.2c-2,1.6-4.9,2.5-8.8,2.5H57.8l-1.4,7.2H48.9Zm5.2,11.8h1.2a4.77,4.77,0,0,0,3.1-.9,3.39,3.39,0,0,0,1.1-2.7,2.56,2.56,0,0,0-.8-1.9,4.27,4.27,0,0,0-2.4-.6h-.8Zm17.6-11.8H93.7l-1.1,5.9H82.5l-.7,3.4h8.8l-1.1,5.9H80.7l-.7,3.6H90.9l-1.1,5.9h-18Zm22.4,0h7.8c3.3,0,5.9.6,7.6,1.9a6.71,6.71,0,0,1,2.6,5.6,8.1,8.1,0,0,1-1.3,4.7,8.5,8.5,0,0,1-3.7,3l4.4,9.4h-8.2l-2.7-7.7h-2.3l-1.5,7.7H94.1Zm5.2,11.6h1.2c2.7,0,4.1-1.2,4.1-3.6a2.56,2.56,0,0,0-.8-1.9,4.27,4.27,0,0,0-2.4-.6h-.8l-1.3,6.1Zm24.2,13.5a18.93,18.93,0,0,1-4.7-.6,15.31,15.31,0,0,1-4.1-1.7l1.7-6.1a10.15,10.15,0,0,0,3.3,1.6,11.69,11.69,0,0,0,3.5.6,5.88,5.88,0,0,0,2.6-.4,1.29,1.29,0,0,0,.8-1.3,1.22,1.22,0,0,0-.3-.9,3.49,3.49,0,0,0-.9-.6,16.17,16.17,0,0,0-2-.8,9.76,9.76,0,0,1-4.5-2.9,7,7,0,0,1-1.4-4.4,7.09,7.09,0,0,1,2.7-5.9c1.8-1.5,4.3-2.2,7.4-2.2a17.4,17.4,0,0,1,4.5.6,12.09,12.09,0,0,1,3.8,1.6l-1.8,6a16.58,16.58,0,0,0-3.3-1.5,9.89,9.89,0,0,0-3.1-.6c-1.7,0-2.6.5-2.6,1.5a1.14,1.14,0,0,0,.3.8,3.49,3.49,0,0,0,.9.6,17.78,17.78,0,0,0,1.8.8,11.65,11.65,0,0,1,4.8,3,6.91,6.91,0,0,1,1.4,4.5,7.36,7.36,0,0,1-2.9,6.1c-1.9,1.5-4.5,2.2-7.9,2.2Zm24.6,0c-3.3,0-5.9-.8-7.7-2.4a8.45,8.45,0,0,1-2.7-6.7,18.89,18.89,0,0,1,.4-3.8l2.4-12.2h7.9l-2.5,12.8a7.49,7.49,0,0,0-.2,2.1,3.56,3.56,0,0,0,.7,2.5,3.2,3.2,0,0,0,2.3.8,4,4,0,0,0,2.9-1.1,8.47,8.47,0,0,0,1.6-3.8l2.6-13.3h7.9l-2.8,14.2c-.7,3.8-2.1,6.5-4.2,8.3s-4.9,2.6-8.6,2.6Zm19.9-25.1h8c3.2,0,5.7.7,7.4,2a6.9,6.9,0,0,1,2.6,5.7,8.8,8.8,0,0,1-3,7.2c-2,1.6-4.9,2.5-8.8,2.5h-2.1l-1.4,7.2H168Zm5.2,11.8h1.2a4.77,4.77,0,0,0,3.1-.9,3.39,3.39,0,0,0,1.1-2.7,2.56,2.56,0,0,0-.8-1.9,4.27,4.27,0,0,0-2.4-.6h-.8l-1.4,6.1Zm17.1-11.8h17.2l-1.1,5.9H201l-.7,3.4h8.8l-1.1,5.9h-8.8l-.7,3.6h10.9l-1.1,5.9h-18l4.8-24.7Zm22,0h7.8c3.3,0,5.9.6,7.6,1.9a6.71,6.71,0,0,1,2.6,5.6,8.1,8.1,0,0,1-1.3,4.7,8.5,8.5,0,0,1-3.7,3l4.4,9.4h-8.2l-2.7-7.7h-2.3l-1.5,7.7h-7.5l4.8-24.6Zm5.2,11.6h1.2c2.7,0,4.1-1.2,4.1-3.6a2.56,2.56,0,0,0-.8-1.9,4.27,4.27,0,0,0-2.4-.6h-.8Z"/><path class="cls-3" d="M62.2,74.53H173v10.3H62.2Z"/><path class="cls-2" d="M66,82.78a7.29,7.29,0,0,1-1.72-.21A4.13,4.13,0,0,1,62.88,82l.18-1.57a5.2,5.2,0,0,0,1.35.59,5.55,5.55,0,0,0,1.47.21,2.28,2.28,0,0,0,1.28-.3,1,1,0,0,0,.45-.86.91.91,0,0,0-.38-.76,5.15,5.15,0,0,0-1.43-.62,5,5,0,0,1-2.12-1.12A2.31,2.31,0,0,1,63,75.88a2.41,2.41,0,0,1,.39-1.36,2.6,2.6,0,0,1,1.13-.92,4.29,4.29,0,0,1,1.74-.33,6.06,6.06,0,0,1,1.45.18A5.1,5.1,0,0,1,69,74l-.25,1.52A5.63,5.63,0,0,0,67.61,75a4.72,4.72,0,0,0-1.25-.18,2,2,0,0,0-1.15.27.93.93,0,0,0-.39.8.9.9,0,0,0,.15.53,1.25,1.25,0,0,0,.49.38,8.43,8.43,0,0,0,1,.37,5.91,5.91,0,0,1,2.31,1.18,2.31,2.31,0,0,1,.69,1.74,2.37,2.37,0,0,1-.93,2A4,4,0,0,1,66,82.78Z"/><path class="cls-2" d="M71,72.87h1.67v4.28a1.75,1.75,0,0,1,.73-.64,2.41,2.41,0,0,1,1.07-.22,2.06,2.06,0,0,1,1.65.66,2.89,2.89,0,0,1,.57,1.93v3.71H75.06v-3.4c0-1-.36-1.43-1.09-1.43a1.16,1.16,0,0,0-.93.4,1.76,1.76,0,0,0-.33,1.14v3.29H71Z"/><path class="cls-2" d="M81.41,82.78a3.42,3.42,0,0,1-1.65-.41,3.06,3.06,0,0,1-1.19-1.15,3.37,3.37,0,0,1,0-3.31,3.08,3.08,0,0,1,1.17-1.18,3.24,3.24,0,0,1,1.7-.44,3.41,3.41,0,0,1,1.65.4,3.13,3.13,0,0,1,1.2,1.14,3.46,3.46,0,0,1,0,3.32,3.15,3.15,0,0,1-1.17,1.18A3.31,3.31,0,0,1,81.41,82.78Zm0-1.49a1.53,1.53,0,0,0,1.17-.49,2,2,0,0,0,0-2.54,1.64,1.64,0,0,0-2.34,0,1.81,1.81,0,0,0-.45,1.27,1.77,1.77,0,0,0,.46,1.27A1.5,1.5,0,0,0,81.41,81.29Z"/><path class="cls-2" d="M86.13,76.48h1.59l0,.79a2.2,2.2,0,0,1,2-1,2.73,2.73,0,0,1,1.44.39,2.77,2.77,0,0,1,1,1.14,3.79,3.79,0,0,1,.37,1.69,3.52,3.52,0,0,1-.37,1.63,3,3,0,0,1-1,1.19,2.63,2.63,0,0,1-1.51.45,2.47,2.47,0,0,1-1.1-.24,1.89,1.89,0,0,1-.79-.66v3.65H86.13Zm3.19,4.81a1.5,1.5,0,0,0,1.17-.49,2,2,0,0,0,0-2.54,1.62,1.62,0,0,0-2.32,0,2,2,0,0,0,0,2.54A1.5,1.5,0,0,0,89.32,81.29Z"/><path class="cls-2" d="M94.71,82.66a1.07,1.07,0,0,1-.75-.28,1,1,0,0,1-.28-.72A.89.89,0,0,1,94,81a1.05,1.05,0,0,1,.74-.27,1,1,0,0,1,.73.28.91.91,0,0,1,.29.69,1,1,0,0,1-.29.72A1,1,0,0,1,94.71,82.66Z"/><path class="cls-2" d="M102.88,82.78a7.29,7.29,0,0,1-1.72-.21A4.07,4.07,0,0,1,99.81,82l.18-1.57a5,5,0,0,0,1.34.59,5.62,5.62,0,0,0,1.48.21,2.31,2.31,0,0,0,1.28-.3,1,1,0,0,0,.45-.86.93.93,0,0,0-.38-.76,5.11,5.11,0,0,0-1.44-.62,5,5,0,0,1-2.12-1.12,2.35,2.35,0,0,1-.64-1.71,2.41,2.41,0,0,1,.39-1.36,2.58,2.58,0,0,1,1.14-.92,4.22,4.22,0,0,1,1.74-.33,6,6,0,0,1,1.44.18A5,5,0,0,1,106,74l-.25,1.52a5.21,5.21,0,0,0-1.17-.49,4.7,4.7,0,0,0-1.24-.18,2,2,0,0,0-1.16.27.93.93,0,0,0-.39.8.9.9,0,0,0,.15.53,1.25,1.25,0,0,0,.49.38,9.21,9.21,0,0,0,1,.37,6,6,0,0,1,2.32,1.18,2.57,2.57,0,0,1-.25,3.72A4,4,0,0,1,102.88,82.78Z"/><path class="cls-2" d="M110.27,82.78a2.7,2.7,0,0,1-2.46-1.53,3.7,3.7,0,0,1-.37-1.7,3.58,3.58,0,0,1,.37-1.63,3,3,0,0,1,1-1.18,2.61,2.61,0,0,1,1.52-.45,2.5,2.5,0,0,1,1.13.25,2.12,2.12,0,0,1,.81.73l0-.79h1.6v6.11h-1.6l0-.79a1.89,1.89,0,0,1-.83.73A2.65,2.65,0,0,1,110.27,82.78Zm.46-1.49a1.5,1.5,0,0,0,1.16-.49,1.77,1.77,0,0,0,.46-1.27,1.81,1.81,0,0,0-.45-1.27,1.64,1.64,0,0,0-2.34,0,2,2,0,0,0,0,2.54A1.53,1.53,0,0,0,110.73,81.29Z"/><path class="cls-2" d="M115,76.48h1.84l1.41,4.35,1.47-4.35h1.74l-2.37,6.11h-1.73Z"/><path class="cls-2" d="M125.56,82.78a4.25,4.25,0,0,1-1.87-.39,2.86,2.86,0,0,1-1.24-1.12,3.34,3.34,0,0,1-.44-1.73,3.59,3.59,0,0,1,.38-1.66,2.93,2.93,0,0,1,1.09-1.17,3.19,3.19,0,0,1,1.65-.42,3.13,3.13,0,0,1,1.52.36,2.71,2.71,0,0,1,1,1,3.46,3.46,0,0,1,.36,1.62A3.88,3.88,0,0,1,128,80h-4.31c.21.91.9,1.37,2.08,1.37a5.32,5.32,0,0,0,1.07-.11,4.24,4.24,0,0,0,1-.33l.16,1.3a3.49,3.49,0,0,1-1,.37A6.19,6.19,0,0,1,125.56,82.78Zm.88-3.9a1.48,1.48,0,0,0-.42-1,1.28,1.28,0,0,0-.94-.34,1.35,1.35,0,0,0-1,.34,1.63,1.63,0,0,0-.48,1Z"/><path class="cls-2" d="M130.46,82.66a1.05,1.05,0,0,1-.75-.28,1,1,0,0,1-.29-.72.89.89,0,0,1,.3-.7,1,1,0,0,1,.74-.27,1,1,0,0,1,.73.28.91.91,0,0,1,.29.69,1,1,0,0,1-.29.72A1,1,0,0,1,130.46,82.66Z"/><path class="cls-2" d="M138.63,82.78a7.29,7.29,0,0,1-1.72-.21,4,4,0,0,1-1.35-.55l.18-1.57a5,5,0,0,0,1.34.59,5.56,5.56,0,0,0,1.48.21,2.27,2.27,0,0,0,1.27-.3,1,1,0,0,0,.45-.86.92.92,0,0,0-.37-.76,5.25,5.25,0,0,0-1.44-.62,5,5,0,0,1-2.12-1.12,2.31,2.31,0,0,1-.64-1.71,2.41,2.41,0,0,1,.39-1.36,2.58,2.58,0,0,1,1.14-.92,4.22,4.22,0,0,1,1.74-.33,6,6,0,0,1,1.44.18,5.1,5.1,0,0,1,1.28.5l-.25,1.52a5.63,5.63,0,0,0-1.17-.49A4.7,4.7,0,0,0,139,74.8a2,2,0,0,0-1.16.27.93.93,0,0,0-.39.8.9.9,0,0,0,.15.53,1.25,1.25,0,0,0,.49.38,8.43,8.43,0,0,0,1,.37,5.84,5.84,0,0,1,2.31,1.18,2.31,2.31,0,0,1,.69,1.74,2.37,2.37,0,0,1-.93,2A4,4,0,0,1,138.63,82.78Z"/><path class="cls-2" d="M145.72,82.78a2.07,2.07,0,0,1-1.65-.67,2.87,2.87,0,0,1-.57-1.93v-3.7h1.67v3.39c0,1,.36,1.43,1.09,1.43a1.1,1.1,0,0,0,.92-.4,1.76,1.76,0,0,0,.33-1.14V76.48h1.66v6.11h-1.6v-.75a1.78,1.78,0,0,1-.74.7A2.44,2.44,0,0,1,145.72,82.78Z"/><path class="cls-2" d="M151,76.48h1.6l0,.79a2.21,2.21,0,0,1,2-1,2.7,2.7,0,0,1,1.44.39,2.77,2.77,0,0,1,1,1.14,4,4,0,0,1,0,3.32,3.07,3.07,0,0,1-1,1.19,2.65,2.65,0,0,1-1.51.45,2.51,2.51,0,0,1-1.11-.24,1.89,1.89,0,0,1-.79-.66v3.65H151Zm3.19,4.81a1.5,1.5,0,0,0,1.17-.49,1.8,1.8,0,0,0,.45-1.26,1.84,1.84,0,0,0-.45-1.28,1.55,1.55,0,0,0-1.17-.49,1.53,1.53,0,0,0-1.16.49,2,2,0,0,0,0,2.54A1.5,1.5,0,0,0,154.14,81.29Z"/><path class="cls-2" d="M162.12,82.78a4.18,4.18,0,0,1-1.86-.39A2.83,2.83,0,0,1,159,81.27a3.34,3.34,0,0,1-.44-1.73,3.48,3.48,0,0,1,.39-1.66,2.86,2.86,0,0,1,1.09-1.17,3.15,3.15,0,0,1,1.64-.42,3.11,3.11,0,0,1,1.52.36,2.64,2.64,0,0,1,1,1,3.46,3.46,0,0,1,.36,1.62,3.94,3.94,0,0,1-.05.72h-4.31c.2.91.9,1.37,2.07,1.37a5.49,5.49,0,0,0,1.08-.11,4.34,4.34,0,0,0,.94-.33l.17,1.3a3.56,3.56,0,0,1-1.06.37A6.19,6.19,0,0,1,162.12,82.78Zm.88-3.9a1.48,1.48,0,0,0-.42-1,1.26,1.26,0,0,0-.94-.34,1.31,1.31,0,0,0-.94.34,1.69,1.69,0,0,0-.49,1Z"/><path class="cls-2" d="M166.11,76.48h1.6l0,1a1.88,1.88,0,0,1,.68-.83,1.71,1.71,0,0,1,1-.29,1.8,1.8,0,0,1,.71.13L170,78.07a2.21,2.21,0,0,0-.75-.14,1.27,1.27,0,0,0-1.06.49,2.24,2.24,0,0,0-.37,1.38v2.79h-1.67Z"/><path class="cls-2" d="M171.1,82.66a1,1,0,0,1-.74-.28.94.94,0,0,1-.29-.72.92.92,0,0,1,.29-.7,1.05,1.05,0,0,1,.74-.27,1,1,0,0,1,.73.28.91.91,0,0,1,.29.69,1,1,0,0,1-.29.72A1,1,0,0,1,171.1,82.66Z"/></g></g></svg>