<svg id="Layer_1" data-name="Layer 1" xmlns="http://www.w3.org/2000/svg" viewBox="0 0 500.55 72.61"><defs><style>.cls-1{fill:#9a8c7f;}</style></defs><title>Sussan_Logo</title><path class="cls-1" d="M105.39,159.1c7.28,0,7-3.73,9.36-3.73,0,1.08-.09,24.67,0,25-0.19.28-.29,0.09-0.58-0.19a30.21,30.21,0,0,0-20.72-22.48c-8-2.58-20.14-3-27.88,1.12-1.81,1.25-4.1,2.07-4.2,4.65-0.38,5.49,9.26,7.25,14.52,9.26C91.17,178,113.51,179.62,118,199c1.91,8.5-2.58,15.85-8.88,20.53-10.12,6.78-25.32,7.68-34.94,5.2-7.61-2-18.61-10.72-24.92-.6H48.64V196.21l0.52,0c0.86,2.58,1.58,4.66,2.39,6.93,4.55,12.71,20.79,20.5,30.65,20.53,6.37,0,16.14.83,19.73-6.79,0.85-2.77-1.11-5.06-3.31-6.49-8.3-4.77-18.14-6.4-27-9.64-10.41-3.44-23.49-9.07-24.15-22-0.67-7.26,2.86-13.56,8.31-18,10.4-7.63,24-8.4,36.18-5.82Z" transform="translate(-47.36 -153.61)"/><path class="cls-1" d="M204.44,155.59v64.95c0,3.78,6.5,2.88,9,2.88v1.51l-39.89,0s0-9.29,0-11.41c-3.1,5.16-9,10.1-14.88,11.53-7.73,2-16.8.57-21.87-5.16-7.73-7.92-6.34-19.57-6.63-30.17v-26.9c0-4.89-2.46-6-8.89-6v-1.35h39.48V210c0,3.46,1.91,7.65,4.27,7.72,3.36,0.52,8.47-9.88,8.47-9.88v-45c0-5.37-3.56-5.78-8.92-5.78v-1.43h39.86Z" transform="translate(-47.36 -153.61)"/><path class="cls-1" d="M535.68,165.26a38.7,38.7,0,0,1,3.11,12.36v43c0,3.84,5.71,3,9.13,3v1.44H503.15v-1.49s4.94,0.84,4.92-3.16V167.79c0-1.73-.8-4.16-3.05-4.57-1.75-.49-3.11.65-4.34,2.16a25.11,25.11,0,0,0-5,7l-0.06,48c0,3.94,5,3.17,5,3.17v1.46s-46.27-.08-46.56,0v-1.48c3.63,0,10.5.42,10.5-3v-59c0.06-5-6.14-4.62-9.21-4.64v-1.4H495c1,0.56.72,1.42,0.73,4.07s-0.1,5.5,0,8.2c1.62-2,3-3.6,4.64-5.35,5.94-7.11,16-9.05,24.43-6.42a18.19,18.19,0,0,1,10.91,9.24" transform="translate(-47.36 -153.61)"/><path class="cls-1" d="M413.44,182.35l-0.67-.34c-3.62,3.72-10.4,5.06-11.45,11.17a57.75,57.75,0,0,0-1,14c0.15,4.29-1,9,2.86,12,4.09,0.74,7.55-4.39,10.22-7.83v-29ZM442,168.82a20.94,20.94,0,0,1,2,7.83l0.19,35.42c0.38,1.72.86,2.72,2.58,3.48a3.8,3.8,0,0,0,3.15-.86c3.42-3.53,4.5-10.74,5.65-17,0.19-.19.94-0.29,0.94,0.09a54.67,54.67,0,0,1-1.43,11.17c-1.91,7.64-7.54,14.8-15.47,16.61-7.25,1.62-15.37.57-20.9-4.68-1.91-1.81-2.87-4.19-4.49-6.4-2.35,1.94-3.67,4.32-6.4,6.69-7,6.06-20,6.11-28.07,2.1a18.44,18.44,0,0,1-10.31-14.6c-0.38-6.11,3.43-11.17,8.11-14.61,9-6.11,21.29-5.82,30.74-11.27,6-3.53,6.73-11.69,5.73-17.09-0.73-4.44-3.63-6.88-7.35-8.51-7.06-2.58-15.82.16-22.44,3-0.19.38-.38,0.41,0.19,0.51,6.59-.28,13.37.13,16.52,5.76,1.62,2.48.57,5.92-.47,8.12-3.92,5.63-12.22,6.58-19,5.34-3.53-1-7.44-2.87-8.78-6.59a8.62,8.62,0,0,1,1.34-8.5c7.82-7.92,19.19-10.6,30.26-11.17,14.7,0.47,30.17,2,37.71,15.18" transform="translate(-47.36 -153.61)"/><path class="cls-1" d="M275.92,159.14c7.28,0,7-3.72,9.37-3.72,0,1.07-.1,24.67,0,25-0.19.29-.3,0.1-0.58-0.19A30.24,30.24,0,0,0,264,157.74c-8-2.58-20.14-3-27.88,1.12-2.08,1-4.22,1.65-4.2,4.68,0,4.73,9.26,7.25,14.51,9.26C261.7,178,284,179.67,288.53,199c1.91,8.5-2.58,15.85-8.88,20.53-10.12,6.78-25.2,7.39-34.94,5.2-7.68-1.73-18.61-10.72-24.92-.6h-0.62c0-8.29,0-18.46,0-27.91l0.52,0c0.86,2.58,1.58,4.66,2.39,6.93,4.55,12.71,20.79,20.42,30.65,20.45,6.38,0,16.64.63,19.86-6.7,0.72-2.57-1.24-5.05-3.44-6.49-8.3-4.77-18.14-6.4-27-9.64-10.41-3.44-23.49-9.07-24.15-22-0.67-7.25,2.86-13.56,8.31-17.95,10.41-7.64,24-8.4,36.18-5.82Z" transform="translate(-47.36 -153.61)"/><path class="cls-1" d="M352.19,159c7.28,0,7-3.72,9.36-3.72,0,1.07-.1,24.68,0,25-0.19.28-.3,0.1-0.58-0.19a30.28,30.28,0,0,0-20.72-22.53c-8-2.58-20.14-3-27.87,1.12-1.82,1.25-4.05,2.13-4.15,4.71,0.52,6,9.2,7.25,14.46,9.26C338,178,360.29,179.58,364.78,199c1.91,8.5-2.57,15.85-8.88,20.52-10.12,6.78-25.08,7.62-34.94,5.2-7.86-1.93-18.62-10.72-24.92-.61h-0.62c0-8.32,0-18.46,0-27.91l0.52,0c0.86,2.58,1.58,4.61,2.39,6.87,4.55,12.71,20.79,20.28,30.65,20.32,6.37,0,16.16,1,19.86-6.57,1-2.72-1.25-5.06-3.44-6.49-8.31-4.77-18.14-6.4-27-9.64-10.41-3.44-23.49-9.07-24.15-22-0.67-7.26,2.86-13.55,8.31-17.95,10.4-7.63,24-8.4,36.18-5.82Z" transform="translate(-47.36 -153.61)"/></svg>