<?xml version="1.0" encoding="utf-8"?>
<!-- Generator: Adobe Illustrator 19.2.1, SVG Export Plug-In . SVG Version: 6.00 Build 0)  -->
<svg version="1.1" id="WW_x5F_MS_x5F_Hz" xmlns="http://www.w3.org/2000/svg" xmlns:xlink="http://www.w3.org/1999/xlink" x="0px"
	 y="0px" viewBox="0 0 912.9 216" style="enable-background:new 0 0 912.9 216;" xml:space="preserve">
<style type="text/css">
	.st0{fill:#00582D;}
	.st1{fill:url(#SVGID_1_);}
	.st2{fill:url(#SVGID_2_);}
	.st3{fill:url(#SVGID_3_);}
	.st4{fill:url(#SVGID_4_);}
	.st5{fill:url(#SVGID_5_);}
	.st6{fill:url(#SVGID_6_);}
</style>
<g>
	<g>
		<g>
			<g>
				<g>
					<rect x="252.8" y="48.2" class="st0" width="8.8" height="107.9"/>
				</g>
				<path class="st0" d="M243,117.8c0,24.1-13.2,40.1-32.9,40.1c-20,0-33.3-15.9-33.3-40.1c0-24.6,13.2-40.3,33.5-40.3
					C230.2,77.5,243,93.2,243,117.8z M186.3,117.9c0,18.6,9.8,32.4,23.6,32.4c13.7,0,23.4-13.9,23.4-32.6c0-18.9-9.6-32.8-23.3-32.8
					C195.8,85,186.3,98.6,186.3,117.9z"/>
				<path class="st0" d="M429.8,117.8c0,24.1-13.2,40.1-32.9,40.1c-20,0-33.3-15.9-33.3-40.1c0-24.6,13.2-40.3,33.5-40.3
					C417.1,77.5,429.8,93.2,429.8,117.8z M373.2,117.9c0,18.6,9.8,32.4,23.6,32.4c13.7,0,23.4-13.9,23.4-32.6
					c0-18.9-9.6-32.8-23.3-32.8C382.6,85,373.2,98.6,373.2,117.9z"/>
				<path class="st0" d="M170.2,117.8c0,24.1-13.2,40.1-32.9,40.1c-20,0-33.3-15.9-33.3-40.1c0-24.6,13.2-40.3,33.5-40.3
					C157.4,77.5,170.2,93.2,170.2,117.8z M113.5,117.9c0,18.6,9.8,32.4,23.6,32.4c13.7,0,23.4-13.9,23.4-32.6
					c0-18.9-9.6-32.8-23.3-32.8C122.9,85,113.5,98.6,113.5,117.9z"/>
				<g>
					<path class="st0" d="M527,79.4V83c-0.2,3.3,0,6.8-0.5,10.1c5-9.5,13.8-14.9,24.2-14.9c17,0,23.1,12.5,24,28.5
						c0.3,3.7,0.5,9.8,0.5,13.5v35.8h-8.8v-35.8c0-4.4-0.2-11.9-0.4-15.6c-1.1-12.2-7.1-18.9-16.8-18.9c-8,0-15.3,5.2-19.2,13.5
						c-1.5,3-2.1,6-2.5,12.5c-0.2,2.4-0.3,7.2-0.3,8.4v35.8h-8.7V48.2h8.7L527,79.4L527,79.4z"/>
				</g>
				<g>
					<path class="st0" d="M622.8,88.4c-5.9-2-8.7-2.6-14.6-2.9c-8.8-0.4-15,5.3-15,11.8c0,15.9,36,14.1,36,38.5
						c0,12.8-10.7,21.7-26.3,21.7c-6.6,0-12.2-1.1-18.7-3.8l0.6-8.7c6.6,3.6,11.7,5,17.5,5c10,0,17.3-6.6,17.3-14.2
						c0-18.4-35.1-15.2-35.1-38.4c0-11.9,9.4-19.7,24-19.5c5.6,0.1,8.3,0.2,15.2,2.6L622.8,88.4z"/>
				</g>
				<path class="st0" d="M320.6,79.1c0,0,10.7,43.6,12.9,53.8c1.1,5,2.7,12.3,2.7,12.3s1.7-7.3,3-12.2c2.8-10.3,15-53.8,15-53.8h9.5
					l-22.3,76.9H331c0,0-11.7-50.8-13.1-57.1c-0.7-3.1-1.6-7.9-1.6-7.9s-1,4.8-1.7,7.9c-1.4,6.3-13.1,57.1-13.1,57.1h-10.4
					l-22.3-76.9h9.5c0,0,12.2,43.5,15,53.8c1.3,5,3,12.2,3,12.2s1.6-7.3,2.7-12.3c2.2-10.2,12.9-53.8,12.9-53.8L320.6,79.1z"/>
				<path class="st0" d="M56.5,67.5c0,0,14.4,52.4,16.8,61.5c1.4,5.1,3.5,14,3.5,14s1.9-8.9,3.1-14c2.2-9,15.7-61.4,15.7-61.4h9.2
					L82,156.1H72c0,0-16.8-64.1-17.6-67.4c-0.8-3.3-2-9.6-2-9.6s-1.2,6.3-2,9.6c-0.8,3.3-17.6,67.4-17.6,67.4h-10L0,67.5h9.2
					c0,0,13.5,52.5,15.7,61.4c1.3,5.1,3.1,14,3.1,14s2.1-8.9,3.5-14c2.4-9.1,16.8-61.5,16.8-61.5H56.5z"/>
				<path class="st0" d="M439.3,156.1V79.2h7.5v17.6c0,0,4.2-16.4,27.4-17.6c3.2-0.2,7.4-0.1,7.4-0.1V59.9l8.7-3.4v22.8h18V87h-18
					c0,0,0,38.8,0,46.7c0,11,3.4,14.9,11,14.9c4.2,0,7.6-1.5,7.6-1.5l0.9,7.6c0,0-4.3,1.4-9,1.4c-2.4,0-9.4,0.3-14.2-4.5
					c-3.2-3.2-5.1-8.5-5.1-18.3c0-8.9,0-46.6,0-46.6c-3,0-9.6-0.4-14.9,1c-7.1,1.9-18.7,9.2-18.7,27.6c0,6.7,0,40.8,0,40.8
					L439.3,156.1L439.3,156.1z"/>
			</g>
			<g>
				<g>
					
						<linearGradient id="SVGID_1_" gradientUnits="userSpaceOnUse" x1="892.955" y1="42.0393" x2="817.705" y2="59.5976" gradientTransform="matrix(1 0 0 -1 0 218.16)">
						<stop  offset="0.1209" style="stop-color:#009950"/>
						<stop  offset="0.5336" style="stop-color:#6BB453"/>
						<stop  offset="0.8432" style="stop-color:#9CC854"/>
						<stop  offset="1" style="stop-color:#B1D355"/>
					</linearGradient>
					<path class="st1" d="M838.6,182.1c-5.4,0-10.5-0.7-15.3-1.9l0,0l0,0c-7.9,10.9-18.1,20.3-29.9,26.7c10.4,5.7,22.2,9.1,34.7,9.1
						c47.9,0,80.5-49.8,84.4-92.2C910.9,129.4,901.1,182.1,838.6,182.1z"/>
					
						<linearGradient id="SVGID_2_" gradientUnits="userSpaceOnUse" x1="864.6345" y1="204.6649" x2="864.6345" y2="34.8362" gradientTransform="matrix(1 0 0 -1 0 218.16)">
						<stop  offset="0" style="stop-color:#06A94E"/>
						<stop  offset="0.1489" style="stop-color:#5AB450"/>
						<stop  offset="0.3179" style="stop-color:#81C052"/>
						<stop  offset="0.4786" style="stop-color:#9BCA53"/>
						<stop  offset="0.6258" style="stop-color:#ABD155"/>
						<stop  offset="0.7473" style="stop-color:#B1D355"/>
					</linearGradient>
					<path class="st2" d="M850.5,49.7c-23,0-34.1,13.4-34.1,13.4c23.8,2.4,53,19.2,53,53.9c0,33.8-22.1,49.1-40.2,54.2
						c-1.8,3.1-3.7,6.1-5.8,9c4.8,1.2,9.9,1.9,15.3,1.9c62.4,0,72.3-52.7,73.8-58.3c0.3-2.8,0.4-5.6,0.4-8.4
						C912.9,67.9,876.6,49.7,850.5,49.7z"/>
					
						<linearGradient id="SVGID_3_" gradientUnits="userSpaceOnUse" x1="728.208" y1="204.6649" x2="728.208" y2="34.8362" gradientTransform="matrix(1 0 0 -1 0 218.16)">
						<stop  offset="0" style="stop-color:#06A94E"/>
						<stop  offset="0.1489" style="stop-color:#5AB450"/>
						<stop  offset="0.3179" style="stop-color:#81C052"/>
						<stop  offset="0.4786" style="stop-color:#9BCA53"/>
						<stop  offset="0.6258" style="stop-color:#ABD155"/>
						<stop  offset="0.7473" style="stop-color:#B1D355"/>
					</linearGradient>
					<path class="st3" d="M748.3,182.1c13.3,0,24.8-4,34.1-10.5c-3.2,1-7.1,1.7-11,1.7c-17.6,0-53.9-13.1-53.9-56.3
						c0-34.8,29.2-51.5,53-53.9c0,0-11.1-13.4-34.1-13.4c-26,0-62.3,18.2-62.3,65.7c0,2.8,0.1,5.5,0.4,8.4
						C675.9,129.5,685.6,182.1,748.3,182.1z"/>
					
						<linearGradient id="SVGID_4_" gradientUnits="userSpaceOnUse" x1="769.9985" y1="125.4046" x2="769.9985" y2="42.6672" gradientTransform="matrix(1 0 0 -1 0 218.16)">
						<stop  offset="0.1868" style="stop-color:#009950"/>
						<stop  offset="0.5435" style="stop-color:#74B753"/>
						<stop  offset="0.7802" style="stop-color:#B1D355"/>
					</linearGradient>
					<path class="st4" d="M771.4,173.3c3.9,0,7.8-0.8,11-1.7c0,0,0,0,0,0c4.3-3,8-6.5,11.3-10.4c0,0,0,0,0,0
						c-2.2-2.8-12.4-16.6-12.4-35.1c0-17.3,9.3-24.7,12.3-26.6c0,0,0,0,0,0l0,0c-6.4-4.7-13.5-6.1-17.6-6.1
						c-6.6,0-24.3,4.5-28.5,24.8c0,0,0,0,0,0c0,0,0,0,0,0.1c-0.2,0.8-0.3,1.6-0.4,2.4c-0.4,3.4-0.7,7.1-0.7,11.2
						c0,16.3,6.9,30.8,12.3,39.7C763.4,172.7,767.8,173.3,771.4,173.3z"/>
					
						<linearGradient id="SVGID_5_" gradientUnits="userSpaceOnUse" x1="737.7337" y1="11.0013" x2="800.2177" y2="246.7092" gradientTransform="matrix(1 0 0 -1 0 218.16)">
						<stop  offset="5.490000e-02" style="stop-color:#009950"/>
						<stop  offset="0.1254" style="stop-color:#32A451"/>
						<stop  offset="0.2496" style="stop-color:#6FB553"/>
						<stop  offset="0.3615" style="stop-color:#92C454"/>
						<stop  offset="0.4561" style="stop-color:#A8CE55"/>
						<stop  offset="0.522" style="stop-color:#B1D355"/>
					</linearGradient>
					<path class="st5" d="M793.8,77.3c-28.9,0-42.7,21.3-46.3,40.8c4.2-20.3,21.9-24.8,28.5-24.8c4.1,0,11.2,1.4,17.6,6.1
						c0,0,0,0,0,0c6.9,5.2,12.9,13.9,12.9,27.8c0,11.9-4.6,24-12.8,33.9c0,0,0,0,0,0c-10.2,12.3-26,20.9-45.4,20.9
						c-62.6,0-72.3-52.6-73.8-58.3c3.9,42.3,36.5,92.2,84.4,92.2c46.8,0,82.5-47.2,82.5-86.8C841.3,101.8,825.8,77.3,793.8,77.3z"/>
					
						<linearGradient id="SVGID_6_" gradientUnits="userSpaceOnUse" x1="783.1821" y1="149.9633" x2="855.3843" y2="221.2359" gradientTransform="matrix(1 0 0 -1 0 218.16)">
						<stop  offset="0" style="stop-color:#5CB249"/>
						<stop  offset="0.4836" style="stop-color:#88C14E"/>
						<stop  offset="1" style="stop-color:#B1D355"/>
					</linearGradient>
					<path class="st6" d="M794.6,61.2c0,0-10-9.6-10.7-22.7c-0.5-9.5,3.4-24.1,18.4-32.1c35.3-18.9,65.9,8.6,62.3,26.4
						c0,0-26.3-11.9-50.4,2.3C796.5,45.6,794.6,61.2,794.6,61.2z"/>
				</g>
			</g>
		</g>
	</g>
</g>
</svg>
